%TF.GenerationSoftware,KiCad,Pcbnew,9.0.7*%
%TF.CreationDate,2026-05-05T14:16:49-05:00*%
%TF.ProjectId,Polarimeter,506f6c61-7269-46d6-9574-65722e6b6963,rev?*%
%TF.SameCoordinates,Original*%
%TF.FileFunction,Paste,Top*%
%TF.FilePolarity,Positive*%
%FSLAX46Y46*%
G04 Gerber Fmt 4.6, Leading zero omitted, Abs format (unit mm)*
G04 Created by KiCad (PCBNEW 9.0.7) date 2026-05-05 14:16:49*
%MOMM*%
%LPD*%
G01*
G04 APERTURE LIST*
G04 Aperture macros list*
%AMRoundRect*
0 Rectangle with rounded corners*
0 $1 Rounding radius*
0 $2 $3 $4 $5 $6 $7 $8 $9 X,Y pos of 4 corners*
0 Add a 4 corners polygon primitive as box body*
4,1,4,$2,$3,$4,$5,$6,$7,$8,$9,$2,$3,0*
0 Add four circle primitives for the rounded corners*
1,1,$1+$1,$2,$3*
1,1,$1+$1,$4,$5*
1,1,$1+$1,$6,$7*
1,1,$1+$1,$8,$9*
0 Add four rect primitives between the rounded corners*
20,1,$1+$1,$2,$3,$4,$5,0*
20,1,$1+$1,$4,$5,$6,$7,0*
20,1,$1+$1,$6,$7,$8,$9,0*
20,1,$1+$1,$8,$9,$2,$3,0*%
G04 Aperture macros list end*
%ADD10C,0.000000*%
%ADD11RoundRect,0.225000X-0.250000X0.225000X-0.250000X-0.225000X0.250000X-0.225000X0.250000X0.225000X0*%
%ADD12RoundRect,0.150000X0.512500X0.150000X-0.512500X0.150000X-0.512500X-0.150000X0.512500X-0.150000X0*%
%ADD13RoundRect,0.200000X0.200000X0.275000X-0.200000X0.275000X-0.200000X-0.275000X0.200000X-0.275000X0*%
%ADD14RoundRect,0.200000X0.275000X-0.200000X0.275000X0.200000X-0.275000X0.200000X-0.275000X-0.200000X0*%
%ADD15RoundRect,0.225000X0.250000X-0.225000X0.250000X0.225000X-0.250000X0.225000X-0.250000X-0.225000X0*%
%ADD16RoundRect,0.225000X-0.225000X-0.250000X0.225000X-0.250000X0.225000X0.250000X-0.225000X0.250000X0*%
%ADD17RoundRect,0.200000X-0.200000X-0.275000X0.200000X-0.275000X0.200000X0.275000X-0.200000X0.275000X0*%
%ADD18RoundRect,0.250000X-0.475000X0.250000X-0.475000X-0.250000X0.475000X-0.250000X0.475000X0.250000X0*%
%ADD19RoundRect,0.172500X0.172500X-0.262500X0.172500X0.262500X-0.172500X0.262500X-0.172500X-0.262500X0*%
%ADD20RoundRect,0.093750X0.106250X-0.093750X0.106250X0.093750X-0.106250X0.093750X-0.106250X-0.093750X0*%
%ADD21RoundRect,0.250000X0.250000X0.475000X-0.250000X0.475000X-0.250000X-0.475000X0.250000X-0.475000X0*%
%ADD22RoundRect,0.250000X-0.250000X-0.475000X0.250000X-0.475000X0.250000X0.475000X-0.250000X0.475000X0*%
%ADD23RoundRect,0.250000X0.475000X-0.250000X0.475000X0.250000X-0.475000X0.250000X-0.475000X-0.250000X0*%
%ADD24R,0.558800X1.981200*%
%ADD25RoundRect,0.200000X-0.275000X0.200000X-0.275000X-0.200000X0.275000X-0.200000X0.275000X0.200000X0*%
%ADD26RoundRect,0.225000X0.225000X0.250000X-0.225000X0.250000X-0.225000X-0.250000X0.225000X-0.250000X0*%
%ADD27R,1.000000X0.599999*%
%ADD28R,0.279400X1.333500*%
%ADD29R,1.981200X1.778000*%
%ADD30R,3.400000X0.980000*%
%ADD31R,0.952500X0.558800*%
%ADD32RoundRect,0.250000X0.650000X2.450000X-0.650000X2.450000X-0.650000X-2.450000X0.650000X-2.450000X0*%
%ADD33R,0.900000X0.300000*%
%ADD34R,0.300000X0.900000*%
%ADD35R,0.900000X0.900000*%
G04 APERTURE END LIST*
D10*
%TO.C,U2*%
G36*
X199571408Y-93215107D02*
G01*
X198771193Y-93215107D01*
X198771193Y-92914892D01*
X199571408Y-92914892D01*
X199571408Y-93215107D01*
G37*
G36*
X199571408Y-93865108D02*
G01*
X198771193Y-93865108D01*
X198771193Y-93564893D01*
X199571408Y-93564893D01*
X199571408Y-93865108D01*
G37*
G36*
X199571408Y-94515107D02*
G01*
X198771193Y-94515107D01*
X198771193Y-94214892D01*
X199571408Y-94214892D01*
X199571408Y-94515107D01*
G37*
G36*
X199571408Y-95165108D02*
G01*
X198771193Y-95165108D01*
X198771193Y-94864893D01*
X199571408Y-94864893D01*
X199571408Y-95165108D01*
G37*
G36*
X202521407Y-93215107D02*
G01*
X201721192Y-93215107D01*
X201721192Y-92914892D01*
X202521407Y-92914892D01*
X202521407Y-93215107D01*
G37*
G36*
X202521407Y-93865108D02*
G01*
X201721192Y-93865108D01*
X201721192Y-93564893D01*
X202521407Y-93564893D01*
X202521407Y-93865108D01*
G37*
G36*
X202521407Y-94515107D02*
G01*
X201721192Y-94515107D01*
X201721192Y-94214892D01*
X202521407Y-94214892D01*
X202521407Y-94515107D01*
G37*
G36*
X202521407Y-95165108D02*
G01*
X201721192Y-95165108D01*
X201721192Y-94864893D01*
X202521407Y-94864893D01*
X202521407Y-95165108D01*
G37*
G36*
X200152600Y-93011179D02*
G01*
X200011179Y-93152600D01*
X199896230Y-93152600D01*
X199896230Y-92914930D01*
X200152600Y-92914930D01*
X200152600Y-93011179D01*
G37*
G36*
X200152600Y-95068821D02*
G01*
X200152600Y-95165070D01*
X199896230Y-95165070D01*
X199896230Y-94927400D01*
X200011179Y-94927400D01*
X200152600Y-95068821D01*
G37*
G36*
X201396370Y-93152600D02*
G01*
X201281421Y-93152600D01*
X201140000Y-93011179D01*
X201140000Y-92914930D01*
X201396370Y-92914930D01*
X201396370Y-93152600D01*
G37*
G36*
X201396370Y-95165070D02*
G01*
X201140000Y-95165070D01*
X201140000Y-95068821D01*
X201281421Y-94927400D01*
X201396370Y-94927400D01*
X201396370Y-95165070D01*
G37*
G36*
X200152600Y-93494021D02*
G01*
X200152600Y-93798579D01*
X200011179Y-93940000D01*
X199896230Y-93940000D01*
X199896230Y-93352600D01*
X200011179Y-93352600D01*
X200152600Y-93494021D01*
G37*
G36*
X200152600Y-94281421D02*
G01*
X200152600Y-94585979D01*
X200011179Y-94727400D01*
X199896230Y-94727400D01*
X199896230Y-94140000D01*
X200011179Y-94140000D01*
X200152600Y-94281421D01*
G37*
G36*
X200940000Y-93011179D02*
G01*
X200798579Y-93152600D01*
X200494021Y-93152600D01*
X200352600Y-93011179D01*
X200352600Y-92914930D01*
X200940000Y-92914930D01*
X200940000Y-93011179D01*
G37*
G36*
X200940000Y-95068821D02*
G01*
X200940000Y-95165070D01*
X200352600Y-95165070D01*
X200352600Y-95068821D01*
X200494021Y-94927400D01*
X200798579Y-94927400D01*
X200940000Y-95068821D01*
G37*
G36*
X201396370Y-93940000D02*
G01*
X201281421Y-93940000D01*
X201140000Y-93798579D01*
X201140000Y-93494021D01*
X201281421Y-93352600D01*
X201396370Y-93352600D01*
X201396370Y-93940000D01*
G37*
G36*
X201396370Y-94727400D02*
G01*
X201281421Y-94727400D01*
X201140000Y-94585979D01*
X201140000Y-94281421D01*
X201281421Y-94140000D01*
X201396370Y-94140000D01*
X201396370Y-94727400D01*
G37*
G36*
X200940000Y-93494021D02*
G01*
X200940000Y-93798579D01*
X200798579Y-93940000D01*
X200494021Y-93940000D01*
X200352600Y-93798579D01*
X200352600Y-93494021D01*
X200494021Y-93352600D01*
X200798579Y-93352600D01*
X200940000Y-93494021D01*
G37*
G36*
X200940000Y-94281421D02*
G01*
X200940000Y-94585979D01*
X200798579Y-94727400D01*
X200494021Y-94727400D01*
X200352600Y-94585979D01*
X200352600Y-94281421D01*
X200494021Y-94140000D01*
X200798579Y-94140000D01*
X200940000Y-94281421D01*
G37*
%TO.C,U3*%
G36*
X197531408Y-44675107D02*
G01*
X196731193Y-44675107D01*
X196731193Y-44374892D01*
X197531408Y-44374892D01*
X197531408Y-44675107D01*
G37*
G36*
X197531408Y-45325108D02*
G01*
X196731193Y-45325108D01*
X196731193Y-45024893D01*
X197531408Y-45024893D01*
X197531408Y-45325108D01*
G37*
G36*
X197531408Y-45975107D02*
G01*
X196731193Y-45975107D01*
X196731193Y-45674892D01*
X197531408Y-45674892D01*
X197531408Y-45975107D01*
G37*
G36*
X197531408Y-46625108D02*
G01*
X196731193Y-46625108D01*
X196731193Y-46324893D01*
X197531408Y-46324893D01*
X197531408Y-46625108D01*
G37*
G36*
X200481407Y-44675107D02*
G01*
X199681192Y-44675107D01*
X199681192Y-44374892D01*
X200481407Y-44374892D01*
X200481407Y-44675107D01*
G37*
G36*
X200481407Y-45325108D02*
G01*
X199681192Y-45325108D01*
X199681192Y-45024893D01*
X200481407Y-45024893D01*
X200481407Y-45325108D01*
G37*
G36*
X200481407Y-45975107D02*
G01*
X199681192Y-45975107D01*
X199681192Y-45674892D01*
X200481407Y-45674892D01*
X200481407Y-45975107D01*
G37*
G36*
X200481407Y-46625108D02*
G01*
X199681192Y-46625108D01*
X199681192Y-46324893D01*
X200481407Y-46324893D01*
X200481407Y-46625108D01*
G37*
G36*
X198112600Y-44471179D02*
G01*
X197971179Y-44612600D01*
X197856230Y-44612600D01*
X197856230Y-44374930D01*
X198112600Y-44374930D01*
X198112600Y-44471179D01*
G37*
G36*
X198112600Y-46528821D02*
G01*
X198112600Y-46625070D01*
X197856230Y-46625070D01*
X197856230Y-46387400D01*
X197971179Y-46387400D01*
X198112600Y-46528821D01*
G37*
G36*
X199356370Y-44612600D02*
G01*
X199241421Y-44612600D01*
X199100000Y-44471179D01*
X199100000Y-44374930D01*
X199356370Y-44374930D01*
X199356370Y-44612600D01*
G37*
G36*
X199356370Y-46625070D02*
G01*
X199100000Y-46625070D01*
X199100000Y-46528821D01*
X199241421Y-46387400D01*
X199356370Y-46387400D01*
X199356370Y-46625070D01*
G37*
G36*
X198112600Y-44954021D02*
G01*
X198112600Y-45258579D01*
X197971179Y-45400000D01*
X197856230Y-45400000D01*
X197856230Y-44812600D01*
X197971179Y-44812600D01*
X198112600Y-44954021D01*
G37*
G36*
X198112600Y-45741421D02*
G01*
X198112600Y-46045979D01*
X197971179Y-46187400D01*
X197856230Y-46187400D01*
X197856230Y-45600000D01*
X197971179Y-45600000D01*
X198112600Y-45741421D01*
G37*
G36*
X198900000Y-44471179D02*
G01*
X198758579Y-44612600D01*
X198454021Y-44612600D01*
X198312600Y-44471179D01*
X198312600Y-44374930D01*
X198900000Y-44374930D01*
X198900000Y-44471179D01*
G37*
G36*
X198900000Y-46528821D02*
G01*
X198900000Y-46625070D01*
X198312600Y-46625070D01*
X198312600Y-46528821D01*
X198454021Y-46387400D01*
X198758579Y-46387400D01*
X198900000Y-46528821D01*
G37*
G36*
X199356370Y-45400000D02*
G01*
X199241421Y-45400000D01*
X199100000Y-45258579D01*
X199100000Y-44954021D01*
X199241421Y-44812600D01*
X199356370Y-44812600D01*
X199356370Y-45400000D01*
G37*
G36*
X199356370Y-46187400D02*
G01*
X199241421Y-46187400D01*
X199100000Y-46045979D01*
X199100000Y-45741421D01*
X199241421Y-45600000D01*
X199356370Y-45600000D01*
X199356370Y-46187400D01*
G37*
G36*
X198900000Y-44954021D02*
G01*
X198900000Y-45258579D01*
X198758579Y-45400000D01*
X198454021Y-45400000D01*
X198312600Y-45258579D01*
X198312600Y-44954021D01*
X198454021Y-44812600D01*
X198758579Y-44812600D01*
X198900000Y-44954021D01*
G37*
G36*
X198900000Y-45741421D02*
G01*
X198900000Y-46045979D01*
X198758579Y-46187400D01*
X198454021Y-46187400D01*
X198312600Y-46045979D01*
X198312600Y-45741421D01*
X198454021Y-45600000D01*
X198758579Y-45600000D01*
X198900000Y-45741421D01*
G37*
%TD*%
D11*
%TO.C,C12*%
X186250000Y-73405000D03*
X186250000Y-71855000D03*
%TD*%
D12*
%TO.C,U5*%
X195000000Y-97450000D03*
X195000000Y-96500000D03*
X195000000Y-95550000D03*
X192725000Y-95550000D03*
X192725000Y-97450000D03*
%TD*%
D13*
%TO.C,R16*%
X128945000Y-99099501D03*
X127295000Y-99099501D03*
%TD*%
D14*
%TO.C,R13*%
X128745000Y-68457001D03*
X128745000Y-66807001D03*
%TD*%
D15*
%TO.C,C21*%
X130745000Y-68407001D03*
X130745000Y-66857001D03*
%TD*%
D16*
%TO.C,C17*%
X139225000Y-49412001D03*
X140775000Y-49412001D03*
%TD*%
D17*
%TO.C,R14*%
X132245000Y-69632001D03*
X133895000Y-69632001D03*
%TD*%
D18*
%TO.C,C5*%
X202000000Y-42050000D03*
X202000000Y-43950000D03*
%TD*%
D19*
%TO.C,U8*%
X127270000Y-96599501D03*
X128070000Y-96599501D03*
D20*
X127020000Y-97487001D03*
X127670000Y-97487001D03*
X128320000Y-97487001D03*
X128320000Y-95712001D03*
X127670000Y-95712001D03*
X127020000Y-95712001D03*
%TD*%
D21*
%TO.C,C2*%
X206000000Y-92500000D03*
X204100000Y-92500000D03*
%TD*%
D17*
%TO.C,R10*%
X189400000Y-95550000D03*
X191050000Y-95550000D03*
%TD*%
D21*
%TO.C,C11*%
X185570000Y-62600000D03*
X183670000Y-62600000D03*
%TD*%
D22*
%TO.C,C19*%
X124795000Y-69632001D03*
X126695000Y-69632001D03*
%TD*%
D16*
%TO.C,C18*%
X139225000Y-47412001D03*
X140775000Y-47412001D03*
%TD*%
D23*
%TO.C,C31*%
X189770000Y-65560000D03*
X189770000Y-63660000D03*
%TD*%
D22*
%TO.C,C25*%
X123550000Y-99000000D03*
X125450000Y-99000000D03*
%TD*%
D15*
%TO.C,C6*%
X193500000Y-44550000D03*
X193500000Y-43000000D03*
%TD*%
D13*
%TO.C,R12*%
X131955000Y-78830000D03*
X130305000Y-78830000D03*
%TD*%
D24*
%TO.C,U1*%
X181045000Y-66216200D03*
X179775000Y-66216200D03*
X178505000Y-66216200D03*
X177235000Y-66216200D03*
X177235000Y-71143800D03*
X178505000Y-71143800D03*
X179775000Y-71143800D03*
X181045000Y-71143800D03*
%TD*%
D25*
%TO.C,R7*%
X174330000Y-65545000D03*
X174330000Y-67195000D03*
%TD*%
D26*
%TO.C,C99*%
X194225000Y-99050000D03*
X192675000Y-99050000D03*
%TD*%
D25*
%TO.C,R9*%
X185610000Y-64405000D03*
X185610000Y-66055000D03*
%TD*%
D27*
%TO.C,U4*%
X169014999Y-69229999D03*
X169014999Y-70180000D03*
X169014999Y-71129998D03*
X171764999Y-71129998D03*
X171764999Y-70180000D03*
X171764999Y-69229999D03*
%TD*%
D25*
%TO.C,R4*%
X210825000Y-37675000D03*
X210825000Y-39325000D03*
%TD*%
D18*
%TO.C,C30*%
X188020000Y-71890000D03*
X188020000Y-73790000D03*
%TD*%
D11*
%TO.C,C27*%
X207500000Y-67225000D03*
X207500000Y-68775000D03*
%TD*%
D28*
%TO.C,U7*%
X127739998Y-76332300D03*
X128240000Y-76332300D03*
X128739999Y-76332300D03*
X129239998Y-76332300D03*
X129740000Y-76332300D03*
X129740000Y-71900000D03*
X129239998Y-71900000D03*
X128739999Y-71900000D03*
X128240000Y-71900000D03*
X127739998Y-71900000D03*
D29*
X128739999Y-74116150D03*
%TD*%
D22*
%TO.C,C8*%
X173380000Y-68960000D03*
X175280000Y-68960000D03*
%TD*%
D21*
%TO.C,C15*%
X136990000Y-47632001D03*
X135090000Y-47632001D03*
%TD*%
D16*
%TO.C,C16*%
X139225000Y-51412001D03*
X140775000Y-51412001D03*
%TD*%
D11*
%TO.C,C29*%
X197500000Y-95725000D03*
X197500000Y-97275000D03*
%TD*%
D30*
%TO.C,L1*%
X125745000Y-79447001D03*
X125745000Y-81817001D03*
%TD*%
D15*
%TO.C,C26*%
X214000000Y-65775000D03*
X214000000Y-64225000D03*
%TD*%
D16*
%TO.C,C7*%
X170205000Y-72960000D03*
X171755000Y-72960000D03*
%TD*%
D23*
%TO.C,C22*%
X129245000Y-83734741D03*
X129245000Y-81834741D03*
%TD*%
D11*
%TO.C,C4*%
X182900000Y-67925000D03*
X182900000Y-69475000D03*
%TD*%
D12*
%TO.C,U6*%
X192775000Y-48400000D03*
X192775000Y-47450000D03*
X192775000Y-46500000D03*
X190500000Y-46500000D03*
X190500000Y-48400000D03*
%TD*%
D25*
%TO.C,R1*%
X210540000Y-87040000D03*
X210540000Y-88690000D03*
%TD*%
D15*
%TO.C,C3*%
X197215000Y-93490000D03*
X197215000Y-91940000D03*
%TD*%
%TO.C,C13*%
X187970000Y-65625000D03*
X187970000Y-64075000D03*
%TD*%
D13*
%TO.C,R15*%
X133905000Y-72710000D03*
X132255000Y-72710000D03*
%TD*%
D31*
%TO.C,U9*%
X212000000Y-67950001D03*
X212000000Y-67000000D03*
X212000000Y-66049999D03*
X209447300Y-66049999D03*
X209447300Y-67000000D03*
X209447300Y-67950001D03*
%TD*%
D18*
%TO.C,C10*%
X176730000Y-73760000D03*
X176730000Y-75660000D03*
%TD*%
D21*
%TO.C,C24*%
X126020000Y-94099501D03*
X124120000Y-94099501D03*
%TD*%
D26*
%TO.C,C100*%
X192275000Y-50000000D03*
X190725000Y-50000000D03*
%TD*%
D17*
%TO.C,R49*%
X187175000Y-46500000D03*
X188825000Y-46500000D03*
%TD*%
D32*
%TO.C,C14*%
X131510000Y-55042001D03*
X126410000Y-55042001D03*
%TD*%
D14*
%TO.C,R8*%
X174310000Y-72660000D03*
X174310000Y-71010000D03*
%TD*%
D26*
%TO.C,C4*%
X214165000Y-39500000D03*
X212615000Y-39500000D03*
%TD*%
D11*
%TO.C,C20*%
X131650000Y-75200000D03*
X131650000Y-76750000D03*
%TD*%
%TO.C,C28*%
X195500000Y-47000000D03*
X195500000Y-48550000D03*
%TD*%
D33*
%TO.C,IC1*%
X187120000Y-67840000D03*
X187120000Y-68340000D03*
X187120000Y-68840000D03*
X187120000Y-69340000D03*
D34*
X187820000Y-70040000D03*
X188320000Y-70040000D03*
X188820000Y-70040000D03*
X189320000Y-70040000D03*
D33*
X190020000Y-69340000D03*
X190020000Y-68840000D03*
X190020000Y-68340000D03*
X190020000Y-67840000D03*
D34*
X189320000Y-67140000D03*
X188820000Y-67140000D03*
X188320000Y-67140000D03*
X187820000Y-67140000D03*
D35*
X188570000Y-68590000D03*
%TD*%
D14*
%TO.C,R3*%
X195540000Y-93690000D03*
X195540000Y-92040000D03*
%TD*%
D25*
%TO.C,R5*%
X203950000Y-42175000D03*
X203950000Y-43825000D03*
%TD*%
D26*
%TO.C,C23*%
X133845000Y-71180000D03*
X132295000Y-71180000D03*
%TD*%
%TO.C,C1*%
X213975000Y-88700000D03*
X212425000Y-88700000D03*
%TD*%
D21*
%TO.C,C9*%
X172400000Y-65890000D03*
X170500000Y-65890000D03*
%TD*%
D17*
%TO.C,R2*%
X204175000Y-90500000D03*
X205825000Y-90500000D03*
%TD*%
D14*
%TO.C,R6*%
X195000000Y-44600000D03*
X195000000Y-42950000D03*
%TD*%
M02*
