%TF.GenerationSoftware,KiCad,Pcbnew,9.0.7*%
%TF.CreationDate,2026-05-05T14:16:49-05:00*%
%TF.ProjectId,Polarimeter,506f6c61-7269-46d6-9574-65722e6b6963,rev?*%
%TF.SameCoordinates,Original*%
%TF.FileFunction,Soldermask,Top*%
%TF.FilePolarity,Negative*%
%FSLAX46Y46*%
G04 Gerber Fmt 4.6, Leading zero omitted, Abs format (unit mm)*
G04 Created by KiCad (PCBNEW 9.0.7) date 2026-05-05 14:16:49*
%MOMM*%
%LPD*%
G01*
G04 APERTURE LIST*
G04 Aperture macros list*
%AMRoundRect*
0 Rectangle with rounded corners*
0 $1 Rounding radius*
0 $2 $3 $4 $5 $6 $7 $8 $9 X,Y pos of 4 corners*
0 Add a 4 corners polygon primitive as box body*
4,1,4,$2,$3,$4,$5,$6,$7,$8,$9,$2,$3,0*
0 Add four circle primitives for the rounded corners*
1,1,$1+$1,$2,$3*
1,1,$1+$1,$4,$5*
1,1,$1+$1,$6,$7*
1,1,$1+$1,$8,$9*
0 Add four rect primitives between the rounded corners*
20,1,$1+$1,$2,$3,$4,$5,0*
20,1,$1+$1,$4,$5,$6,$7,0*
20,1,$1+$1,$6,$7,$8,$9,0*
20,1,$1+$1,$8,$9,$2,$3,0*%
G04 Aperture macros list end*
%ADD10C,0.000000*%
%ADD11RoundRect,0.225000X-0.250000X0.225000X-0.250000X-0.225000X0.250000X-0.225000X0.250000X0.225000X0*%
%ADD12RoundRect,0.150000X0.512500X0.150000X-0.512500X0.150000X-0.512500X-0.150000X0.512500X-0.150000X0*%
%ADD13RoundRect,0.200000X0.200000X0.275000X-0.200000X0.275000X-0.200000X-0.275000X0.200000X-0.275000X0*%
%ADD14RoundRect,0.250000X-0.950000X-0.550000X0.950000X-0.550000X0.950000X0.550000X-0.950000X0.550000X0*%
%ADD15O,2.400000X1.600000*%
%ADD16RoundRect,0.200000X0.275000X-0.200000X0.275000X0.200000X-0.275000X0.200000X-0.275000X-0.200000X0*%
%ADD17RoundRect,0.225000X0.250000X-0.225000X0.250000X0.225000X-0.250000X0.225000X-0.250000X-0.225000X0*%
%ADD18R,1.600200X1.600200*%
%ADD19C,1.600200*%
%ADD20RoundRect,0.225000X-0.225000X-0.250000X0.225000X-0.250000X0.225000X0.250000X-0.225000X0.250000X0*%
%ADD21RoundRect,0.200000X-0.200000X-0.275000X0.200000X-0.275000X0.200000X0.275000X-0.200000X0.275000X0*%
%ADD22RoundRect,0.250000X-0.475000X0.250000X-0.475000X-0.250000X0.475000X-0.250000X0.475000X0.250000X0*%
%ADD23RoundRect,0.093750X0.106250X-0.093750X0.106250X0.093750X-0.106250X0.093750X-0.106250X-0.093750X0*%
%ADD24R,1.600000X1.000000*%
%ADD25RoundRect,0.250000X0.250000X0.475000X-0.250000X0.475000X-0.250000X-0.475000X0.250000X-0.475000X0*%
%ADD26O,4.200000X1.700000*%
%ADD27RoundRect,0.250000X-0.250000X-0.475000X0.250000X-0.475000X0.250000X0.475000X-0.250000X0.475000X0*%
%ADD28RoundRect,0.250000X0.475000X-0.250000X0.475000X0.250000X-0.475000X0.250000X-0.475000X-0.250000X0*%
%ADD29R,0.850000X0.350000*%
%ADD30C,0.508000*%
%ADD31R,0.558800X1.981200*%
%ADD32RoundRect,0.200000X-0.275000X0.200000X-0.275000X-0.200000X0.275000X-0.200000X0.275000X0.200000X0*%
%ADD33RoundRect,0.225000X0.225000X0.250000X-0.225000X0.250000X-0.225000X-0.250000X0.225000X-0.250000X0*%
%ADD34R,1.000000X0.599999*%
%ADD35R,0.279400X1.333500*%
%ADD36R,1.981200X1.778000*%
%ADD37O,1.200000X1.600000*%
%ADD38C,1.200000*%
%ADD39R,3.400000X0.980000*%
%ADD40R,0.952500X0.558800*%
%ADD41RoundRect,0.250000X0.650000X2.450000X-0.650000X2.450000X-0.650000X-2.450000X0.650000X-2.450000X0*%
%ADD42R,0.900000X0.300000*%
%ADD43R,0.300000X0.900000*%
%ADD44R,0.900000X0.900000*%
G04 APERTURE END LIST*
D10*
%TO.C,U2*%
G36*
X199666299Y-93309999D02*
G01*
X198676301Y-93309999D01*
X198676301Y-92820000D01*
X199666299Y-92820000D01*
X199666299Y-93309999D01*
G37*
G36*
X199666299Y-93960000D02*
G01*
X198676301Y-93960000D01*
X198676301Y-93470001D01*
X199666299Y-93470001D01*
X199666299Y-93960000D01*
G37*
G36*
X199666299Y-94609999D02*
G01*
X198676301Y-94609999D01*
X198676301Y-94120000D01*
X199666299Y-94120000D01*
X199666299Y-94609999D01*
G37*
G36*
X199666299Y-95260000D02*
G01*
X198676301Y-95260000D01*
X198676301Y-94770001D01*
X199666299Y-94770001D01*
X199666299Y-95260000D01*
G37*
G36*
X200052600Y-95303500D02*
G01*
X199757800Y-95303500D01*
X199757800Y-92776500D01*
X200052600Y-92776500D01*
X200052600Y-95303500D01*
G37*
G36*
X200840000Y-95303500D02*
G01*
X200452600Y-95303500D01*
X200452600Y-92776500D01*
X200840000Y-92776500D01*
X200840000Y-95303500D01*
G37*
G36*
X201534800Y-93052600D02*
G01*
X199757800Y-93052600D01*
X199757800Y-92776500D01*
X201534800Y-92776500D01*
X201534800Y-93052600D01*
G37*
G36*
X201534800Y-93840000D02*
G01*
X199757800Y-93840000D01*
X199757800Y-93452600D01*
X201534800Y-93452600D01*
X201534800Y-93840000D01*
G37*
G36*
X201534800Y-94627400D02*
G01*
X199757800Y-94627400D01*
X199757800Y-94240000D01*
X201534800Y-94240000D01*
X201534800Y-94627400D01*
G37*
G36*
X201534800Y-95303500D02*
G01*
X199757800Y-95303500D01*
X199757800Y-95027400D01*
X201534800Y-95027400D01*
X201534800Y-95303500D01*
G37*
G36*
X201534800Y-95303500D02*
G01*
X201240000Y-95303500D01*
X201240000Y-92776500D01*
X201534800Y-92776500D01*
X201534800Y-95303500D01*
G37*
G36*
X202616299Y-93309999D02*
G01*
X201626301Y-93309999D01*
X201626301Y-92820000D01*
X202616299Y-92820000D01*
X202616299Y-93309999D01*
G37*
G36*
X202616299Y-93960000D02*
G01*
X201626301Y-93960000D01*
X201626301Y-93470001D01*
X202616299Y-93470001D01*
X202616299Y-93960000D01*
G37*
G36*
X202616299Y-94609999D02*
G01*
X201626301Y-94609999D01*
X201626301Y-94120000D01*
X202616299Y-94120000D01*
X202616299Y-94609999D01*
G37*
G36*
X202616299Y-95260000D02*
G01*
X201626301Y-95260000D01*
X201626301Y-94770001D01*
X202616299Y-94770001D01*
X202616299Y-95260000D01*
G37*
%TO.C,U3*%
G36*
X197626299Y-44769999D02*
G01*
X196636301Y-44769999D01*
X196636301Y-44280000D01*
X197626299Y-44280000D01*
X197626299Y-44769999D01*
G37*
G36*
X197626299Y-45420000D02*
G01*
X196636301Y-45420000D01*
X196636301Y-44930001D01*
X197626299Y-44930001D01*
X197626299Y-45420000D01*
G37*
G36*
X197626299Y-46069999D02*
G01*
X196636301Y-46069999D01*
X196636301Y-45580000D01*
X197626299Y-45580000D01*
X197626299Y-46069999D01*
G37*
G36*
X197626299Y-46720000D02*
G01*
X196636301Y-46720000D01*
X196636301Y-46230001D01*
X197626299Y-46230001D01*
X197626299Y-46720000D01*
G37*
G36*
X198012600Y-46763500D02*
G01*
X197717800Y-46763500D01*
X197717800Y-44236500D01*
X198012600Y-44236500D01*
X198012600Y-46763500D01*
G37*
G36*
X198800000Y-46763500D02*
G01*
X198412600Y-46763500D01*
X198412600Y-44236500D01*
X198800000Y-44236500D01*
X198800000Y-46763500D01*
G37*
G36*
X199494800Y-44512600D02*
G01*
X197717800Y-44512600D01*
X197717800Y-44236500D01*
X199494800Y-44236500D01*
X199494800Y-44512600D01*
G37*
G36*
X199494800Y-45300000D02*
G01*
X197717800Y-45300000D01*
X197717800Y-44912600D01*
X199494800Y-44912600D01*
X199494800Y-45300000D01*
G37*
G36*
X199494800Y-46087400D02*
G01*
X197717800Y-46087400D01*
X197717800Y-45700000D01*
X199494800Y-45700000D01*
X199494800Y-46087400D01*
G37*
G36*
X199494800Y-46763500D02*
G01*
X197717800Y-46763500D01*
X197717800Y-46487400D01*
X199494800Y-46487400D01*
X199494800Y-46763500D01*
G37*
G36*
X199494800Y-46763500D02*
G01*
X199200000Y-46763500D01*
X199200000Y-44236500D01*
X199494800Y-44236500D01*
X199494800Y-46763500D01*
G37*
G36*
X200576299Y-44769999D02*
G01*
X199586301Y-44769999D01*
X199586301Y-44280000D01*
X200576299Y-44280000D01*
X200576299Y-44769999D01*
G37*
G36*
X200576299Y-45420000D02*
G01*
X199586301Y-45420000D01*
X199586301Y-44930001D01*
X200576299Y-44930001D01*
X200576299Y-45420000D01*
G37*
G36*
X200576299Y-46069999D02*
G01*
X199586301Y-46069999D01*
X199586301Y-45580000D01*
X200576299Y-45580000D01*
X200576299Y-46069999D01*
G37*
G36*
X200576299Y-46720000D02*
G01*
X199586301Y-46720000D01*
X199586301Y-46230001D01*
X200576299Y-46230001D01*
X200576299Y-46720000D01*
G37*
%TD*%
D11*
%TO.C,C12*%
X186250000Y-73405000D03*
X186250000Y-71855000D03*
%TD*%
D12*
%TO.C,U5*%
X195000000Y-97450000D03*
X195000000Y-96500000D03*
X195000000Y-95550000D03*
X192725000Y-95550000D03*
X192725000Y-97450000D03*
%TD*%
D13*
%TO.C,R16*%
X128945000Y-99099501D03*
X127295000Y-99099501D03*
%TD*%
D14*
%TO.C,J1*%
X149890000Y-41130000D03*
D15*
X149890000Y-43670000D03*
X149890000Y-46210000D03*
X149890000Y-48750000D03*
X149890000Y-51290000D03*
X149890000Y-53830000D03*
X149890000Y-56370000D03*
X149890000Y-58910000D03*
X149890000Y-61450000D03*
X149890000Y-63990000D03*
X149890000Y-66530000D03*
X149890000Y-69070000D03*
X149890000Y-71610000D03*
X149890000Y-74150000D03*
X149890000Y-76690000D03*
X149890000Y-79230000D03*
X149890000Y-81770000D03*
X149890000Y-84310000D03*
X149890000Y-86850000D03*
X149890000Y-89390000D03*
X149890000Y-91930000D03*
X149890000Y-94470000D03*
X149890000Y-97010000D03*
X149890000Y-99550000D03*
X165130000Y-99550000D03*
X165130000Y-97010000D03*
X165130000Y-94470000D03*
X165130000Y-91930000D03*
X165130000Y-89390000D03*
X165130000Y-86850000D03*
X165130000Y-84310000D03*
X165130000Y-81770000D03*
X165130000Y-79230000D03*
X165130000Y-76690000D03*
X165130000Y-74150000D03*
X165130000Y-71610000D03*
X165130000Y-69070000D03*
X165130000Y-66530000D03*
X165130000Y-63990000D03*
X165130000Y-61450000D03*
X165130000Y-58910000D03*
X165130000Y-56370000D03*
X165130000Y-53830000D03*
X165130000Y-51290000D03*
X165130000Y-48750000D03*
X165130000Y-46210000D03*
X165130000Y-43670000D03*
X165130000Y-41130000D03*
%TD*%
D16*
%TO.C,R13*%
X128745000Y-68457001D03*
X128745000Y-66807001D03*
%TD*%
D17*
%TO.C,C21*%
X130745000Y-68407001D03*
X130745000Y-66857001D03*
%TD*%
D18*
%TO.C,SW1*%
X138000000Y-43192001D03*
D19*
X138000000Y-40652001D03*
X138000000Y-38112001D03*
%TD*%
D20*
%TO.C,C17*%
X139225000Y-49412001D03*
X140775000Y-49412001D03*
%TD*%
D21*
%TO.C,R14*%
X132245000Y-69632001D03*
X133895000Y-69632001D03*
%TD*%
D22*
%TO.C,C5*%
X202000000Y-42050000D03*
X202000000Y-43950000D03*
%TD*%
D23*
%TO.C,U8*%
X127020000Y-97487001D03*
X127670000Y-97487001D03*
X128320000Y-97487001D03*
X128320000Y-95712001D03*
X127670000Y-95712001D03*
X127020000Y-95712001D03*
D24*
X127670000Y-96599501D03*
%TD*%
D25*
%TO.C,C2*%
X206000000Y-92500000D03*
X204100000Y-92500000D03*
%TD*%
D21*
%TO.C,R10*%
X189400000Y-95550000D03*
X191050000Y-95550000D03*
%TD*%
D25*
%TO.C,C11*%
X185570000Y-62600000D03*
X183670000Y-62600000D03*
%TD*%
D26*
%TO.C,J2*%
X129040000Y-43080000D03*
X129040000Y-49080003D03*
%TD*%
D27*
%TO.C,C19*%
X124795000Y-69632001D03*
X126695000Y-69632001D03*
%TD*%
D20*
%TO.C,C18*%
X139225000Y-47412001D03*
X140775000Y-47412001D03*
%TD*%
D28*
%TO.C,C31*%
X189770000Y-65560000D03*
X189770000Y-63660000D03*
%TD*%
D29*
%TO.C,U2*%
X202121301Y-95014999D03*
X202121301Y-94365001D03*
X202121301Y-93714999D03*
X202121301Y-93065001D03*
X199171299Y-93065001D03*
X199171299Y-93714999D03*
X199171299Y-94365001D03*
X199171299Y-95014999D03*
D30*
X201040000Y-94827400D03*
X201040000Y-94040000D03*
X201040000Y-93252600D03*
X200252600Y-94827400D03*
X200252600Y-94040000D03*
X200252600Y-93252600D03*
%TD*%
D27*
%TO.C,C25*%
X123550000Y-99000000D03*
X125450000Y-99000000D03*
%TD*%
D17*
%TO.C,C6*%
X193500000Y-44550000D03*
X193500000Y-43000000D03*
%TD*%
D13*
%TO.C,R12*%
X131955000Y-78830000D03*
X130305000Y-78830000D03*
%TD*%
D31*
%TO.C,U1*%
X181045000Y-66216200D03*
X179775000Y-66216200D03*
X178505000Y-66216200D03*
X177235000Y-66216200D03*
X177235000Y-71143800D03*
X178505000Y-71143800D03*
X179775000Y-71143800D03*
X181045000Y-71143800D03*
%TD*%
D32*
%TO.C,R7*%
X174330000Y-65545000D03*
X174330000Y-67195000D03*
%TD*%
D33*
%TO.C,C99*%
X194225000Y-99050000D03*
X192675000Y-99050000D03*
%TD*%
D32*
%TO.C,R9*%
X185610000Y-64405000D03*
X185610000Y-66055000D03*
%TD*%
D34*
%TO.C,U4*%
X169014999Y-69229999D03*
X169014999Y-70180000D03*
X169014999Y-71129998D03*
X171764999Y-71129998D03*
X171764999Y-70180000D03*
X171764999Y-69229999D03*
%TD*%
D32*
%TO.C,R4*%
X210825000Y-37675000D03*
X210825000Y-39325000D03*
%TD*%
D22*
%TO.C,C30*%
X188020000Y-71890000D03*
X188020000Y-73790000D03*
%TD*%
D11*
%TO.C,C27*%
X207500000Y-67225000D03*
X207500000Y-68775000D03*
%TD*%
D35*
%TO.C,U7*%
X127739998Y-76332300D03*
X128240000Y-76332300D03*
X128739999Y-76332300D03*
X129239998Y-76332300D03*
X129740000Y-76332300D03*
X129740000Y-71900000D03*
X129239998Y-71900000D03*
X128739999Y-71900000D03*
X128240000Y-71900000D03*
X127739998Y-71900000D03*
D36*
X128739999Y-74116150D03*
%TD*%
D27*
%TO.C,C8*%
X173380000Y-68960000D03*
X175280000Y-68960000D03*
%TD*%
D29*
%TO.C,U3*%
X200081301Y-46474999D03*
X200081301Y-45825001D03*
X200081301Y-45174999D03*
X200081301Y-44525001D03*
X197131299Y-44525001D03*
X197131299Y-45174999D03*
X197131299Y-45825001D03*
X197131299Y-46474999D03*
D30*
X199000000Y-46287400D03*
X199000000Y-45500000D03*
X199000000Y-44712600D03*
X198212600Y-46287400D03*
X198212600Y-45500000D03*
X198212600Y-44712600D03*
%TD*%
D25*
%TO.C,C15*%
X136990000Y-47632001D03*
X135090000Y-47632001D03*
%TD*%
D37*
%TO.C,D1*%
X212000000Y-97040000D03*
D38*
X214540000Y-94500000D03*
X212000000Y-91960000D03*
%TD*%
D20*
%TO.C,C16*%
X139225000Y-51412001D03*
X140775000Y-51412001D03*
%TD*%
D11*
%TO.C,C29*%
X197500000Y-95725000D03*
X197500000Y-97275000D03*
%TD*%
D39*
%TO.C,L1*%
X125745000Y-79447001D03*
X125745000Y-81817001D03*
%TD*%
D17*
%TO.C,C26*%
X214000000Y-65775000D03*
X214000000Y-64225000D03*
%TD*%
D20*
%TO.C,C7*%
X170205000Y-72960000D03*
X171755000Y-72960000D03*
%TD*%
D28*
%TO.C,C22*%
X129245000Y-83734741D03*
X129245000Y-81834741D03*
%TD*%
D11*
%TO.C,C4*%
X182900000Y-67925000D03*
X182900000Y-69475000D03*
%TD*%
D12*
%TO.C,U6*%
X192775000Y-48400000D03*
X192775000Y-47450000D03*
X192775000Y-46500000D03*
X190500000Y-46500000D03*
X190500000Y-48400000D03*
%TD*%
D32*
%TO.C,R1*%
X210540000Y-87040000D03*
X210540000Y-88690000D03*
%TD*%
D17*
%TO.C,C3*%
X197215000Y-93490000D03*
X197215000Y-91940000D03*
%TD*%
%TO.C,C13*%
X187970000Y-65625000D03*
X187970000Y-64075000D03*
%TD*%
D13*
%TO.C,R15*%
X133905000Y-72710000D03*
X132255000Y-72710000D03*
%TD*%
D40*
%TO.C,U9*%
X212000000Y-67950001D03*
X212000000Y-67000000D03*
X212000000Y-66049999D03*
X209447300Y-66049999D03*
X209447300Y-67000000D03*
X209447300Y-67950001D03*
%TD*%
D22*
%TO.C,C10*%
X176730000Y-73760000D03*
X176730000Y-75660000D03*
%TD*%
D25*
%TO.C,C24*%
X126020000Y-94099501D03*
X124120000Y-94099501D03*
%TD*%
D33*
%TO.C,C100*%
X192275000Y-50000000D03*
X190725000Y-50000000D03*
%TD*%
D21*
%TO.C,R49*%
X187175000Y-46500000D03*
X188825000Y-46500000D03*
%TD*%
D41*
%TO.C,C14*%
X131510000Y-55042001D03*
X126410000Y-55042001D03*
%TD*%
D16*
%TO.C,R8*%
X174310000Y-72660000D03*
X174310000Y-71010000D03*
%TD*%
D33*
%TO.C,C4*%
X214165000Y-39500000D03*
X212615000Y-39500000D03*
%TD*%
D37*
%TO.C,D2*%
X211500000Y-48040000D03*
D38*
X214040000Y-45500000D03*
X211500000Y-42960000D03*
%TD*%
D11*
%TO.C,C20*%
X131650000Y-75200000D03*
X131650000Y-76750000D03*
%TD*%
%TO.C,C28*%
X195500000Y-47000000D03*
X195500000Y-48550000D03*
%TD*%
D42*
%TO.C,IC1*%
X187120000Y-67840000D03*
X187120000Y-68340000D03*
X187120000Y-68840000D03*
X187120000Y-69340000D03*
D43*
X187820000Y-70040000D03*
X188320000Y-70040000D03*
X188820000Y-70040000D03*
X189320000Y-70040000D03*
D42*
X190020000Y-69340000D03*
X190020000Y-68840000D03*
X190020000Y-68340000D03*
X190020000Y-67840000D03*
D43*
X189320000Y-67140000D03*
X188820000Y-67140000D03*
X188320000Y-67140000D03*
X187820000Y-67140000D03*
D44*
X188570000Y-68590000D03*
%TD*%
D16*
%TO.C,R3*%
X195540000Y-93690000D03*
X195540000Y-92040000D03*
%TD*%
D32*
%TO.C,R5*%
X203950000Y-42175000D03*
X203950000Y-43825000D03*
%TD*%
D33*
%TO.C,C23*%
X133845000Y-71180000D03*
X132295000Y-71180000D03*
%TD*%
%TO.C,C1*%
X213975000Y-88700000D03*
X212425000Y-88700000D03*
%TD*%
D25*
%TO.C,C9*%
X172400000Y-65890000D03*
X170500000Y-65890000D03*
%TD*%
D21*
%TO.C,R2*%
X204175000Y-90500000D03*
X205825000Y-90500000D03*
%TD*%
D16*
%TO.C,R6*%
X195000000Y-44600000D03*
X195000000Y-42950000D03*
%TD*%
M02*
