%TF.GenerationSoftware,KiCad,Pcbnew,9.0.7*%
%TF.CreationDate,2026-05-05T14:16:49-05:00*%
%TF.ProjectId,Polarimeter,506f6c61-7269-46d6-9574-65722e6b6963,rev?*%
%TF.SameCoordinates,Original*%
%TF.FileFunction,Soldermask,Bot*%
%TF.FilePolarity,Negative*%
%FSLAX46Y46*%
G04 Gerber Fmt 4.6, Leading zero omitted, Abs format (unit mm)*
G04 Created by KiCad (PCBNEW 9.0.7) date 2026-05-05 14:16:49*
%MOMM*%
%LPD*%
G01*
G04 APERTURE LIST*
G04 Aperture macros list*
%AMRoundRect*
0 Rectangle with rounded corners*
0 $1 Rounding radius*
0 $2 $3 $4 $5 $6 $7 $8 $9 X,Y pos of 4 corners*
0 Add a 4 corners polygon primitive as box body*
4,1,4,$2,$3,$4,$5,$6,$7,$8,$9,$2,$3,0*
0 Add four circle primitives for the rounded corners*
1,1,$1+$1,$2,$3*
1,1,$1+$1,$4,$5*
1,1,$1+$1,$6,$7*
1,1,$1+$1,$8,$9*
0 Add four rect primitives between the rounded corners*
20,1,$1+$1,$2,$3,$4,$5,0*
20,1,$1+$1,$4,$5,$6,$7,0*
20,1,$1+$1,$6,$7,$8,$9,0*
20,1,$1+$1,$8,$9,$2,$3,0*%
G04 Aperture macros list end*
%ADD10RoundRect,0.250000X-0.950000X-0.550000X0.950000X-0.550000X0.950000X0.550000X-0.950000X0.550000X0*%
%ADD11O,2.400000X1.600000*%
%ADD12R,1.600200X1.600200*%
%ADD13C,1.600200*%
%ADD14O,4.200000X1.700000*%
%ADD15C,0.508000*%
%ADD16O,1.200000X1.600000*%
%ADD17C,1.200000*%
G04 APERTURE END LIST*
D10*
%TO.C,J1*%
X149890000Y-41130000D03*
D11*
X149890000Y-43670000D03*
X149890000Y-46210000D03*
X149890000Y-48750000D03*
X149890000Y-51290000D03*
X149890000Y-53830000D03*
X149890000Y-56370000D03*
X149890000Y-58910000D03*
X149890000Y-61450000D03*
X149890000Y-63990000D03*
X149890000Y-66530000D03*
X149890000Y-69070000D03*
X149890000Y-71610000D03*
X149890000Y-74150000D03*
X149890000Y-76690000D03*
X149890000Y-79230000D03*
X149890000Y-81770000D03*
X149890000Y-84310000D03*
X149890000Y-86850000D03*
X149890000Y-89390000D03*
X149890000Y-91930000D03*
X149890000Y-94470000D03*
X149890000Y-97010000D03*
X149890000Y-99550000D03*
X165130000Y-99550000D03*
X165130000Y-97010000D03*
X165130000Y-94470000D03*
X165130000Y-91930000D03*
X165130000Y-89390000D03*
X165130000Y-86850000D03*
X165130000Y-84310000D03*
X165130000Y-81770000D03*
X165130000Y-79230000D03*
X165130000Y-76690000D03*
X165130000Y-74150000D03*
X165130000Y-71610000D03*
X165130000Y-69070000D03*
X165130000Y-66530000D03*
X165130000Y-63990000D03*
X165130000Y-61450000D03*
X165130000Y-58910000D03*
X165130000Y-56370000D03*
X165130000Y-53830000D03*
X165130000Y-51290000D03*
X165130000Y-48750000D03*
X165130000Y-46210000D03*
X165130000Y-43670000D03*
X165130000Y-41130000D03*
%TD*%
D12*
%TO.C,SW1*%
X138000000Y-43192001D03*
D13*
X138000000Y-40652001D03*
X138000000Y-38112001D03*
%TD*%
D14*
%TO.C,J2*%
X129040000Y-43080000D03*
X129040000Y-49080003D03*
%TD*%
D15*
%TO.C,U2*%
X201040000Y-94827400D03*
X201040000Y-94040000D03*
X201040000Y-93252600D03*
X200252600Y-94827400D03*
X200252600Y-94040000D03*
X200252600Y-93252600D03*
%TD*%
%TO.C,U3*%
X199000000Y-46287400D03*
X199000000Y-45500000D03*
X199000000Y-44712600D03*
X198212600Y-46287400D03*
X198212600Y-45500000D03*
X198212600Y-44712600D03*
%TD*%
D16*
%TO.C,D1*%
X212000000Y-97040000D03*
D17*
X214540000Y-94500000D03*
X212000000Y-91960000D03*
%TD*%
D16*
%TO.C,D2*%
X211500000Y-48040000D03*
D17*
X214040000Y-45500000D03*
X211500000Y-42960000D03*
%TD*%
M02*
