M48
; DRILL file {KiCad 9.0.7} date 2026-05-05T14:16:44-0500
; FORMAT={-:-/ absolute / metric / decimal}
; #@! TF.CreationDate,2026-05-05T14:16:44-05:00
; #@! TF.GenerationSoftware,Kicad,Pcbnew,9.0.7
; #@! TF.FileFunction,Plated,1,4,PTH
FMAT,2
METRIC
; #@! TA.AperFunction,Plated,PTH,ViaDrill
T1C0.200
; #@! TA.AperFunction,Plated,PTH,ComponentDrill
T2C0.200
; #@! TA.AperFunction,Plated,PTH,ComponentDrill
T3C0.254
; #@! TA.AperFunction,Plated,PTH,ViaDrill
T4C0.300
; #@! TA.AperFunction,Plated,PTH,ViaDrill
T5C0.400
; #@! TA.AperFunction,Plated,PTH,ComponentDrill
T6C0.700
; #@! TA.AperFunction,Plated,PTH,ComponentDrill
T7C0.800
; #@! TA.AperFunction,Plated,PTH,ComponentDrill
T8C1.092
; #@! TA.AperFunction,Plated,PTH,ComponentDrill
T9C1.100
%
G90
G05
T1
X126.5Y-99.0
X126.78Y-71.78
X126.79Y-70.93
X127.13Y-93.61
X127.13Y-94.2
X127.14Y-94.8
X127.74Y-93.61
X127.74Y-94.2
X127.75Y-94.8
X128.34Y-93.61
X128.34Y-94.2
X128.35Y-94.8
X128.75Y-65.74
X133.52Y-51.5
X133.52Y-53.21
X133.52Y-55.75
X133.52Y-58.29
X134.93Y-69.72
X135.02Y-51.5
X135.02Y-53.21
X135.02Y-55.75
X135.02Y-58.29
X136.52Y-51.5
X136.52Y-53.21
X136.52Y-55.75
X136.52Y-58.29
X138.0Y-51.5
X138.02Y-53.21
X138.02Y-55.75
X138.02Y-58.29
X139.52Y-53.21
X139.52Y-55.75
X139.52Y-58.29
X175.75Y-66.75
X185.5Y-69.5
X187.0Y-47.5
X189.339Y-71.238
X190.5Y-72.5
X190.93Y-68.31
X191.03Y-69.36
X191.458Y-68.858
X191.5Y-98.5
X198.0Y-94.5
X198.5Y-91.5
X207.5Y-66.5
X208.5Y-66.5
X213.0Y-65.5
T2
X127.12Y-96.6
X128.22Y-96.6
T3
X198.213Y-44.713
X198.213Y-45.5
X198.213Y-46.287
X199.0Y-44.713
X199.0Y-45.5
X199.0Y-46.287
X200.253Y-93.253
X200.253Y-94.04
X200.253Y-94.827
X201.04Y-93.253
X201.04Y-94.04
X201.04Y-94.827
T4
X188.87Y-47.72
X191.18Y-97.04
X194.19Y-48.46
X196.3Y-97.49
X196.89Y-42.94
X201.5Y-45.91
X203.99Y-94.35
T5
X172.0Y-72.0
X184.0Y-69.5
X191.0Y-65.5
X194.25Y-47.25
X195.5Y-46.0
X203.5Y-89.5
X205.0Y-42.0
X210.5Y-86.0
X211.0Y-36.5
X213.0Y-67.25
T6
X211.5Y-42.96
X211.5Y-48.04
X212.0Y-91.96
X212.0Y-97.04
X214.04Y-45.5
X214.54Y-94.5
T7
X149.89Y-41.13
X149.89Y-43.67
X149.89Y-46.21
X149.89Y-48.75
X149.89Y-51.29
X149.89Y-53.83
X149.89Y-56.37
X149.89Y-58.91
X149.89Y-61.45
X149.89Y-63.99
X149.89Y-66.53
X149.89Y-69.07
X149.89Y-71.61
X149.89Y-74.15
X149.89Y-76.69
X149.89Y-79.23
X149.89Y-81.77
X149.89Y-84.31
X149.89Y-86.85
X149.89Y-89.39
X149.89Y-91.93
X149.89Y-94.47
X149.89Y-97.01
X149.89Y-99.55
X165.13Y-41.13
X165.13Y-43.67
X165.13Y-46.21
X165.13Y-48.75
X165.13Y-51.29
X165.13Y-53.83
X165.13Y-56.37
X165.13Y-58.91
X165.13Y-61.45
X165.13Y-63.99
X165.13Y-66.53
X165.13Y-69.07
X165.13Y-71.61
X165.13Y-74.15
X165.13Y-76.69
X165.13Y-79.23
X165.13Y-81.77
X165.13Y-84.31
X165.13Y-86.85
X165.13Y-89.39
X165.13Y-91.93
X165.13Y-94.47
X165.13Y-97.01
X165.13Y-99.55
T8
X138.0Y-38.112
X138.0Y-40.652
X138.0Y-43.192
T9
G00X127.99Y-43.08
M15
G01X130.09Y-43.08
M16
G05
G00X127.99Y-49.08
M15
G01X130.09Y-49.08
M16
G05
M30
