%TF.GenerationSoftware,KiCad,Pcbnew,9.0.7*%
%TF.CreationDate,2026-05-05T14:16:49-05:00*%
%TF.ProjectId,Polarimeter,506f6c61-7269-46d6-9574-65722e6b6963,rev?*%
%TF.SameCoordinates,Original*%
%TF.FileFunction,Legend,Top*%
%TF.FilePolarity,Positive*%
%FSLAX46Y46*%
G04 Gerber Fmt 4.6, Leading zero omitted, Abs format (unit mm)*
G04 Created by KiCad (PCBNEW 9.0.7) date 2026-05-05 14:16:49*
%MOMM*%
%LPD*%
G01*
G04 APERTURE LIST*
%ADD10C,0.150000*%
%ADD11C,0.254000*%
%ADD12C,0.120000*%
%ADD13C,0.152400*%
%ADD14C,0.508000*%
%ADD15C,0.200000*%
%ADD16C,0.000000*%
%ADD17C,0.250000*%
G04 APERTURE END LIST*
D10*
X186609580Y-76272857D02*
X186657200Y-76320476D01*
X186657200Y-76320476D02*
X186704819Y-76463333D01*
X186704819Y-76463333D02*
X186704819Y-76558571D01*
X186704819Y-76558571D02*
X186657200Y-76701428D01*
X186657200Y-76701428D02*
X186561961Y-76796666D01*
X186561961Y-76796666D02*
X186466723Y-76844285D01*
X186466723Y-76844285D02*
X186276247Y-76891904D01*
X186276247Y-76891904D02*
X186133390Y-76891904D01*
X186133390Y-76891904D02*
X185942914Y-76844285D01*
X185942914Y-76844285D02*
X185847676Y-76796666D01*
X185847676Y-76796666D02*
X185752438Y-76701428D01*
X185752438Y-76701428D02*
X185704819Y-76558571D01*
X185704819Y-76558571D02*
X185704819Y-76463333D01*
X185704819Y-76463333D02*
X185752438Y-76320476D01*
X185752438Y-76320476D02*
X185800057Y-76272857D01*
X186704819Y-75320476D02*
X186704819Y-75891904D01*
X186704819Y-75606190D02*
X185704819Y-75606190D01*
X185704819Y-75606190D02*
X185847676Y-75701428D01*
X185847676Y-75701428D02*
X185942914Y-75796666D01*
X185942914Y-75796666D02*
X185990533Y-75891904D01*
X185800057Y-74939523D02*
X185752438Y-74891904D01*
X185752438Y-74891904D02*
X185704819Y-74796666D01*
X185704819Y-74796666D02*
X185704819Y-74558571D01*
X185704819Y-74558571D02*
X185752438Y-74463333D01*
X185752438Y-74463333D02*
X185800057Y-74415714D01*
X185800057Y-74415714D02*
X185895295Y-74368095D01*
X185895295Y-74368095D02*
X185990533Y-74368095D01*
X185990533Y-74368095D02*
X186133390Y-74415714D01*
X186133390Y-74415714D02*
X186704819Y-74987142D01*
X186704819Y-74987142D02*
X186704819Y-74368095D01*
X190100595Y-96954819D02*
X190100595Y-97764342D01*
X190100595Y-97764342D02*
X190148214Y-97859580D01*
X190148214Y-97859580D02*
X190195833Y-97907200D01*
X190195833Y-97907200D02*
X190291071Y-97954819D01*
X190291071Y-97954819D02*
X190481547Y-97954819D01*
X190481547Y-97954819D02*
X190576785Y-97907200D01*
X190576785Y-97907200D02*
X190624404Y-97859580D01*
X190624404Y-97859580D02*
X190672023Y-97764342D01*
X190672023Y-97764342D02*
X190672023Y-96954819D01*
X191624404Y-96954819D02*
X191148214Y-96954819D01*
X191148214Y-96954819D02*
X191100595Y-97431009D01*
X191100595Y-97431009D02*
X191148214Y-97383390D01*
X191148214Y-97383390D02*
X191243452Y-97335771D01*
X191243452Y-97335771D02*
X191481547Y-97335771D01*
X191481547Y-97335771D02*
X191576785Y-97383390D01*
X191576785Y-97383390D02*
X191624404Y-97431009D01*
X191624404Y-97431009D02*
X191672023Y-97526247D01*
X191672023Y-97526247D02*
X191672023Y-97764342D01*
X191672023Y-97764342D02*
X191624404Y-97859580D01*
X191624404Y-97859580D02*
X191576785Y-97907200D01*
X191576785Y-97907200D02*
X191481547Y-97954819D01*
X191481547Y-97954819D02*
X191243452Y-97954819D01*
X191243452Y-97954819D02*
X191148214Y-97907200D01*
X191148214Y-97907200D02*
X191100595Y-97859580D01*
X196580300Y-99561619D02*
X196580300Y-99799714D01*
X196342205Y-99704476D02*
X196580300Y-99799714D01*
X196580300Y-99799714D02*
X196818395Y-99704476D01*
X196437443Y-99990190D02*
X196580300Y-99799714D01*
X196580300Y-99799714D02*
X196723157Y-99990190D01*
X127477142Y-100984320D02*
X127143809Y-100508129D01*
X126905714Y-100984320D02*
X126905714Y-99984320D01*
X126905714Y-99984320D02*
X127286666Y-99984320D01*
X127286666Y-99984320D02*
X127381904Y-100031939D01*
X127381904Y-100031939D02*
X127429523Y-100079558D01*
X127429523Y-100079558D02*
X127477142Y-100174796D01*
X127477142Y-100174796D02*
X127477142Y-100317653D01*
X127477142Y-100317653D02*
X127429523Y-100412891D01*
X127429523Y-100412891D02*
X127381904Y-100460510D01*
X127381904Y-100460510D02*
X127286666Y-100508129D01*
X127286666Y-100508129D02*
X126905714Y-100508129D01*
X128429523Y-100984320D02*
X127858095Y-100984320D01*
X128143809Y-100984320D02*
X128143809Y-99984320D01*
X128143809Y-99984320D02*
X128048571Y-100127177D01*
X128048571Y-100127177D02*
X127953333Y-100222415D01*
X127953333Y-100222415D02*
X127858095Y-100270034D01*
X129286666Y-99984320D02*
X129096190Y-99984320D01*
X129096190Y-99984320D02*
X129000952Y-100031939D01*
X129000952Y-100031939D02*
X128953333Y-100079558D01*
X128953333Y-100079558D02*
X128858095Y-100222415D01*
X128858095Y-100222415D02*
X128810476Y-100412891D01*
X128810476Y-100412891D02*
X128810476Y-100793843D01*
X128810476Y-100793843D02*
X128858095Y-100889081D01*
X128858095Y-100889081D02*
X128905714Y-100936701D01*
X128905714Y-100936701D02*
X129000952Y-100984320D01*
X129000952Y-100984320D02*
X129191428Y-100984320D01*
X129191428Y-100984320D02*
X129286666Y-100936701D01*
X129286666Y-100936701D02*
X129334285Y-100889081D01*
X129334285Y-100889081D02*
X129381904Y-100793843D01*
X129381904Y-100793843D02*
X129381904Y-100555748D01*
X129381904Y-100555748D02*
X129334285Y-100460510D01*
X129334285Y-100460510D02*
X129286666Y-100412891D01*
X129286666Y-100412891D02*
X129191428Y-100365272D01*
X129191428Y-100365272D02*
X129000952Y-100365272D01*
X129000952Y-100365272D02*
X128905714Y-100412891D01*
X128905714Y-100412891D02*
X128858095Y-100460510D01*
X128858095Y-100460510D02*
X128810476Y-100555748D01*
X157176666Y-38254819D02*
X157176666Y-38969104D01*
X157176666Y-38969104D02*
X157129047Y-39111961D01*
X157129047Y-39111961D02*
X157033809Y-39207200D01*
X157033809Y-39207200D02*
X156890952Y-39254819D01*
X156890952Y-39254819D02*
X156795714Y-39254819D01*
X158176666Y-39254819D02*
X157605238Y-39254819D01*
X157890952Y-39254819D02*
X157890952Y-38254819D01*
X157890952Y-38254819D02*
X157795714Y-38397676D01*
X157795714Y-38397676D02*
X157700476Y-38492914D01*
X157700476Y-38492914D02*
X157605238Y-38540533D01*
X127927142Y-65761820D02*
X127593809Y-65285629D01*
X127355714Y-65761820D02*
X127355714Y-64761820D01*
X127355714Y-64761820D02*
X127736666Y-64761820D01*
X127736666Y-64761820D02*
X127831904Y-64809439D01*
X127831904Y-64809439D02*
X127879523Y-64857058D01*
X127879523Y-64857058D02*
X127927142Y-64952296D01*
X127927142Y-64952296D02*
X127927142Y-65095153D01*
X127927142Y-65095153D02*
X127879523Y-65190391D01*
X127879523Y-65190391D02*
X127831904Y-65238010D01*
X127831904Y-65238010D02*
X127736666Y-65285629D01*
X127736666Y-65285629D02*
X127355714Y-65285629D01*
X128879523Y-65761820D02*
X128308095Y-65761820D01*
X128593809Y-65761820D02*
X128593809Y-64761820D01*
X128593809Y-64761820D02*
X128498571Y-64904677D01*
X128498571Y-64904677D02*
X128403333Y-64999915D01*
X128403333Y-64999915D02*
X128308095Y-65047534D01*
X129212857Y-64761820D02*
X129831904Y-64761820D01*
X129831904Y-64761820D02*
X129498571Y-65142772D01*
X129498571Y-65142772D02*
X129641428Y-65142772D01*
X129641428Y-65142772D02*
X129736666Y-65190391D01*
X129736666Y-65190391D02*
X129784285Y-65238010D01*
X129784285Y-65238010D02*
X129831904Y-65333248D01*
X129831904Y-65333248D02*
X129831904Y-65571343D01*
X129831904Y-65571343D02*
X129784285Y-65666581D01*
X129784285Y-65666581D02*
X129736666Y-65714201D01*
X129736666Y-65714201D02*
X129641428Y-65761820D01*
X129641428Y-65761820D02*
X129355714Y-65761820D01*
X129355714Y-65761820D02*
X129260476Y-65714201D01*
X129260476Y-65714201D02*
X129212857Y-65666581D01*
X130852142Y-65732681D02*
X130804523Y-65780301D01*
X130804523Y-65780301D02*
X130661666Y-65827920D01*
X130661666Y-65827920D02*
X130566428Y-65827920D01*
X130566428Y-65827920D02*
X130423571Y-65780301D01*
X130423571Y-65780301D02*
X130328333Y-65685062D01*
X130328333Y-65685062D02*
X130280714Y-65589824D01*
X130280714Y-65589824D02*
X130233095Y-65399348D01*
X130233095Y-65399348D02*
X130233095Y-65256491D01*
X130233095Y-65256491D02*
X130280714Y-65066015D01*
X130280714Y-65066015D02*
X130328333Y-64970777D01*
X130328333Y-64970777D02*
X130423571Y-64875539D01*
X130423571Y-64875539D02*
X130566428Y-64827920D01*
X130566428Y-64827920D02*
X130661666Y-64827920D01*
X130661666Y-64827920D02*
X130804523Y-64875539D01*
X130804523Y-64875539D02*
X130852142Y-64923158D01*
X131233095Y-64923158D02*
X131280714Y-64875539D01*
X131280714Y-64875539D02*
X131375952Y-64827920D01*
X131375952Y-64827920D02*
X131614047Y-64827920D01*
X131614047Y-64827920D02*
X131709285Y-64875539D01*
X131709285Y-64875539D02*
X131756904Y-64923158D01*
X131756904Y-64923158D02*
X131804523Y-65018396D01*
X131804523Y-65018396D02*
X131804523Y-65113634D01*
X131804523Y-65113634D02*
X131756904Y-65256491D01*
X131756904Y-65256491D02*
X131185476Y-65827920D01*
X131185476Y-65827920D02*
X131804523Y-65827920D01*
X132756904Y-65827920D02*
X132185476Y-65827920D01*
X132471190Y-65827920D02*
X132471190Y-64827920D01*
X132471190Y-64827920D02*
X132375952Y-64970777D01*
X132375952Y-64970777D02*
X132280714Y-65066015D01*
X132280714Y-65066015D02*
X132185476Y-65113634D01*
X139333332Y-40244801D02*
X139190475Y-40197181D01*
X139190475Y-40197181D02*
X138952380Y-40197181D01*
X138952380Y-40197181D02*
X138857142Y-40244801D01*
X138857142Y-40244801D02*
X138809523Y-40292420D01*
X138809523Y-40292420D02*
X138761904Y-40387658D01*
X138761904Y-40387658D02*
X138761904Y-40482896D01*
X138761904Y-40482896D02*
X138809523Y-40578134D01*
X138809523Y-40578134D02*
X138857142Y-40625753D01*
X138857142Y-40625753D02*
X138952380Y-40673372D01*
X138952380Y-40673372D02*
X139142856Y-40720991D01*
X139142856Y-40720991D02*
X139238094Y-40768610D01*
X139238094Y-40768610D02*
X139285713Y-40816229D01*
X139285713Y-40816229D02*
X139333332Y-40911467D01*
X139333332Y-40911467D02*
X139333332Y-41006705D01*
X139333332Y-41006705D02*
X139285713Y-41101943D01*
X139285713Y-41101943D02*
X139238094Y-41149562D01*
X139238094Y-41149562D02*
X139142856Y-41197181D01*
X139142856Y-41197181D02*
X138904761Y-41197181D01*
X138904761Y-41197181D02*
X138761904Y-41149562D01*
X138428570Y-41197181D02*
X138190475Y-40197181D01*
X138190475Y-40197181D02*
X137999999Y-40911467D01*
X137999999Y-40911467D02*
X137809523Y-40197181D01*
X137809523Y-40197181D02*
X137571428Y-41197181D01*
X136666666Y-40197181D02*
X137238094Y-40197181D01*
X136952380Y-40197181D02*
X136952380Y-41197181D01*
X136952380Y-41197181D02*
X137047618Y-41054324D01*
X137047618Y-41054324D02*
X137142856Y-40959086D01*
X137142856Y-40959086D02*
X137238094Y-40911467D01*
X141048000Y-42646820D02*
X141048000Y-42884915D01*
X140809905Y-42789677D02*
X141048000Y-42884915D01*
X141048000Y-42884915D02*
X141286095Y-42789677D01*
X140905143Y-43075391D02*
X141048000Y-42884915D01*
X141048000Y-42884915D02*
X141190857Y-43075391D01*
X141047999Y-43737181D02*
X141047999Y-43499086D01*
X141286094Y-43594324D02*
X141047999Y-43499086D01*
X141047999Y-43499086D02*
X140809904Y-43594324D01*
X141190856Y-43308610D02*
X141047999Y-43499086D01*
X141047999Y-43499086D02*
X140905142Y-43308610D01*
X142632142Y-49771581D02*
X142584523Y-49819201D01*
X142584523Y-49819201D02*
X142441666Y-49866820D01*
X142441666Y-49866820D02*
X142346428Y-49866820D01*
X142346428Y-49866820D02*
X142203571Y-49819201D01*
X142203571Y-49819201D02*
X142108333Y-49723962D01*
X142108333Y-49723962D02*
X142060714Y-49628724D01*
X142060714Y-49628724D02*
X142013095Y-49438248D01*
X142013095Y-49438248D02*
X142013095Y-49295391D01*
X142013095Y-49295391D02*
X142060714Y-49104915D01*
X142060714Y-49104915D02*
X142108333Y-49009677D01*
X142108333Y-49009677D02*
X142203571Y-48914439D01*
X142203571Y-48914439D02*
X142346428Y-48866820D01*
X142346428Y-48866820D02*
X142441666Y-48866820D01*
X142441666Y-48866820D02*
X142584523Y-48914439D01*
X142584523Y-48914439D02*
X142632142Y-48962058D01*
X143584523Y-49866820D02*
X143013095Y-49866820D01*
X143298809Y-49866820D02*
X143298809Y-48866820D01*
X143298809Y-48866820D02*
X143203571Y-49009677D01*
X143203571Y-49009677D02*
X143108333Y-49104915D01*
X143108333Y-49104915D02*
X143013095Y-49152534D01*
X143917857Y-48866820D02*
X144584523Y-48866820D01*
X144584523Y-48866820D02*
X144155952Y-49866820D01*
X132427142Y-68656820D02*
X132093809Y-68180629D01*
X131855714Y-68656820D02*
X131855714Y-67656820D01*
X131855714Y-67656820D02*
X132236666Y-67656820D01*
X132236666Y-67656820D02*
X132331904Y-67704439D01*
X132331904Y-67704439D02*
X132379523Y-67752058D01*
X132379523Y-67752058D02*
X132427142Y-67847296D01*
X132427142Y-67847296D02*
X132427142Y-67990153D01*
X132427142Y-67990153D02*
X132379523Y-68085391D01*
X132379523Y-68085391D02*
X132331904Y-68133010D01*
X132331904Y-68133010D02*
X132236666Y-68180629D01*
X132236666Y-68180629D02*
X131855714Y-68180629D01*
X133379523Y-68656820D02*
X132808095Y-68656820D01*
X133093809Y-68656820D02*
X133093809Y-67656820D01*
X133093809Y-67656820D02*
X132998571Y-67799677D01*
X132998571Y-67799677D02*
X132903333Y-67894915D01*
X132903333Y-67894915D02*
X132808095Y-67942534D01*
X134236666Y-67990153D02*
X134236666Y-68656820D01*
X133998571Y-67609201D02*
X133760476Y-68323486D01*
X133760476Y-68323486D02*
X134379523Y-68323486D01*
X202309580Y-40166666D02*
X202357200Y-40214285D01*
X202357200Y-40214285D02*
X202404819Y-40357142D01*
X202404819Y-40357142D02*
X202404819Y-40452380D01*
X202404819Y-40452380D02*
X202357200Y-40595237D01*
X202357200Y-40595237D02*
X202261961Y-40690475D01*
X202261961Y-40690475D02*
X202166723Y-40738094D01*
X202166723Y-40738094D02*
X201976247Y-40785713D01*
X201976247Y-40785713D02*
X201833390Y-40785713D01*
X201833390Y-40785713D02*
X201642914Y-40738094D01*
X201642914Y-40738094D02*
X201547676Y-40690475D01*
X201547676Y-40690475D02*
X201452438Y-40595237D01*
X201452438Y-40595237D02*
X201404819Y-40452380D01*
X201404819Y-40452380D02*
X201404819Y-40357142D01*
X201404819Y-40357142D02*
X201452438Y-40214285D01*
X201452438Y-40214285D02*
X201500057Y-40166666D01*
X201404819Y-39261904D02*
X201404819Y-39738094D01*
X201404819Y-39738094D02*
X201881009Y-39785713D01*
X201881009Y-39785713D02*
X201833390Y-39738094D01*
X201833390Y-39738094D02*
X201785771Y-39642856D01*
X201785771Y-39642856D02*
X201785771Y-39404761D01*
X201785771Y-39404761D02*
X201833390Y-39309523D01*
X201833390Y-39309523D02*
X201881009Y-39261904D01*
X201881009Y-39261904D02*
X201976247Y-39214285D01*
X201976247Y-39214285D02*
X202214342Y-39214285D01*
X202214342Y-39214285D02*
X202309580Y-39261904D01*
X202309580Y-39261904D02*
X202357200Y-39309523D01*
X202357200Y-39309523D02*
X202404819Y-39404761D01*
X202404819Y-39404761D02*
X202404819Y-39642856D01*
X202404819Y-39642856D02*
X202357200Y-39738094D01*
X202357200Y-39738094D02*
X202309580Y-39785713D01*
X124358095Y-96054320D02*
X124358095Y-96863843D01*
X124358095Y-96863843D02*
X124405714Y-96959081D01*
X124405714Y-96959081D02*
X124453333Y-97006701D01*
X124453333Y-97006701D02*
X124548571Y-97054320D01*
X124548571Y-97054320D02*
X124739047Y-97054320D01*
X124739047Y-97054320D02*
X124834285Y-97006701D01*
X124834285Y-97006701D02*
X124881904Y-96959081D01*
X124881904Y-96959081D02*
X124929523Y-96863843D01*
X124929523Y-96863843D02*
X124929523Y-96054320D01*
X125548571Y-96482891D02*
X125453333Y-96435272D01*
X125453333Y-96435272D02*
X125405714Y-96387653D01*
X125405714Y-96387653D02*
X125358095Y-96292415D01*
X125358095Y-96292415D02*
X125358095Y-96244796D01*
X125358095Y-96244796D02*
X125405714Y-96149558D01*
X125405714Y-96149558D02*
X125453333Y-96101939D01*
X125453333Y-96101939D02*
X125548571Y-96054320D01*
X125548571Y-96054320D02*
X125739047Y-96054320D01*
X125739047Y-96054320D02*
X125834285Y-96101939D01*
X125834285Y-96101939D02*
X125881904Y-96149558D01*
X125881904Y-96149558D02*
X125929523Y-96244796D01*
X125929523Y-96244796D02*
X125929523Y-96292415D01*
X125929523Y-96292415D02*
X125881904Y-96387653D01*
X125881904Y-96387653D02*
X125834285Y-96435272D01*
X125834285Y-96435272D02*
X125739047Y-96482891D01*
X125739047Y-96482891D02*
X125548571Y-96482891D01*
X125548571Y-96482891D02*
X125453333Y-96530510D01*
X125453333Y-96530510D02*
X125405714Y-96578129D01*
X125405714Y-96578129D02*
X125358095Y-96673367D01*
X125358095Y-96673367D02*
X125358095Y-96863843D01*
X125358095Y-96863843D02*
X125405714Y-96959081D01*
X125405714Y-96959081D02*
X125453333Y-97006701D01*
X125453333Y-97006701D02*
X125548571Y-97054320D01*
X125548571Y-97054320D02*
X125739047Y-97054320D01*
X125739047Y-97054320D02*
X125834285Y-97006701D01*
X125834285Y-97006701D02*
X125881904Y-96959081D01*
X125881904Y-96959081D02*
X125929523Y-96863843D01*
X125929523Y-96863843D02*
X125929523Y-96673367D01*
X125929523Y-96673367D02*
X125881904Y-96578129D01*
X125881904Y-96578129D02*
X125834285Y-96530510D01*
X125834285Y-96530510D02*
X125739047Y-96482891D01*
X207833333Y-92859580D02*
X207785714Y-92907200D01*
X207785714Y-92907200D02*
X207642857Y-92954819D01*
X207642857Y-92954819D02*
X207547619Y-92954819D01*
X207547619Y-92954819D02*
X207404762Y-92907200D01*
X207404762Y-92907200D02*
X207309524Y-92811961D01*
X207309524Y-92811961D02*
X207261905Y-92716723D01*
X207261905Y-92716723D02*
X207214286Y-92526247D01*
X207214286Y-92526247D02*
X207214286Y-92383390D01*
X207214286Y-92383390D02*
X207261905Y-92192914D01*
X207261905Y-92192914D02*
X207309524Y-92097676D01*
X207309524Y-92097676D02*
X207404762Y-92002438D01*
X207404762Y-92002438D02*
X207547619Y-91954819D01*
X207547619Y-91954819D02*
X207642857Y-91954819D01*
X207642857Y-91954819D02*
X207785714Y-92002438D01*
X207785714Y-92002438D02*
X207833333Y-92050057D01*
X208214286Y-92050057D02*
X208261905Y-92002438D01*
X208261905Y-92002438D02*
X208357143Y-91954819D01*
X208357143Y-91954819D02*
X208595238Y-91954819D01*
X208595238Y-91954819D02*
X208690476Y-92002438D01*
X208690476Y-92002438D02*
X208738095Y-92050057D01*
X208738095Y-92050057D02*
X208785714Y-92145295D01*
X208785714Y-92145295D02*
X208785714Y-92240533D01*
X208785714Y-92240533D02*
X208738095Y-92383390D01*
X208738095Y-92383390D02*
X208166667Y-92954819D01*
X208166667Y-92954819D02*
X208785714Y-92954819D01*
X189582142Y-94574819D02*
X189248809Y-94098628D01*
X189010714Y-94574819D02*
X189010714Y-93574819D01*
X189010714Y-93574819D02*
X189391666Y-93574819D01*
X189391666Y-93574819D02*
X189486904Y-93622438D01*
X189486904Y-93622438D02*
X189534523Y-93670057D01*
X189534523Y-93670057D02*
X189582142Y-93765295D01*
X189582142Y-93765295D02*
X189582142Y-93908152D01*
X189582142Y-93908152D02*
X189534523Y-94003390D01*
X189534523Y-94003390D02*
X189486904Y-94051009D01*
X189486904Y-94051009D02*
X189391666Y-94098628D01*
X189391666Y-94098628D02*
X189010714Y-94098628D01*
X190534523Y-94574819D02*
X189963095Y-94574819D01*
X190248809Y-94574819D02*
X190248809Y-93574819D01*
X190248809Y-93574819D02*
X190153571Y-93717676D01*
X190153571Y-93717676D02*
X190058333Y-93812914D01*
X190058333Y-93812914D02*
X189963095Y-93860533D01*
X191153571Y-93574819D02*
X191248809Y-93574819D01*
X191248809Y-93574819D02*
X191344047Y-93622438D01*
X191344047Y-93622438D02*
X191391666Y-93670057D01*
X191391666Y-93670057D02*
X191439285Y-93765295D01*
X191439285Y-93765295D02*
X191486904Y-93955771D01*
X191486904Y-93955771D02*
X191486904Y-94193866D01*
X191486904Y-94193866D02*
X191439285Y-94384342D01*
X191439285Y-94384342D02*
X191391666Y-94479580D01*
X191391666Y-94479580D02*
X191344047Y-94527200D01*
X191344047Y-94527200D02*
X191248809Y-94574819D01*
X191248809Y-94574819D02*
X191153571Y-94574819D01*
X191153571Y-94574819D02*
X191058333Y-94527200D01*
X191058333Y-94527200D02*
X191010714Y-94479580D01*
X191010714Y-94479580D02*
X190963095Y-94384342D01*
X190963095Y-94384342D02*
X190915476Y-94193866D01*
X190915476Y-94193866D02*
X190915476Y-93955771D01*
X190915476Y-93955771D02*
X190963095Y-93765295D01*
X190963095Y-93765295D02*
X191010714Y-93670057D01*
X191010714Y-93670057D02*
X191058333Y-93622438D01*
X191058333Y-93622438D02*
X191153571Y-93574819D01*
X183927142Y-61459580D02*
X183879523Y-61507200D01*
X183879523Y-61507200D02*
X183736666Y-61554819D01*
X183736666Y-61554819D02*
X183641428Y-61554819D01*
X183641428Y-61554819D02*
X183498571Y-61507200D01*
X183498571Y-61507200D02*
X183403333Y-61411961D01*
X183403333Y-61411961D02*
X183355714Y-61316723D01*
X183355714Y-61316723D02*
X183308095Y-61126247D01*
X183308095Y-61126247D02*
X183308095Y-60983390D01*
X183308095Y-60983390D02*
X183355714Y-60792914D01*
X183355714Y-60792914D02*
X183403333Y-60697676D01*
X183403333Y-60697676D02*
X183498571Y-60602438D01*
X183498571Y-60602438D02*
X183641428Y-60554819D01*
X183641428Y-60554819D02*
X183736666Y-60554819D01*
X183736666Y-60554819D02*
X183879523Y-60602438D01*
X183879523Y-60602438D02*
X183927142Y-60650057D01*
X184879523Y-61554819D02*
X184308095Y-61554819D01*
X184593809Y-61554819D02*
X184593809Y-60554819D01*
X184593809Y-60554819D02*
X184498571Y-60697676D01*
X184498571Y-60697676D02*
X184403333Y-60792914D01*
X184403333Y-60792914D02*
X184308095Y-60840533D01*
X185831904Y-61554819D02*
X185260476Y-61554819D01*
X185546190Y-61554819D02*
X185546190Y-60554819D01*
X185546190Y-60554819D02*
X185450952Y-60697676D01*
X185450952Y-60697676D02*
X185355714Y-60792914D01*
X185355714Y-60792914D02*
X185260476Y-60840533D01*
X129255181Y-42298667D02*
X128540896Y-42298667D01*
X128540896Y-42298667D02*
X128398039Y-42251048D01*
X128398039Y-42251048D02*
X128302801Y-42155810D01*
X128302801Y-42155810D02*
X128255181Y-42012953D01*
X128255181Y-42012953D02*
X128255181Y-41917715D01*
X129159943Y-42727239D02*
X129207562Y-42774858D01*
X129207562Y-42774858D02*
X129255181Y-42870096D01*
X129255181Y-42870096D02*
X129255181Y-43108191D01*
X129255181Y-43108191D02*
X129207562Y-43203429D01*
X129207562Y-43203429D02*
X129159943Y-43251048D01*
X129159943Y-43251048D02*
X129064705Y-43298667D01*
X129064705Y-43298667D02*
X128969467Y-43298667D01*
X128969467Y-43298667D02*
X128826610Y-43251048D01*
X128826610Y-43251048D02*
X128255181Y-42679620D01*
X128255181Y-42679620D02*
X128255181Y-43298667D01*
X125102142Y-68311581D02*
X125054523Y-68359201D01*
X125054523Y-68359201D02*
X124911666Y-68406820D01*
X124911666Y-68406820D02*
X124816428Y-68406820D01*
X124816428Y-68406820D02*
X124673571Y-68359201D01*
X124673571Y-68359201D02*
X124578333Y-68263962D01*
X124578333Y-68263962D02*
X124530714Y-68168724D01*
X124530714Y-68168724D02*
X124483095Y-67978248D01*
X124483095Y-67978248D02*
X124483095Y-67835391D01*
X124483095Y-67835391D02*
X124530714Y-67644915D01*
X124530714Y-67644915D02*
X124578333Y-67549677D01*
X124578333Y-67549677D02*
X124673571Y-67454439D01*
X124673571Y-67454439D02*
X124816428Y-67406820D01*
X124816428Y-67406820D02*
X124911666Y-67406820D01*
X124911666Y-67406820D02*
X125054523Y-67454439D01*
X125054523Y-67454439D02*
X125102142Y-67502058D01*
X126054523Y-68406820D02*
X125483095Y-68406820D01*
X125768809Y-68406820D02*
X125768809Y-67406820D01*
X125768809Y-67406820D02*
X125673571Y-67549677D01*
X125673571Y-67549677D02*
X125578333Y-67644915D01*
X125578333Y-67644915D02*
X125483095Y-67692534D01*
X126530714Y-68406820D02*
X126721190Y-68406820D01*
X126721190Y-68406820D02*
X126816428Y-68359201D01*
X126816428Y-68359201D02*
X126864047Y-68311581D01*
X126864047Y-68311581D02*
X126959285Y-68168724D01*
X126959285Y-68168724D02*
X127006904Y-67978248D01*
X127006904Y-67978248D02*
X127006904Y-67597296D01*
X127006904Y-67597296D02*
X126959285Y-67502058D01*
X126959285Y-67502058D02*
X126911666Y-67454439D01*
X126911666Y-67454439D02*
X126816428Y-67406820D01*
X126816428Y-67406820D02*
X126625952Y-67406820D01*
X126625952Y-67406820D02*
X126530714Y-67454439D01*
X126530714Y-67454439D02*
X126483095Y-67502058D01*
X126483095Y-67502058D02*
X126435476Y-67597296D01*
X126435476Y-67597296D02*
X126435476Y-67835391D01*
X126435476Y-67835391D02*
X126483095Y-67930629D01*
X126483095Y-67930629D02*
X126530714Y-67978248D01*
X126530714Y-67978248D02*
X126625952Y-68025867D01*
X126625952Y-68025867D02*
X126816428Y-68025867D01*
X126816428Y-68025867D02*
X126911666Y-67978248D01*
X126911666Y-67978248D02*
X126959285Y-67930629D01*
X126959285Y-67930629D02*
X127006904Y-67835391D01*
X142507142Y-47701581D02*
X142459523Y-47749201D01*
X142459523Y-47749201D02*
X142316666Y-47796820D01*
X142316666Y-47796820D02*
X142221428Y-47796820D01*
X142221428Y-47796820D02*
X142078571Y-47749201D01*
X142078571Y-47749201D02*
X141983333Y-47653962D01*
X141983333Y-47653962D02*
X141935714Y-47558724D01*
X141935714Y-47558724D02*
X141888095Y-47368248D01*
X141888095Y-47368248D02*
X141888095Y-47225391D01*
X141888095Y-47225391D02*
X141935714Y-47034915D01*
X141935714Y-47034915D02*
X141983333Y-46939677D01*
X141983333Y-46939677D02*
X142078571Y-46844439D01*
X142078571Y-46844439D02*
X142221428Y-46796820D01*
X142221428Y-46796820D02*
X142316666Y-46796820D01*
X142316666Y-46796820D02*
X142459523Y-46844439D01*
X142459523Y-46844439D02*
X142507142Y-46892058D01*
X143459523Y-47796820D02*
X142888095Y-47796820D01*
X143173809Y-47796820D02*
X143173809Y-46796820D01*
X143173809Y-46796820D02*
X143078571Y-46939677D01*
X143078571Y-46939677D02*
X142983333Y-47034915D01*
X142983333Y-47034915D02*
X142888095Y-47082534D01*
X144030952Y-47225391D02*
X143935714Y-47177772D01*
X143935714Y-47177772D02*
X143888095Y-47130153D01*
X143888095Y-47130153D02*
X143840476Y-47034915D01*
X143840476Y-47034915D02*
X143840476Y-46987296D01*
X143840476Y-46987296D02*
X143888095Y-46892058D01*
X143888095Y-46892058D02*
X143935714Y-46844439D01*
X143935714Y-46844439D02*
X144030952Y-46796820D01*
X144030952Y-46796820D02*
X144221428Y-46796820D01*
X144221428Y-46796820D02*
X144316666Y-46844439D01*
X144316666Y-46844439D02*
X144364285Y-46892058D01*
X144364285Y-46892058D02*
X144411904Y-46987296D01*
X144411904Y-46987296D02*
X144411904Y-47034915D01*
X144411904Y-47034915D02*
X144364285Y-47130153D01*
X144364285Y-47130153D02*
X144316666Y-47177772D01*
X144316666Y-47177772D02*
X144221428Y-47225391D01*
X144221428Y-47225391D02*
X144030952Y-47225391D01*
X144030952Y-47225391D02*
X143935714Y-47273010D01*
X143935714Y-47273010D02*
X143888095Y-47320629D01*
X143888095Y-47320629D02*
X143840476Y-47415867D01*
X143840476Y-47415867D02*
X143840476Y-47606343D01*
X143840476Y-47606343D02*
X143888095Y-47701581D01*
X143888095Y-47701581D02*
X143935714Y-47749201D01*
X143935714Y-47749201D02*
X144030952Y-47796820D01*
X144030952Y-47796820D02*
X144221428Y-47796820D01*
X144221428Y-47796820D02*
X144316666Y-47749201D01*
X144316666Y-47749201D02*
X144364285Y-47701581D01*
X144364285Y-47701581D02*
X144411904Y-47606343D01*
X144411904Y-47606343D02*
X144411904Y-47415867D01*
X144411904Y-47415867D02*
X144364285Y-47320629D01*
X144364285Y-47320629D02*
X144316666Y-47273010D01*
X144316666Y-47273010D02*
X144221428Y-47225391D01*
X190009580Y-61142857D02*
X190057200Y-61190476D01*
X190057200Y-61190476D02*
X190104819Y-61333333D01*
X190104819Y-61333333D02*
X190104819Y-61428571D01*
X190104819Y-61428571D02*
X190057200Y-61571428D01*
X190057200Y-61571428D02*
X189961961Y-61666666D01*
X189961961Y-61666666D02*
X189866723Y-61714285D01*
X189866723Y-61714285D02*
X189676247Y-61761904D01*
X189676247Y-61761904D02*
X189533390Y-61761904D01*
X189533390Y-61761904D02*
X189342914Y-61714285D01*
X189342914Y-61714285D02*
X189247676Y-61666666D01*
X189247676Y-61666666D02*
X189152438Y-61571428D01*
X189152438Y-61571428D02*
X189104819Y-61428571D01*
X189104819Y-61428571D02*
X189104819Y-61333333D01*
X189104819Y-61333333D02*
X189152438Y-61190476D01*
X189152438Y-61190476D02*
X189200057Y-61142857D01*
X189104819Y-60809523D02*
X189104819Y-60190476D01*
X189104819Y-60190476D02*
X189485771Y-60523809D01*
X189485771Y-60523809D02*
X189485771Y-60380952D01*
X189485771Y-60380952D02*
X189533390Y-60285714D01*
X189533390Y-60285714D02*
X189581009Y-60238095D01*
X189581009Y-60238095D02*
X189676247Y-60190476D01*
X189676247Y-60190476D02*
X189914342Y-60190476D01*
X189914342Y-60190476D02*
X190009580Y-60238095D01*
X190009580Y-60238095D02*
X190057200Y-60285714D01*
X190057200Y-60285714D02*
X190104819Y-60380952D01*
X190104819Y-60380952D02*
X190104819Y-60666666D01*
X190104819Y-60666666D02*
X190057200Y-60761904D01*
X190057200Y-60761904D02*
X190009580Y-60809523D01*
X190104819Y-59238095D02*
X190104819Y-59809523D01*
X190104819Y-59523809D02*
X189104819Y-59523809D01*
X189104819Y-59523809D02*
X189247676Y-59619047D01*
X189247676Y-59619047D02*
X189342914Y-59714285D01*
X189342914Y-59714285D02*
X189390533Y-59809523D01*
X201408204Y-94585180D02*
X201408204Y-93775657D01*
X201408204Y-93775657D02*
X201360585Y-93680419D01*
X201360585Y-93680419D02*
X201312966Y-93632800D01*
X201312966Y-93632800D02*
X201217728Y-93585180D01*
X201217728Y-93585180D02*
X201027252Y-93585180D01*
X201027252Y-93585180D02*
X200932014Y-93632800D01*
X200932014Y-93632800D02*
X200884395Y-93680419D01*
X200884395Y-93680419D02*
X200836776Y-93775657D01*
X200836776Y-93775657D02*
X200836776Y-94585180D01*
X200408204Y-94489942D02*
X200360585Y-94537561D01*
X200360585Y-94537561D02*
X200265347Y-94585180D01*
X200265347Y-94585180D02*
X200027252Y-94585180D01*
X200027252Y-94585180D02*
X199932014Y-94537561D01*
X199932014Y-94537561D02*
X199884395Y-94489942D01*
X199884395Y-94489942D02*
X199836776Y-94394704D01*
X199836776Y-94394704D02*
X199836776Y-94299466D01*
X199836776Y-94299466D02*
X199884395Y-94156609D01*
X199884395Y-94156609D02*
X200455823Y-93585180D01*
X200455823Y-93585180D02*
X199836776Y-93585180D01*
X202355098Y-97053180D02*
X202355098Y-96815085D01*
X202593193Y-96910323D02*
X202355098Y-96815085D01*
X202355098Y-96815085D02*
X202117003Y-96910323D01*
X202497955Y-96624609D02*
X202355098Y-96815085D01*
X202355098Y-96815085D02*
X202212241Y-96624609D01*
X202355099Y-95962819D02*
X202355099Y-96200914D01*
X202117004Y-96105676D02*
X202355099Y-96200914D01*
X202355099Y-96200914D02*
X202593194Y-96105676D01*
X202212242Y-96391390D02*
X202355099Y-96200914D01*
X202355099Y-96200914D02*
X202497956Y-96391390D01*
X123857142Y-101359580D02*
X123809523Y-101407200D01*
X123809523Y-101407200D02*
X123666666Y-101454819D01*
X123666666Y-101454819D02*
X123571428Y-101454819D01*
X123571428Y-101454819D02*
X123428571Y-101407200D01*
X123428571Y-101407200D02*
X123333333Y-101311961D01*
X123333333Y-101311961D02*
X123285714Y-101216723D01*
X123285714Y-101216723D02*
X123238095Y-101026247D01*
X123238095Y-101026247D02*
X123238095Y-100883390D01*
X123238095Y-100883390D02*
X123285714Y-100692914D01*
X123285714Y-100692914D02*
X123333333Y-100597676D01*
X123333333Y-100597676D02*
X123428571Y-100502438D01*
X123428571Y-100502438D02*
X123571428Y-100454819D01*
X123571428Y-100454819D02*
X123666666Y-100454819D01*
X123666666Y-100454819D02*
X123809523Y-100502438D01*
X123809523Y-100502438D02*
X123857142Y-100550057D01*
X124238095Y-100550057D02*
X124285714Y-100502438D01*
X124285714Y-100502438D02*
X124380952Y-100454819D01*
X124380952Y-100454819D02*
X124619047Y-100454819D01*
X124619047Y-100454819D02*
X124714285Y-100502438D01*
X124714285Y-100502438D02*
X124761904Y-100550057D01*
X124761904Y-100550057D02*
X124809523Y-100645295D01*
X124809523Y-100645295D02*
X124809523Y-100740533D01*
X124809523Y-100740533D02*
X124761904Y-100883390D01*
X124761904Y-100883390D02*
X124190476Y-101454819D01*
X124190476Y-101454819D02*
X124809523Y-101454819D01*
X125714285Y-100454819D02*
X125238095Y-100454819D01*
X125238095Y-100454819D02*
X125190476Y-100931009D01*
X125190476Y-100931009D02*
X125238095Y-100883390D01*
X125238095Y-100883390D02*
X125333333Y-100835771D01*
X125333333Y-100835771D02*
X125571428Y-100835771D01*
X125571428Y-100835771D02*
X125666666Y-100883390D01*
X125666666Y-100883390D02*
X125714285Y-100931009D01*
X125714285Y-100931009D02*
X125761904Y-101026247D01*
X125761904Y-101026247D02*
X125761904Y-101264342D01*
X125761904Y-101264342D02*
X125714285Y-101359580D01*
X125714285Y-101359580D02*
X125666666Y-101407200D01*
X125666666Y-101407200D02*
X125571428Y-101454819D01*
X125571428Y-101454819D02*
X125333333Y-101454819D01*
X125333333Y-101454819D02*
X125238095Y-101407200D01*
X125238095Y-101407200D02*
X125190476Y-101359580D01*
X194034580Y-41541666D02*
X194082200Y-41589285D01*
X194082200Y-41589285D02*
X194129819Y-41732142D01*
X194129819Y-41732142D02*
X194129819Y-41827380D01*
X194129819Y-41827380D02*
X194082200Y-41970237D01*
X194082200Y-41970237D02*
X193986961Y-42065475D01*
X193986961Y-42065475D02*
X193891723Y-42113094D01*
X193891723Y-42113094D02*
X193701247Y-42160713D01*
X193701247Y-42160713D02*
X193558390Y-42160713D01*
X193558390Y-42160713D02*
X193367914Y-42113094D01*
X193367914Y-42113094D02*
X193272676Y-42065475D01*
X193272676Y-42065475D02*
X193177438Y-41970237D01*
X193177438Y-41970237D02*
X193129819Y-41827380D01*
X193129819Y-41827380D02*
X193129819Y-41732142D01*
X193129819Y-41732142D02*
X193177438Y-41589285D01*
X193177438Y-41589285D02*
X193225057Y-41541666D01*
X193129819Y-40684523D02*
X193129819Y-40874999D01*
X193129819Y-40874999D02*
X193177438Y-40970237D01*
X193177438Y-40970237D02*
X193225057Y-41017856D01*
X193225057Y-41017856D02*
X193367914Y-41113094D01*
X193367914Y-41113094D02*
X193558390Y-41160713D01*
X193558390Y-41160713D02*
X193939342Y-41160713D01*
X193939342Y-41160713D02*
X194034580Y-41113094D01*
X194034580Y-41113094D02*
X194082200Y-41065475D01*
X194082200Y-41065475D02*
X194129819Y-40970237D01*
X194129819Y-40970237D02*
X194129819Y-40779761D01*
X194129819Y-40779761D02*
X194082200Y-40684523D01*
X194082200Y-40684523D02*
X194034580Y-40636904D01*
X194034580Y-40636904D02*
X193939342Y-40589285D01*
X193939342Y-40589285D02*
X193701247Y-40589285D01*
X193701247Y-40589285D02*
X193606009Y-40636904D01*
X193606009Y-40636904D02*
X193558390Y-40684523D01*
X193558390Y-40684523D02*
X193510771Y-40779761D01*
X193510771Y-40779761D02*
X193510771Y-40970237D01*
X193510771Y-40970237D02*
X193558390Y-41065475D01*
X193558390Y-41065475D02*
X193606009Y-41113094D01*
X193606009Y-41113094D02*
X193701247Y-41160713D01*
X133507142Y-79284819D02*
X133173809Y-78808628D01*
X132935714Y-79284819D02*
X132935714Y-78284819D01*
X132935714Y-78284819D02*
X133316666Y-78284819D01*
X133316666Y-78284819D02*
X133411904Y-78332438D01*
X133411904Y-78332438D02*
X133459523Y-78380057D01*
X133459523Y-78380057D02*
X133507142Y-78475295D01*
X133507142Y-78475295D02*
X133507142Y-78618152D01*
X133507142Y-78618152D02*
X133459523Y-78713390D01*
X133459523Y-78713390D02*
X133411904Y-78761009D01*
X133411904Y-78761009D02*
X133316666Y-78808628D01*
X133316666Y-78808628D02*
X132935714Y-78808628D01*
X134459523Y-79284819D02*
X133888095Y-79284819D01*
X134173809Y-79284819D02*
X134173809Y-78284819D01*
X134173809Y-78284819D02*
X134078571Y-78427676D01*
X134078571Y-78427676D02*
X133983333Y-78522914D01*
X133983333Y-78522914D02*
X133888095Y-78570533D01*
X134840476Y-78380057D02*
X134888095Y-78332438D01*
X134888095Y-78332438D02*
X134983333Y-78284819D01*
X134983333Y-78284819D02*
X135221428Y-78284819D01*
X135221428Y-78284819D02*
X135316666Y-78332438D01*
X135316666Y-78332438D02*
X135364285Y-78380057D01*
X135364285Y-78380057D02*
X135411904Y-78475295D01*
X135411904Y-78475295D02*
X135411904Y-78570533D01*
X135411904Y-78570533D02*
X135364285Y-78713390D01*
X135364285Y-78713390D02*
X134792857Y-79284819D01*
X134792857Y-79284819D02*
X135411904Y-79284819D01*
X179685180Y-67918095D02*
X178875657Y-67918095D01*
X178875657Y-67918095D02*
X178780419Y-67965714D01*
X178780419Y-67965714D02*
X178732800Y-68013333D01*
X178732800Y-68013333D02*
X178685180Y-68108571D01*
X178685180Y-68108571D02*
X178685180Y-68299047D01*
X178685180Y-68299047D02*
X178732800Y-68394285D01*
X178732800Y-68394285D02*
X178780419Y-68441904D01*
X178780419Y-68441904D02*
X178875657Y-68489523D01*
X178875657Y-68489523D02*
X179685180Y-68489523D01*
X178685180Y-69489523D02*
X178685180Y-68918095D01*
X178685180Y-69203809D02*
X179685180Y-69203809D01*
X179685180Y-69203809D02*
X179542323Y-69108571D01*
X179542323Y-69108571D02*
X179447085Y-69013333D01*
X179447085Y-69013333D02*
X179399466Y-68918095D01*
X183291980Y-65962200D02*
X183053885Y-65962200D01*
X183149123Y-65724105D02*
X183053885Y-65962200D01*
X183053885Y-65962200D02*
X183149123Y-66200295D01*
X182863409Y-65819343D02*
X183053885Y-65962200D01*
X183053885Y-65962200D02*
X182863409Y-66105057D01*
X182201619Y-65962199D02*
X182439714Y-65962199D01*
X182344476Y-66200294D02*
X182439714Y-65962199D01*
X182439714Y-65962199D02*
X182344476Y-65724104D01*
X182630190Y-66105056D02*
X182439714Y-65962199D01*
X182439714Y-65962199D02*
X182630190Y-65819342D01*
X174804819Y-64066666D02*
X174328628Y-64399999D01*
X174804819Y-64638094D02*
X173804819Y-64638094D01*
X173804819Y-64638094D02*
X173804819Y-64257142D01*
X173804819Y-64257142D02*
X173852438Y-64161904D01*
X173852438Y-64161904D02*
X173900057Y-64114285D01*
X173900057Y-64114285D02*
X173995295Y-64066666D01*
X173995295Y-64066666D02*
X174138152Y-64066666D01*
X174138152Y-64066666D02*
X174233390Y-64114285D01*
X174233390Y-64114285D02*
X174281009Y-64161904D01*
X174281009Y-64161904D02*
X174328628Y-64257142D01*
X174328628Y-64257142D02*
X174328628Y-64638094D01*
X173804819Y-63733332D02*
X173804819Y-63066666D01*
X173804819Y-63066666D02*
X174804819Y-63495237D01*
X192807142Y-100839580D02*
X192759523Y-100887200D01*
X192759523Y-100887200D02*
X192616666Y-100934819D01*
X192616666Y-100934819D02*
X192521428Y-100934819D01*
X192521428Y-100934819D02*
X192378571Y-100887200D01*
X192378571Y-100887200D02*
X192283333Y-100791961D01*
X192283333Y-100791961D02*
X192235714Y-100696723D01*
X192235714Y-100696723D02*
X192188095Y-100506247D01*
X192188095Y-100506247D02*
X192188095Y-100363390D01*
X192188095Y-100363390D02*
X192235714Y-100172914D01*
X192235714Y-100172914D02*
X192283333Y-100077676D01*
X192283333Y-100077676D02*
X192378571Y-99982438D01*
X192378571Y-99982438D02*
X192521428Y-99934819D01*
X192521428Y-99934819D02*
X192616666Y-99934819D01*
X192616666Y-99934819D02*
X192759523Y-99982438D01*
X192759523Y-99982438D02*
X192807142Y-100030057D01*
X193283333Y-100934819D02*
X193473809Y-100934819D01*
X193473809Y-100934819D02*
X193569047Y-100887200D01*
X193569047Y-100887200D02*
X193616666Y-100839580D01*
X193616666Y-100839580D02*
X193711904Y-100696723D01*
X193711904Y-100696723D02*
X193759523Y-100506247D01*
X193759523Y-100506247D02*
X193759523Y-100125295D01*
X193759523Y-100125295D02*
X193711904Y-100030057D01*
X193711904Y-100030057D02*
X193664285Y-99982438D01*
X193664285Y-99982438D02*
X193569047Y-99934819D01*
X193569047Y-99934819D02*
X193378571Y-99934819D01*
X193378571Y-99934819D02*
X193283333Y-99982438D01*
X193283333Y-99982438D02*
X193235714Y-100030057D01*
X193235714Y-100030057D02*
X193188095Y-100125295D01*
X193188095Y-100125295D02*
X193188095Y-100363390D01*
X193188095Y-100363390D02*
X193235714Y-100458628D01*
X193235714Y-100458628D02*
X193283333Y-100506247D01*
X193283333Y-100506247D02*
X193378571Y-100553866D01*
X193378571Y-100553866D02*
X193569047Y-100553866D01*
X193569047Y-100553866D02*
X193664285Y-100506247D01*
X193664285Y-100506247D02*
X193711904Y-100458628D01*
X193711904Y-100458628D02*
X193759523Y-100363390D01*
X194235714Y-100934819D02*
X194426190Y-100934819D01*
X194426190Y-100934819D02*
X194521428Y-100887200D01*
X194521428Y-100887200D02*
X194569047Y-100839580D01*
X194569047Y-100839580D02*
X194664285Y-100696723D01*
X194664285Y-100696723D02*
X194711904Y-100506247D01*
X194711904Y-100506247D02*
X194711904Y-100125295D01*
X194711904Y-100125295D02*
X194664285Y-100030057D01*
X194664285Y-100030057D02*
X194616666Y-99982438D01*
X194616666Y-99982438D02*
X194521428Y-99934819D01*
X194521428Y-99934819D02*
X194330952Y-99934819D01*
X194330952Y-99934819D02*
X194235714Y-99982438D01*
X194235714Y-99982438D02*
X194188095Y-100030057D01*
X194188095Y-100030057D02*
X194140476Y-100125295D01*
X194140476Y-100125295D02*
X194140476Y-100363390D01*
X194140476Y-100363390D02*
X194188095Y-100458628D01*
X194188095Y-100458628D02*
X194235714Y-100506247D01*
X194235714Y-100506247D02*
X194330952Y-100553866D01*
X194330952Y-100553866D02*
X194521428Y-100553866D01*
X194521428Y-100553866D02*
X194616666Y-100506247D01*
X194616666Y-100506247D02*
X194664285Y-100458628D01*
X194664285Y-100458628D02*
X194711904Y-100363390D01*
X184734819Y-65336666D02*
X184258628Y-65669999D01*
X184734819Y-65908094D02*
X183734819Y-65908094D01*
X183734819Y-65908094D02*
X183734819Y-65527142D01*
X183734819Y-65527142D02*
X183782438Y-65431904D01*
X183782438Y-65431904D02*
X183830057Y-65384285D01*
X183830057Y-65384285D02*
X183925295Y-65336666D01*
X183925295Y-65336666D02*
X184068152Y-65336666D01*
X184068152Y-65336666D02*
X184163390Y-65384285D01*
X184163390Y-65384285D02*
X184211009Y-65431904D01*
X184211009Y-65431904D02*
X184258628Y-65527142D01*
X184258628Y-65527142D02*
X184258628Y-65908094D01*
X184734819Y-64860475D02*
X184734819Y-64669999D01*
X184734819Y-64669999D02*
X184687200Y-64574761D01*
X184687200Y-64574761D02*
X184639580Y-64527142D01*
X184639580Y-64527142D02*
X184496723Y-64431904D01*
X184496723Y-64431904D02*
X184306247Y-64384285D01*
X184306247Y-64384285D02*
X183925295Y-64384285D01*
X183925295Y-64384285D02*
X183830057Y-64431904D01*
X183830057Y-64431904D02*
X183782438Y-64479523D01*
X183782438Y-64479523D02*
X183734819Y-64574761D01*
X183734819Y-64574761D02*
X183734819Y-64765237D01*
X183734819Y-64765237D02*
X183782438Y-64860475D01*
X183782438Y-64860475D02*
X183830057Y-64908094D01*
X183830057Y-64908094D02*
X183925295Y-64955713D01*
X183925295Y-64955713D02*
X184163390Y-64955713D01*
X184163390Y-64955713D02*
X184258628Y-64908094D01*
X184258628Y-64908094D02*
X184306247Y-64860475D01*
X184306247Y-64860475D02*
X184353866Y-64765237D01*
X184353866Y-64765237D02*
X184353866Y-64574761D01*
X184353866Y-64574761D02*
X184306247Y-64479523D01*
X184306247Y-64479523D02*
X184258628Y-64431904D01*
X184258628Y-64431904D02*
X184163390Y-64384285D01*
X169628095Y-69634819D02*
X169628095Y-70444342D01*
X169628095Y-70444342D02*
X169675714Y-70539580D01*
X169675714Y-70539580D02*
X169723333Y-70587200D01*
X169723333Y-70587200D02*
X169818571Y-70634819D01*
X169818571Y-70634819D02*
X170009047Y-70634819D01*
X170009047Y-70634819D02*
X170104285Y-70587200D01*
X170104285Y-70587200D02*
X170151904Y-70539580D01*
X170151904Y-70539580D02*
X170199523Y-70444342D01*
X170199523Y-70444342D02*
X170199523Y-69634819D01*
X171104285Y-69968152D02*
X171104285Y-70634819D01*
X170866190Y-69587200D02*
X170628095Y-70301485D01*
X170628095Y-70301485D02*
X171247142Y-70301485D01*
X209954819Y-38666666D02*
X209478628Y-38999999D01*
X209954819Y-39238094D02*
X208954819Y-39238094D01*
X208954819Y-39238094D02*
X208954819Y-38857142D01*
X208954819Y-38857142D02*
X209002438Y-38761904D01*
X209002438Y-38761904D02*
X209050057Y-38714285D01*
X209050057Y-38714285D02*
X209145295Y-38666666D01*
X209145295Y-38666666D02*
X209288152Y-38666666D01*
X209288152Y-38666666D02*
X209383390Y-38714285D01*
X209383390Y-38714285D02*
X209431009Y-38761904D01*
X209431009Y-38761904D02*
X209478628Y-38857142D01*
X209478628Y-38857142D02*
X209478628Y-39238094D01*
X209288152Y-37809523D02*
X209954819Y-37809523D01*
X208907200Y-38047618D02*
X209621485Y-38285713D01*
X209621485Y-38285713D02*
X209621485Y-37666666D01*
X188379580Y-76482857D02*
X188427200Y-76530476D01*
X188427200Y-76530476D02*
X188474819Y-76673333D01*
X188474819Y-76673333D02*
X188474819Y-76768571D01*
X188474819Y-76768571D02*
X188427200Y-76911428D01*
X188427200Y-76911428D02*
X188331961Y-77006666D01*
X188331961Y-77006666D02*
X188236723Y-77054285D01*
X188236723Y-77054285D02*
X188046247Y-77101904D01*
X188046247Y-77101904D02*
X187903390Y-77101904D01*
X187903390Y-77101904D02*
X187712914Y-77054285D01*
X187712914Y-77054285D02*
X187617676Y-77006666D01*
X187617676Y-77006666D02*
X187522438Y-76911428D01*
X187522438Y-76911428D02*
X187474819Y-76768571D01*
X187474819Y-76768571D02*
X187474819Y-76673333D01*
X187474819Y-76673333D02*
X187522438Y-76530476D01*
X187522438Y-76530476D02*
X187570057Y-76482857D01*
X187474819Y-76149523D02*
X187474819Y-75530476D01*
X187474819Y-75530476D02*
X187855771Y-75863809D01*
X187855771Y-75863809D02*
X187855771Y-75720952D01*
X187855771Y-75720952D02*
X187903390Y-75625714D01*
X187903390Y-75625714D02*
X187951009Y-75578095D01*
X187951009Y-75578095D02*
X188046247Y-75530476D01*
X188046247Y-75530476D02*
X188284342Y-75530476D01*
X188284342Y-75530476D02*
X188379580Y-75578095D01*
X188379580Y-75578095D02*
X188427200Y-75625714D01*
X188427200Y-75625714D02*
X188474819Y-75720952D01*
X188474819Y-75720952D02*
X188474819Y-76006666D01*
X188474819Y-76006666D02*
X188427200Y-76101904D01*
X188427200Y-76101904D02*
X188379580Y-76149523D01*
X187474819Y-74911428D02*
X187474819Y-74816190D01*
X187474819Y-74816190D02*
X187522438Y-74720952D01*
X187522438Y-74720952D02*
X187570057Y-74673333D01*
X187570057Y-74673333D02*
X187665295Y-74625714D01*
X187665295Y-74625714D02*
X187855771Y-74578095D01*
X187855771Y-74578095D02*
X188093866Y-74578095D01*
X188093866Y-74578095D02*
X188284342Y-74625714D01*
X188284342Y-74625714D02*
X188379580Y-74673333D01*
X188379580Y-74673333D02*
X188427200Y-74720952D01*
X188427200Y-74720952D02*
X188474819Y-74816190D01*
X188474819Y-74816190D02*
X188474819Y-74911428D01*
X188474819Y-74911428D02*
X188427200Y-75006666D01*
X188427200Y-75006666D02*
X188379580Y-75054285D01*
X188379580Y-75054285D02*
X188284342Y-75101904D01*
X188284342Y-75101904D02*
X188093866Y-75149523D01*
X188093866Y-75149523D02*
X187855771Y-75149523D01*
X187855771Y-75149523D02*
X187665295Y-75101904D01*
X187665295Y-75101904D02*
X187570057Y-75054285D01*
X187570057Y-75054285D02*
X187522438Y-75006666D01*
X187522438Y-75006666D02*
X187474819Y-74911428D01*
X207859580Y-71642857D02*
X207907200Y-71690476D01*
X207907200Y-71690476D02*
X207954819Y-71833333D01*
X207954819Y-71833333D02*
X207954819Y-71928571D01*
X207954819Y-71928571D02*
X207907200Y-72071428D01*
X207907200Y-72071428D02*
X207811961Y-72166666D01*
X207811961Y-72166666D02*
X207716723Y-72214285D01*
X207716723Y-72214285D02*
X207526247Y-72261904D01*
X207526247Y-72261904D02*
X207383390Y-72261904D01*
X207383390Y-72261904D02*
X207192914Y-72214285D01*
X207192914Y-72214285D02*
X207097676Y-72166666D01*
X207097676Y-72166666D02*
X207002438Y-72071428D01*
X207002438Y-72071428D02*
X206954819Y-71928571D01*
X206954819Y-71928571D02*
X206954819Y-71833333D01*
X206954819Y-71833333D02*
X207002438Y-71690476D01*
X207002438Y-71690476D02*
X207050057Y-71642857D01*
X207050057Y-71261904D02*
X207002438Y-71214285D01*
X207002438Y-71214285D02*
X206954819Y-71119047D01*
X206954819Y-71119047D02*
X206954819Y-70880952D01*
X206954819Y-70880952D02*
X207002438Y-70785714D01*
X207002438Y-70785714D02*
X207050057Y-70738095D01*
X207050057Y-70738095D02*
X207145295Y-70690476D01*
X207145295Y-70690476D02*
X207240533Y-70690476D01*
X207240533Y-70690476D02*
X207383390Y-70738095D01*
X207383390Y-70738095D02*
X207954819Y-71309523D01*
X207954819Y-71309523D02*
X207954819Y-70690476D01*
X206954819Y-70357142D02*
X206954819Y-69690476D01*
X206954819Y-69690476D02*
X207954819Y-70119047D01*
X128194818Y-74878054D02*
X129004341Y-74878054D01*
X129004341Y-74878054D02*
X129099579Y-74830435D01*
X129099579Y-74830435D02*
X129147199Y-74782816D01*
X129147199Y-74782816D02*
X129194818Y-74687578D01*
X129194818Y-74687578D02*
X129194818Y-74497102D01*
X129194818Y-74497102D02*
X129147199Y-74401864D01*
X129147199Y-74401864D02*
X129099579Y-74354245D01*
X129099579Y-74354245D02*
X129004341Y-74306626D01*
X129004341Y-74306626D02*
X128194818Y-74306626D01*
X128194818Y-73925673D02*
X128194818Y-73259007D01*
X128194818Y-73259007D02*
X129194818Y-73687578D01*
X125772418Y-76586299D02*
X126010513Y-76586299D01*
X125915275Y-76824394D02*
X126010513Y-76586299D01*
X126010513Y-76586299D02*
X125915275Y-76348204D01*
X126200989Y-76729156D02*
X126010513Y-76586299D01*
X126010513Y-76586299D02*
X126200989Y-76443442D01*
X125772418Y-76586299D02*
X126010513Y-76586299D01*
X125915275Y-76824394D02*
X126010513Y-76586299D01*
X126010513Y-76586299D02*
X125915275Y-76348204D01*
X126200989Y-76729156D02*
X126010513Y-76586299D01*
X126010513Y-76586299D02*
X126200989Y-76443442D01*
X171523333Y-68039580D02*
X171475714Y-68087200D01*
X171475714Y-68087200D02*
X171332857Y-68134819D01*
X171332857Y-68134819D02*
X171237619Y-68134819D01*
X171237619Y-68134819D02*
X171094762Y-68087200D01*
X171094762Y-68087200D02*
X170999524Y-67991961D01*
X170999524Y-67991961D02*
X170951905Y-67896723D01*
X170951905Y-67896723D02*
X170904286Y-67706247D01*
X170904286Y-67706247D02*
X170904286Y-67563390D01*
X170904286Y-67563390D02*
X170951905Y-67372914D01*
X170951905Y-67372914D02*
X170999524Y-67277676D01*
X170999524Y-67277676D02*
X171094762Y-67182438D01*
X171094762Y-67182438D02*
X171237619Y-67134819D01*
X171237619Y-67134819D02*
X171332857Y-67134819D01*
X171332857Y-67134819D02*
X171475714Y-67182438D01*
X171475714Y-67182438D02*
X171523333Y-67230057D01*
X172094762Y-67563390D02*
X171999524Y-67515771D01*
X171999524Y-67515771D02*
X171951905Y-67468152D01*
X171951905Y-67468152D02*
X171904286Y-67372914D01*
X171904286Y-67372914D02*
X171904286Y-67325295D01*
X171904286Y-67325295D02*
X171951905Y-67230057D01*
X171951905Y-67230057D02*
X171999524Y-67182438D01*
X171999524Y-67182438D02*
X172094762Y-67134819D01*
X172094762Y-67134819D02*
X172285238Y-67134819D01*
X172285238Y-67134819D02*
X172380476Y-67182438D01*
X172380476Y-67182438D02*
X172428095Y-67230057D01*
X172428095Y-67230057D02*
X172475714Y-67325295D01*
X172475714Y-67325295D02*
X172475714Y-67372914D01*
X172475714Y-67372914D02*
X172428095Y-67468152D01*
X172428095Y-67468152D02*
X172380476Y-67515771D01*
X172380476Y-67515771D02*
X172285238Y-67563390D01*
X172285238Y-67563390D02*
X172094762Y-67563390D01*
X172094762Y-67563390D02*
X171999524Y-67611009D01*
X171999524Y-67611009D02*
X171951905Y-67658628D01*
X171951905Y-67658628D02*
X171904286Y-67753866D01*
X171904286Y-67753866D02*
X171904286Y-67944342D01*
X171904286Y-67944342D02*
X171951905Y-68039580D01*
X171951905Y-68039580D02*
X171999524Y-68087200D01*
X171999524Y-68087200D02*
X172094762Y-68134819D01*
X172094762Y-68134819D02*
X172285238Y-68134819D01*
X172285238Y-68134819D02*
X172380476Y-68087200D01*
X172380476Y-68087200D02*
X172428095Y-68039580D01*
X172428095Y-68039580D02*
X172475714Y-67944342D01*
X172475714Y-67944342D02*
X172475714Y-67753866D01*
X172475714Y-67753866D02*
X172428095Y-67658628D01*
X172428095Y-67658628D02*
X172380476Y-67611009D01*
X172380476Y-67611009D02*
X172285238Y-67563390D01*
X199368204Y-46045180D02*
X199368204Y-45235657D01*
X199368204Y-45235657D02*
X199320585Y-45140419D01*
X199320585Y-45140419D02*
X199272966Y-45092800D01*
X199272966Y-45092800D02*
X199177728Y-45045180D01*
X199177728Y-45045180D02*
X198987252Y-45045180D01*
X198987252Y-45045180D02*
X198892014Y-45092800D01*
X198892014Y-45092800D02*
X198844395Y-45140419D01*
X198844395Y-45140419D02*
X198796776Y-45235657D01*
X198796776Y-45235657D02*
X198796776Y-46045180D01*
X198415823Y-46045180D02*
X197796776Y-46045180D01*
X197796776Y-46045180D02*
X198130109Y-45664228D01*
X198130109Y-45664228D02*
X197987252Y-45664228D01*
X197987252Y-45664228D02*
X197892014Y-45616609D01*
X197892014Y-45616609D02*
X197844395Y-45568990D01*
X197844395Y-45568990D02*
X197796776Y-45473752D01*
X197796776Y-45473752D02*
X197796776Y-45235657D01*
X197796776Y-45235657D02*
X197844395Y-45140419D01*
X197844395Y-45140419D02*
X197892014Y-45092800D01*
X197892014Y-45092800D02*
X197987252Y-45045180D01*
X197987252Y-45045180D02*
X198272966Y-45045180D01*
X198272966Y-45045180D02*
X198368204Y-45092800D01*
X198368204Y-45092800D02*
X198415823Y-45140419D01*
X200315099Y-47422819D02*
X200315099Y-47660914D01*
X200077004Y-47565676D02*
X200315099Y-47660914D01*
X200315099Y-47660914D02*
X200553194Y-47565676D01*
X200172242Y-47851390D02*
X200315099Y-47660914D01*
X200315099Y-47660914D02*
X200457956Y-47851390D01*
X200315098Y-48513180D02*
X200315098Y-48275085D01*
X200553193Y-48370323D02*
X200315098Y-48275085D01*
X200315098Y-48275085D02*
X200077003Y-48370323D01*
X200457955Y-48084609D02*
X200315098Y-48275085D01*
X200315098Y-48275085D02*
X200172241Y-48084609D01*
X135447142Y-49991581D02*
X135399523Y-50039201D01*
X135399523Y-50039201D02*
X135256666Y-50086820D01*
X135256666Y-50086820D02*
X135161428Y-50086820D01*
X135161428Y-50086820D02*
X135018571Y-50039201D01*
X135018571Y-50039201D02*
X134923333Y-49943962D01*
X134923333Y-49943962D02*
X134875714Y-49848724D01*
X134875714Y-49848724D02*
X134828095Y-49658248D01*
X134828095Y-49658248D02*
X134828095Y-49515391D01*
X134828095Y-49515391D02*
X134875714Y-49324915D01*
X134875714Y-49324915D02*
X134923333Y-49229677D01*
X134923333Y-49229677D02*
X135018571Y-49134439D01*
X135018571Y-49134439D02*
X135161428Y-49086820D01*
X135161428Y-49086820D02*
X135256666Y-49086820D01*
X135256666Y-49086820D02*
X135399523Y-49134439D01*
X135399523Y-49134439D02*
X135447142Y-49182058D01*
X136399523Y-50086820D02*
X135828095Y-50086820D01*
X136113809Y-50086820D02*
X136113809Y-49086820D01*
X136113809Y-49086820D02*
X136018571Y-49229677D01*
X136018571Y-49229677D02*
X135923333Y-49324915D01*
X135923333Y-49324915D02*
X135828095Y-49372534D01*
X137304285Y-49086820D02*
X136828095Y-49086820D01*
X136828095Y-49086820D02*
X136780476Y-49563010D01*
X136780476Y-49563010D02*
X136828095Y-49515391D01*
X136828095Y-49515391D02*
X136923333Y-49467772D01*
X136923333Y-49467772D02*
X137161428Y-49467772D01*
X137161428Y-49467772D02*
X137256666Y-49515391D01*
X137256666Y-49515391D02*
X137304285Y-49563010D01*
X137304285Y-49563010D02*
X137351904Y-49658248D01*
X137351904Y-49658248D02*
X137351904Y-49896343D01*
X137351904Y-49896343D02*
X137304285Y-49991581D01*
X137304285Y-49991581D02*
X137256666Y-50039201D01*
X137256666Y-50039201D02*
X137161428Y-50086820D01*
X137161428Y-50086820D02*
X136923333Y-50086820D01*
X136923333Y-50086820D02*
X136828095Y-50039201D01*
X136828095Y-50039201D02*
X136780476Y-49991581D01*
X206644819Y-95238094D02*
X205644819Y-95238094D01*
X205644819Y-95238094D02*
X205644819Y-94999999D01*
X205644819Y-94999999D02*
X205692438Y-94857142D01*
X205692438Y-94857142D02*
X205787676Y-94761904D01*
X205787676Y-94761904D02*
X205882914Y-94714285D01*
X205882914Y-94714285D02*
X206073390Y-94666666D01*
X206073390Y-94666666D02*
X206216247Y-94666666D01*
X206216247Y-94666666D02*
X206406723Y-94714285D01*
X206406723Y-94714285D02*
X206501961Y-94761904D01*
X206501961Y-94761904D02*
X206597200Y-94857142D01*
X206597200Y-94857142D02*
X206644819Y-94999999D01*
X206644819Y-94999999D02*
X206644819Y-95238094D01*
X206644819Y-93714285D02*
X206644819Y-94285713D01*
X206644819Y-93999999D02*
X205644819Y-93999999D01*
X205644819Y-93999999D02*
X205787676Y-94095237D01*
X205787676Y-94095237D02*
X205882914Y-94190475D01*
X205882914Y-94190475D02*
X205930533Y-94285713D01*
X142632142Y-51771581D02*
X142584523Y-51819201D01*
X142584523Y-51819201D02*
X142441666Y-51866820D01*
X142441666Y-51866820D02*
X142346428Y-51866820D01*
X142346428Y-51866820D02*
X142203571Y-51819201D01*
X142203571Y-51819201D02*
X142108333Y-51723962D01*
X142108333Y-51723962D02*
X142060714Y-51628724D01*
X142060714Y-51628724D02*
X142013095Y-51438248D01*
X142013095Y-51438248D02*
X142013095Y-51295391D01*
X142013095Y-51295391D02*
X142060714Y-51104915D01*
X142060714Y-51104915D02*
X142108333Y-51009677D01*
X142108333Y-51009677D02*
X142203571Y-50914439D01*
X142203571Y-50914439D02*
X142346428Y-50866820D01*
X142346428Y-50866820D02*
X142441666Y-50866820D01*
X142441666Y-50866820D02*
X142584523Y-50914439D01*
X142584523Y-50914439D02*
X142632142Y-50962058D01*
X143584523Y-51866820D02*
X143013095Y-51866820D01*
X143298809Y-51866820D02*
X143298809Y-50866820D01*
X143298809Y-50866820D02*
X143203571Y-51009677D01*
X143203571Y-51009677D02*
X143108333Y-51104915D01*
X143108333Y-51104915D02*
X143013095Y-51152534D01*
X144441666Y-50866820D02*
X144251190Y-50866820D01*
X144251190Y-50866820D02*
X144155952Y-50914439D01*
X144155952Y-50914439D02*
X144108333Y-50962058D01*
X144108333Y-50962058D02*
X144013095Y-51104915D01*
X144013095Y-51104915D02*
X143965476Y-51295391D01*
X143965476Y-51295391D02*
X143965476Y-51676343D01*
X143965476Y-51676343D02*
X144013095Y-51771581D01*
X144013095Y-51771581D02*
X144060714Y-51819201D01*
X144060714Y-51819201D02*
X144155952Y-51866820D01*
X144155952Y-51866820D02*
X144346428Y-51866820D01*
X144346428Y-51866820D02*
X144441666Y-51819201D01*
X144441666Y-51819201D02*
X144489285Y-51771581D01*
X144489285Y-51771581D02*
X144536904Y-51676343D01*
X144536904Y-51676343D02*
X144536904Y-51438248D01*
X144536904Y-51438248D02*
X144489285Y-51343010D01*
X144489285Y-51343010D02*
X144441666Y-51295391D01*
X144441666Y-51295391D02*
X144346428Y-51247772D01*
X144346428Y-51247772D02*
X144155952Y-51247772D01*
X144155952Y-51247772D02*
X144060714Y-51295391D01*
X144060714Y-51295391D02*
X144013095Y-51343010D01*
X144013095Y-51343010D02*
X143965476Y-51438248D01*
X197859580Y-100142857D02*
X197907200Y-100190476D01*
X197907200Y-100190476D02*
X197954819Y-100333333D01*
X197954819Y-100333333D02*
X197954819Y-100428571D01*
X197954819Y-100428571D02*
X197907200Y-100571428D01*
X197907200Y-100571428D02*
X197811961Y-100666666D01*
X197811961Y-100666666D02*
X197716723Y-100714285D01*
X197716723Y-100714285D02*
X197526247Y-100761904D01*
X197526247Y-100761904D02*
X197383390Y-100761904D01*
X197383390Y-100761904D02*
X197192914Y-100714285D01*
X197192914Y-100714285D02*
X197097676Y-100666666D01*
X197097676Y-100666666D02*
X197002438Y-100571428D01*
X197002438Y-100571428D02*
X196954819Y-100428571D01*
X196954819Y-100428571D02*
X196954819Y-100333333D01*
X196954819Y-100333333D02*
X197002438Y-100190476D01*
X197002438Y-100190476D02*
X197050057Y-100142857D01*
X197050057Y-99761904D02*
X197002438Y-99714285D01*
X197002438Y-99714285D02*
X196954819Y-99619047D01*
X196954819Y-99619047D02*
X196954819Y-99380952D01*
X196954819Y-99380952D02*
X197002438Y-99285714D01*
X197002438Y-99285714D02*
X197050057Y-99238095D01*
X197050057Y-99238095D02*
X197145295Y-99190476D01*
X197145295Y-99190476D02*
X197240533Y-99190476D01*
X197240533Y-99190476D02*
X197383390Y-99238095D01*
X197383390Y-99238095D02*
X197954819Y-99809523D01*
X197954819Y-99809523D02*
X197954819Y-99190476D01*
X197954819Y-98714285D02*
X197954819Y-98523809D01*
X197954819Y-98523809D02*
X197907200Y-98428571D01*
X197907200Y-98428571D02*
X197859580Y-98380952D01*
X197859580Y-98380952D02*
X197716723Y-98285714D01*
X197716723Y-98285714D02*
X197526247Y-98238095D01*
X197526247Y-98238095D02*
X197145295Y-98238095D01*
X197145295Y-98238095D02*
X197050057Y-98285714D01*
X197050057Y-98285714D02*
X197002438Y-98333333D01*
X197002438Y-98333333D02*
X196954819Y-98428571D01*
X196954819Y-98428571D02*
X196954819Y-98619047D01*
X196954819Y-98619047D02*
X197002438Y-98714285D01*
X197002438Y-98714285D02*
X197050057Y-98761904D01*
X197050057Y-98761904D02*
X197145295Y-98809523D01*
X197145295Y-98809523D02*
X197383390Y-98809523D01*
X197383390Y-98809523D02*
X197478628Y-98761904D01*
X197478628Y-98761904D02*
X197526247Y-98714285D01*
X197526247Y-98714285D02*
X197573866Y-98619047D01*
X197573866Y-98619047D02*
X197573866Y-98428571D01*
X197573866Y-98428571D02*
X197526247Y-98333333D01*
X197526247Y-98333333D02*
X197478628Y-98285714D01*
X197478628Y-98285714D02*
X197383390Y-98238095D01*
X124238333Y-78017920D02*
X123762143Y-78017920D01*
X123762143Y-78017920D02*
X123762143Y-77017920D01*
X125095476Y-78017920D02*
X124524048Y-78017920D01*
X124809762Y-78017920D02*
X124809762Y-77017920D01*
X124809762Y-77017920D02*
X124714524Y-77160777D01*
X124714524Y-77160777D02*
X124619286Y-77256015D01*
X124619286Y-77256015D02*
X124524048Y-77303634D01*
X214359580Y-62642857D02*
X214407200Y-62690476D01*
X214407200Y-62690476D02*
X214454819Y-62833333D01*
X214454819Y-62833333D02*
X214454819Y-62928571D01*
X214454819Y-62928571D02*
X214407200Y-63071428D01*
X214407200Y-63071428D02*
X214311961Y-63166666D01*
X214311961Y-63166666D02*
X214216723Y-63214285D01*
X214216723Y-63214285D02*
X214026247Y-63261904D01*
X214026247Y-63261904D02*
X213883390Y-63261904D01*
X213883390Y-63261904D02*
X213692914Y-63214285D01*
X213692914Y-63214285D02*
X213597676Y-63166666D01*
X213597676Y-63166666D02*
X213502438Y-63071428D01*
X213502438Y-63071428D02*
X213454819Y-62928571D01*
X213454819Y-62928571D02*
X213454819Y-62833333D01*
X213454819Y-62833333D02*
X213502438Y-62690476D01*
X213502438Y-62690476D02*
X213550057Y-62642857D01*
X213550057Y-62261904D02*
X213502438Y-62214285D01*
X213502438Y-62214285D02*
X213454819Y-62119047D01*
X213454819Y-62119047D02*
X213454819Y-61880952D01*
X213454819Y-61880952D02*
X213502438Y-61785714D01*
X213502438Y-61785714D02*
X213550057Y-61738095D01*
X213550057Y-61738095D02*
X213645295Y-61690476D01*
X213645295Y-61690476D02*
X213740533Y-61690476D01*
X213740533Y-61690476D02*
X213883390Y-61738095D01*
X213883390Y-61738095D02*
X214454819Y-62309523D01*
X214454819Y-62309523D02*
X214454819Y-61690476D01*
X213454819Y-60833333D02*
X213454819Y-61023809D01*
X213454819Y-61023809D02*
X213502438Y-61119047D01*
X213502438Y-61119047D02*
X213550057Y-61166666D01*
X213550057Y-61166666D02*
X213692914Y-61261904D01*
X213692914Y-61261904D02*
X213883390Y-61309523D01*
X213883390Y-61309523D02*
X214264342Y-61309523D01*
X214264342Y-61309523D02*
X214359580Y-61261904D01*
X214359580Y-61261904D02*
X214407200Y-61214285D01*
X214407200Y-61214285D02*
X214454819Y-61119047D01*
X214454819Y-61119047D02*
X214454819Y-60928571D01*
X214454819Y-60928571D02*
X214407200Y-60833333D01*
X214407200Y-60833333D02*
X214359580Y-60785714D01*
X214359580Y-60785714D02*
X214264342Y-60738095D01*
X214264342Y-60738095D02*
X214026247Y-60738095D01*
X214026247Y-60738095D02*
X213931009Y-60785714D01*
X213931009Y-60785714D02*
X213883390Y-60833333D01*
X213883390Y-60833333D02*
X213835771Y-60928571D01*
X213835771Y-60928571D02*
X213835771Y-61119047D01*
X213835771Y-61119047D02*
X213883390Y-61214285D01*
X213883390Y-61214285D02*
X213931009Y-61261904D01*
X213931009Y-61261904D02*
X214026247Y-61309523D01*
X170813333Y-74829580D02*
X170765714Y-74877200D01*
X170765714Y-74877200D02*
X170622857Y-74924819D01*
X170622857Y-74924819D02*
X170527619Y-74924819D01*
X170527619Y-74924819D02*
X170384762Y-74877200D01*
X170384762Y-74877200D02*
X170289524Y-74781961D01*
X170289524Y-74781961D02*
X170241905Y-74686723D01*
X170241905Y-74686723D02*
X170194286Y-74496247D01*
X170194286Y-74496247D02*
X170194286Y-74353390D01*
X170194286Y-74353390D02*
X170241905Y-74162914D01*
X170241905Y-74162914D02*
X170289524Y-74067676D01*
X170289524Y-74067676D02*
X170384762Y-73972438D01*
X170384762Y-73972438D02*
X170527619Y-73924819D01*
X170527619Y-73924819D02*
X170622857Y-73924819D01*
X170622857Y-73924819D02*
X170765714Y-73972438D01*
X170765714Y-73972438D02*
X170813333Y-74020057D01*
X171146667Y-73924819D02*
X171813333Y-73924819D01*
X171813333Y-73924819D02*
X171384762Y-74924819D01*
X129604580Y-86927598D02*
X129652200Y-86975217D01*
X129652200Y-86975217D02*
X129699819Y-87118074D01*
X129699819Y-87118074D02*
X129699819Y-87213312D01*
X129699819Y-87213312D02*
X129652200Y-87356169D01*
X129652200Y-87356169D02*
X129556961Y-87451407D01*
X129556961Y-87451407D02*
X129461723Y-87499026D01*
X129461723Y-87499026D02*
X129271247Y-87546645D01*
X129271247Y-87546645D02*
X129128390Y-87546645D01*
X129128390Y-87546645D02*
X128937914Y-87499026D01*
X128937914Y-87499026D02*
X128842676Y-87451407D01*
X128842676Y-87451407D02*
X128747438Y-87356169D01*
X128747438Y-87356169D02*
X128699819Y-87213312D01*
X128699819Y-87213312D02*
X128699819Y-87118074D01*
X128699819Y-87118074D02*
X128747438Y-86975217D01*
X128747438Y-86975217D02*
X128795057Y-86927598D01*
X128795057Y-86546645D02*
X128747438Y-86499026D01*
X128747438Y-86499026D02*
X128699819Y-86403788D01*
X128699819Y-86403788D02*
X128699819Y-86165693D01*
X128699819Y-86165693D02*
X128747438Y-86070455D01*
X128747438Y-86070455D02*
X128795057Y-86022836D01*
X128795057Y-86022836D02*
X128890295Y-85975217D01*
X128890295Y-85975217D02*
X128985533Y-85975217D01*
X128985533Y-85975217D02*
X129128390Y-86022836D01*
X129128390Y-86022836D02*
X129699819Y-86594264D01*
X129699819Y-86594264D02*
X129699819Y-85975217D01*
X128795057Y-85594264D02*
X128747438Y-85546645D01*
X128747438Y-85546645D02*
X128699819Y-85451407D01*
X128699819Y-85451407D02*
X128699819Y-85213312D01*
X128699819Y-85213312D02*
X128747438Y-85118074D01*
X128747438Y-85118074D02*
X128795057Y-85070455D01*
X128795057Y-85070455D02*
X128890295Y-85022836D01*
X128890295Y-85022836D02*
X128985533Y-85022836D01*
X128985533Y-85022836D02*
X129128390Y-85070455D01*
X129128390Y-85070455D02*
X129699819Y-85641883D01*
X129699819Y-85641883D02*
X129699819Y-85022836D01*
X184689580Y-67666666D02*
X184737200Y-67714285D01*
X184737200Y-67714285D02*
X184784819Y-67857142D01*
X184784819Y-67857142D02*
X184784819Y-67952380D01*
X184784819Y-67952380D02*
X184737200Y-68095237D01*
X184737200Y-68095237D02*
X184641961Y-68190475D01*
X184641961Y-68190475D02*
X184546723Y-68238094D01*
X184546723Y-68238094D02*
X184356247Y-68285713D01*
X184356247Y-68285713D02*
X184213390Y-68285713D01*
X184213390Y-68285713D02*
X184022914Y-68238094D01*
X184022914Y-68238094D02*
X183927676Y-68190475D01*
X183927676Y-68190475D02*
X183832438Y-68095237D01*
X183832438Y-68095237D02*
X183784819Y-67952380D01*
X183784819Y-67952380D02*
X183784819Y-67857142D01*
X183784819Y-67857142D02*
X183832438Y-67714285D01*
X183832438Y-67714285D02*
X183880057Y-67666666D01*
X184118152Y-66809523D02*
X184784819Y-66809523D01*
X183737200Y-67047618D02*
X184451485Y-67285713D01*
X184451485Y-67285713D02*
X184451485Y-66666666D01*
X187738095Y-47454819D02*
X187738095Y-48264342D01*
X187738095Y-48264342D02*
X187785714Y-48359580D01*
X187785714Y-48359580D02*
X187833333Y-48407200D01*
X187833333Y-48407200D02*
X187928571Y-48454819D01*
X187928571Y-48454819D02*
X188119047Y-48454819D01*
X188119047Y-48454819D02*
X188214285Y-48407200D01*
X188214285Y-48407200D02*
X188261904Y-48359580D01*
X188261904Y-48359580D02*
X188309523Y-48264342D01*
X188309523Y-48264342D02*
X188309523Y-47454819D01*
X189214285Y-47454819D02*
X189023809Y-47454819D01*
X189023809Y-47454819D02*
X188928571Y-47502438D01*
X188928571Y-47502438D02*
X188880952Y-47550057D01*
X188880952Y-47550057D02*
X188785714Y-47692914D01*
X188785714Y-47692914D02*
X188738095Y-47883390D01*
X188738095Y-47883390D02*
X188738095Y-48264342D01*
X188738095Y-48264342D02*
X188785714Y-48359580D01*
X188785714Y-48359580D02*
X188833333Y-48407200D01*
X188833333Y-48407200D02*
X188928571Y-48454819D01*
X188928571Y-48454819D02*
X189119047Y-48454819D01*
X189119047Y-48454819D02*
X189214285Y-48407200D01*
X189214285Y-48407200D02*
X189261904Y-48359580D01*
X189261904Y-48359580D02*
X189309523Y-48264342D01*
X189309523Y-48264342D02*
X189309523Y-48026247D01*
X189309523Y-48026247D02*
X189261904Y-47931009D01*
X189261904Y-47931009D02*
X189214285Y-47883390D01*
X189214285Y-47883390D02*
X189119047Y-47835771D01*
X189119047Y-47835771D02*
X188928571Y-47835771D01*
X188928571Y-47835771D02*
X188833333Y-47883390D01*
X188833333Y-47883390D02*
X188785714Y-47931009D01*
X188785714Y-47931009D02*
X188738095Y-48026247D01*
X209494819Y-88031666D02*
X209018628Y-88364999D01*
X209494819Y-88603094D02*
X208494819Y-88603094D01*
X208494819Y-88603094D02*
X208494819Y-88222142D01*
X208494819Y-88222142D02*
X208542438Y-88126904D01*
X208542438Y-88126904D02*
X208590057Y-88079285D01*
X208590057Y-88079285D02*
X208685295Y-88031666D01*
X208685295Y-88031666D02*
X208828152Y-88031666D01*
X208828152Y-88031666D02*
X208923390Y-88079285D01*
X208923390Y-88079285D02*
X208971009Y-88126904D01*
X208971009Y-88126904D02*
X209018628Y-88222142D01*
X209018628Y-88222142D02*
X209018628Y-88603094D01*
X209494819Y-87079285D02*
X209494819Y-87650713D01*
X209494819Y-87364999D02*
X208494819Y-87364999D01*
X208494819Y-87364999D02*
X208637676Y-87460237D01*
X208637676Y-87460237D02*
X208732914Y-87555475D01*
X208732914Y-87555475D02*
X208780533Y-87650713D01*
X197399580Y-90206666D02*
X197447200Y-90254285D01*
X197447200Y-90254285D02*
X197494819Y-90397142D01*
X197494819Y-90397142D02*
X197494819Y-90492380D01*
X197494819Y-90492380D02*
X197447200Y-90635237D01*
X197447200Y-90635237D02*
X197351961Y-90730475D01*
X197351961Y-90730475D02*
X197256723Y-90778094D01*
X197256723Y-90778094D02*
X197066247Y-90825713D01*
X197066247Y-90825713D02*
X196923390Y-90825713D01*
X196923390Y-90825713D02*
X196732914Y-90778094D01*
X196732914Y-90778094D02*
X196637676Y-90730475D01*
X196637676Y-90730475D02*
X196542438Y-90635237D01*
X196542438Y-90635237D02*
X196494819Y-90492380D01*
X196494819Y-90492380D02*
X196494819Y-90397142D01*
X196494819Y-90397142D02*
X196542438Y-90254285D01*
X196542438Y-90254285D02*
X196590057Y-90206666D01*
X196494819Y-89873332D02*
X196494819Y-89254285D01*
X196494819Y-89254285D02*
X196875771Y-89587618D01*
X196875771Y-89587618D02*
X196875771Y-89444761D01*
X196875771Y-89444761D02*
X196923390Y-89349523D01*
X196923390Y-89349523D02*
X196971009Y-89301904D01*
X196971009Y-89301904D02*
X197066247Y-89254285D01*
X197066247Y-89254285D02*
X197304342Y-89254285D01*
X197304342Y-89254285D02*
X197399580Y-89301904D01*
X197399580Y-89301904D02*
X197447200Y-89349523D01*
X197447200Y-89349523D02*
X197494819Y-89444761D01*
X197494819Y-89444761D02*
X197494819Y-89730475D01*
X197494819Y-89730475D02*
X197447200Y-89825713D01*
X197447200Y-89825713D02*
X197399580Y-89873332D01*
X188389580Y-61642857D02*
X188437200Y-61690476D01*
X188437200Y-61690476D02*
X188484819Y-61833333D01*
X188484819Y-61833333D02*
X188484819Y-61928571D01*
X188484819Y-61928571D02*
X188437200Y-62071428D01*
X188437200Y-62071428D02*
X188341961Y-62166666D01*
X188341961Y-62166666D02*
X188246723Y-62214285D01*
X188246723Y-62214285D02*
X188056247Y-62261904D01*
X188056247Y-62261904D02*
X187913390Y-62261904D01*
X187913390Y-62261904D02*
X187722914Y-62214285D01*
X187722914Y-62214285D02*
X187627676Y-62166666D01*
X187627676Y-62166666D02*
X187532438Y-62071428D01*
X187532438Y-62071428D02*
X187484819Y-61928571D01*
X187484819Y-61928571D02*
X187484819Y-61833333D01*
X187484819Y-61833333D02*
X187532438Y-61690476D01*
X187532438Y-61690476D02*
X187580057Y-61642857D01*
X188484819Y-60690476D02*
X188484819Y-61261904D01*
X188484819Y-60976190D02*
X187484819Y-60976190D01*
X187484819Y-60976190D02*
X187627676Y-61071428D01*
X187627676Y-61071428D02*
X187722914Y-61166666D01*
X187722914Y-61166666D02*
X187770533Y-61261904D01*
X187484819Y-60357142D02*
X187484819Y-59738095D01*
X187484819Y-59738095D02*
X187865771Y-60071428D01*
X187865771Y-60071428D02*
X187865771Y-59928571D01*
X187865771Y-59928571D02*
X187913390Y-59833333D01*
X187913390Y-59833333D02*
X187961009Y-59785714D01*
X187961009Y-59785714D02*
X188056247Y-59738095D01*
X188056247Y-59738095D02*
X188294342Y-59738095D01*
X188294342Y-59738095D02*
X188389580Y-59785714D01*
X188389580Y-59785714D02*
X188437200Y-59833333D01*
X188437200Y-59833333D02*
X188484819Y-59928571D01*
X188484819Y-59928571D02*
X188484819Y-60214285D01*
X188484819Y-60214285D02*
X188437200Y-60309523D01*
X188437200Y-60309523D02*
X188389580Y-60357142D01*
X135417142Y-73114819D02*
X135083809Y-72638628D01*
X134845714Y-73114819D02*
X134845714Y-72114819D01*
X134845714Y-72114819D02*
X135226666Y-72114819D01*
X135226666Y-72114819D02*
X135321904Y-72162438D01*
X135321904Y-72162438D02*
X135369523Y-72210057D01*
X135369523Y-72210057D02*
X135417142Y-72305295D01*
X135417142Y-72305295D02*
X135417142Y-72448152D01*
X135417142Y-72448152D02*
X135369523Y-72543390D01*
X135369523Y-72543390D02*
X135321904Y-72591009D01*
X135321904Y-72591009D02*
X135226666Y-72638628D01*
X135226666Y-72638628D02*
X134845714Y-72638628D01*
X136369523Y-73114819D02*
X135798095Y-73114819D01*
X136083809Y-73114819D02*
X136083809Y-72114819D01*
X136083809Y-72114819D02*
X135988571Y-72257676D01*
X135988571Y-72257676D02*
X135893333Y-72352914D01*
X135893333Y-72352914D02*
X135798095Y-72400533D01*
X137274285Y-72114819D02*
X136798095Y-72114819D01*
X136798095Y-72114819D02*
X136750476Y-72591009D01*
X136750476Y-72591009D02*
X136798095Y-72543390D01*
X136798095Y-72543390D02*
X136893333Y-72495771D01*
X136893333Y-72495771D02*
X137131428Y-72495771D01*
X137131428Y-72495771D02*
X137226666Y-72543390D01*
X137226666Y-72543390D02*
X137274285Y-72591009D01*
X137274285Y-72591009D02*
X137321904Y-72686247D01*
X137321904Y-72686247D02*
X137321904Y-72924342D01*
X137321904Y-72924342D02*
X137274285Y-73019580D01*
X137274285Y-73019580D02*
X137226666Y-73067200D01*
X137226666Y-73067200D02*
X137131428Y-73114819D01*
X137131428Y-73114819D02*
X136893333Y-73114819D01*
X136893333Y-73114819D02*
X136798095Y-73067200D01*
X136798095Y-73067200D02*
X136750476Y-73019580D01*
X211485554Y-67545180D02*
X211485554Y-66735657D01*
X211485554Y-66735657D02*
X211437935Y-66640419D01*
X211437935Y-66640419D02*
X211390316Y-66592800D01*
X211390316Y-66592800D02*
X211295078Y-66545180D01*
X211295078Y-66545180D02*
X211104602Y-66545180D01*
X211104602Y-66545180D02*
X211009364Y-66592800D01*
X211009364Y-66592800D02*
X210961745Y-66640419D01*
X210961745Y-66640419D02*
X210914126Y-66735657D01*
X210914126Y-66735657D02*
X210914126Y-67545180D01*
X210390316Y-66545180D02*
X210199840Y-66545180D01*
X210199840Y-66545180D02*
X210104602Y-66592800D01*
X210104602Y-66592800D02*
X210056983Y-66640419D01*
X210056983Y-66640419D02*
X209961745Y-66783276D01*
X209961745Y-66783276D02*
X209914126Y-66973752D01*
X209914126Y-66973752D02*
X209914126Y-67354704D01*
X209914126Y-67354704D02*
X209961745Y-67449942D01*
X209961745Y-67449942D02*
X210009364Y-67497561D01*
X210009364Y-67497561D02*
X210104602Y-67545180D01*
X210104602Y-67545180D02*
X210295078Y-67545180D01*
X210295078Y-67545180D02*
X210390316Y-67497561D01*
X210390316Y-67497561D02*
X210437935Y-67449942D01*
X210437935Y-67449942D02*
X210485554Y-67354704D01*
X210485554Y-67354704D02*
X210485554Y-67116609D01*
X210485554Y-67116609D02*
X210437935Y-67021371D01*
X210437935Y-67021371D02*
X210390316Y-66973752D01*
X210390316Y-66973752D02*
X210295078Y-66926133D01*
X210295078Y-66926133D02*
X210104602Y-66926133D01*
X210104602Y-66926133D02*
X210009364Y-66973752D01*
X210009364Y-66973752D02*
X209961745Y-67021371D01*
X209961745Y-67021371D02*
X209914126Y-67116609D01*
X212253999Y-70196980D02*
X212253999Y-69958885D01*
X212492094Y-70054123D02*
X212253999Y-69958885D01*
X212253999Y-69958885D02*
X212015904Y-70054123D01*
X212396856Y-69768409D02*
X212253999Y-69958885D01*
X212253999Y-69958885D02*
X212111142Y-69768409D01*
X212254000Y-69106619D02*
X212254000Y-69344714D01*
X212015905Y-69249476D02*
X212254000Y-69344714D01*
X212254000Y-69344714D02*
X212492095Y-69249476D01*
X212111143Y-69535190D02*
X212254000Y-69344714D01*
X212254000Y-69344714D02*
X212396857Y-69535190D01*
X178969580Y-75662857D02*
X179017200Y-75710476D01*
X179017200Y-75710476D02*
X179064819Y-75853333D01*
X179064819Y-75853333D02*
X179064819Y-75948571D01*
X179064819Y-75948571D02*
X179017200Y-76091428D01*
X179017200Y-76091428D02*
X178921961Y-76186666D01*
X178921961Y-76186666D02*
X178826723Y-76234285D01*
X178826723Y-76234285D02*
X178636247Y-76281904D01*
X178636247Y-76281904D02*
X178493390Y-76281904D01*
X178493390Y-76281904D02*
X178302914Y-76234285D01*
X178302914Y-76234285D02*
X178207676Y-76186666D01*
X178207676Y-76186666D02*
X178112438Y-76091428D01*
X178112438Y-76091428D02*
X178064819Y-75948571D01*
X178064819Y-75948571D02*
X178064819Y-75853333D01*
X178064819Y-75853333D02*
X178112438Y-75710476D01*
X178112438Y-75710476D02*
X178160057Y-75662857D01*
X179064819Y-74710476D02*
X179064819Y-75281904D01*
X179064819Y-74996190D02*
X178064819Y-74996190D01*
X178064819Y-74996190D02*
X178207676Y-75091428D01*
X178207676Y-75091428D02*
X178302914Y-75186666D01*
X178302914Y-75186666D02*
X178350533Y-75281904D01*
X178064819Y-74091428D02*
X178064819Y-73996190D01*
X178064819Y-73996190D02*
X178112438Y-73900952D01*
X178112438Y-73900952D02*
X178160057Y-73853333D01*
X178160057Y-73853333D02*
X178255295Y-73805714D01*
X178255295Y-73805714D02*
X178445771Y-73758095D01*
X178445771Y-73758095D02*
X178683866Y-73758095D01*
X178683866Y-73758095D02*
X178874342Y-73805714D01*
X178874342Y-73805714D02*
X178969580Y-73853333D01*
X178969580Y-73853333D02*
X179017200Y-73900952D01*
X179017200Y-73900952D02*
X179064819Y-73996190D01*
X179064819Y-73996190D02*
X179064819Y-74091428D01*
X179064819Y-74091428D02*
X179017200Y-74186666D01*
X179017200Y-74186666D02*
X178969580Y-74234285D01*
X178969580Y-74234285D02*
X178874342Y-74281904D01*
X178874342Y-74281904D02*
X178683866Y-74329523D01*
X178683866Y-74329523D02*
X178445771Y-74329523D01*
X178445771Y-74329523D02*
X178255295Y-74281904D01*
X178255295Y-74281904D02*
X178160057Y-74234285D01*
X178160057Y-74234285D02*
X178112438Y-74186666D01*
X178112438Y-74186666D02*
X178064819Y-74091428D01*
X123927142Y-92459081D02*
X123879523Y-92506701D01*
X123879523Y-92506701D02*
X123736666Y-92554320D01*
X123736666Y-92554320D02*
X123641428Y-92554320D01*
X123641428Y-92554320D02*
X123498571Y-92506701D01*
X123498571Y-92506701D02*
X123403333Y-92411462D01*
X123403333Y-92411462D02*
X123355714Y-92316224D01*
X123355714Y-92316224D02*
X123308095Y-92125748D01*
X123308095Y-92125748D02*
X123308095Y-91982891D01*
X123308095Y-91982891D02*
X123355714Y-91792415D01*
X123355714Y-91792415D02*
X123403333Y-91697177D01*
X123403333Y-91697177D02*
X123498571Y-91601939D01*
X123498571Y-91601939D02*
X123641428Y-91554320D01*
X123641428Y-91554320D02*
X123736666Y-91554320D01*
X123736666Y-91554320D02*
X123879523Y-91601939D01*
X123879523Y-91601939D02*
X123927142Y-91649558D01*
X124308095Y-91649558D02*
X124355714Y-91601939D01*
X124355714Y-91601939D02*
X124450952Y-91554320D01*
X124450952Y-91554320D02*
X124689047Y-91554320D01*
X124689047Y-91554320D02*
X124784285Y-91601939D01*
X124784285Y-91601939D02*
X124831904Y-91649558D01*
X124831904Y-91649558D02*
X124879523Y-91744796D01*
X124879523Y-91744796D02*
X124879523Y-91840034D01*
X124879523Y-91840034D02*
X124831904Y-91982891D01*
X124831904Y-91982891D02*
X124260476Y-92554320D01*
X124260476Y-92554320D02*
X124879523Y-92554320D01*
X125736666Y-91887653D02*
X125736666Y-92554320D01*
X125498571Y-91506701D02*
X125260476Y-92220986D01*
X125260476Y-92220986D02*
X125879523Y-92220986D01*
X190380952Y-51789580D02*
X190333333Y-51837200D01*
X190333333Y-51837200D02*
X190190476Y-51884819D01*
X190190476Y-51884819D02*
X190095238Y-51884819D01*
X190095238Y-51884819D02*
X189952381Y-51837200D01*
X189952381Y-51837200D02*
X189857143Y-51741961D01*
X189857143Y-51741961D02*
X189809524Y-51646723D01*
X189809524Y-51646723D02*
X189761905Y-51456247D01*
X189761905Y-51456247D02*
X189761905Y-51313390D01*
X189761905Y-51313390D02*
X189809524Y-51122914D01*
X189809524Y-51122914D02*
X189857143Y-51027676D01*
X189857143Y-51027676D02*
X189952381Y-50932438D01*
X189952381Y-50932438D02*
X190095238Y-50884819D01*
X190095238Y-50884819D02*
X190190476Y-50884819D01*
X190190476Y-50884819D02*
X190333333Y-50932438D01*
X190333333Y-50932438D02*
X190380952Y-50980057D01*
X191333333Y-51884819D02*
X190761905Y-51884819D01*
X191047619Y-51884819D02*
X191047619Y-50884819D01*
X191047619Y-50884819D02*
X190952381Y-51027676D01*
X190952381Y-51027676D02*
X190857143Y-51122914D01*
X190857143Y-51122914D02*
X190761905Y-51170533D01*
X191952381Y-50884819D02*
X192047619Y-50884819D01*
X192047619Y-50884819D02*
X192142857Y-50932438D01*
X192142857Y-50932438D02*
X192190476Y-50980057D01*
X192190476Y-50980057D02*
X192238095Y-51075295D01*
X192238095Y-51075295D02*
X192285714Y-51265771D01*
X192285714Y-51265771D02*
X192285714Y-51503866D01*
X192285714Y-51503866D02*
X192238095Y-51694342D01*
X192238095Y-51694342D02*
X192190476Y-51789580D01*
X192190476Y-51789580D02*
X192142857Y-51837200D01*
X192142857Y-51837200D02*
X192047619Y-51884819D01*
X192047619Y-51884819D02*
X191952381Y-51884819D01*
X191952381Y-51884819D02*
X191857143Y-51837200D01*
X191857143Y-51837200D02*
X191809524Y-51789580D01*
X191809524Y-51789580D02*
X191761905Y-51694342D01*
X191761905Y-51694342D02*
X191714286Y-51503866D01*
X191714286Y-51503866D02*
X191714286Y-51265771D01*
X191714286Y-51265771D02*
X191761905Y-51075295D01*
X191761905Y-51075295D02*
X191809524Y-50980057D01*
X191809524Y-50980057D02*
X191857143Y-50932438D01*
X191857143Y-50932438D02*
X191952381Y-50884819D01*
X192904762Y-50884819D02*
X193000000Y-50884819D01*
X193000000Y-50884819D02*
X193095238Y-50932438D01*
X193095238Y-50932438D02*
X193142857Y-50980057D01*
X193142857Y-50980057D02*
X193190476Y-51075295D01*
X193190476Y-51075295D02*
X193238095Y-51265771D01*
X193238095Y-51265771D02*
X193238095Y-51503866D01*
X193238095Y-51503866D02*
X193190476Y-51694342D01*
X193190476Y-51694342D02*
X193142857Y-51789580D01*
X193142857Y-51789580D02*
X193095238Y-51837200D01*
X193095238Y-51837200D02*
X193000000Y-51884819D01*
X193000000Y-51884819D02*
X192904762Y-51884819D01*
X192904762Y-51884819D02*
X192809524Y-51837200D01*
X192809524Y-51837200D02*
X192761905Y-51789580D01*
X192761905Y-51789580D02*
X192714286Y-51694342D01*
X192714286Y-51694342D02*
X192666667Y-51503866D01*
X192666667Y-51503866D02*
X192666667Y-51265771D01*
X192666667Y-51265771D02*
X192714286Y-51075295D01*
X192714286Y-51075295D02*
X192761905Y-50980057D01*
X192761905Y-50980057D02*
X192809524Y-50932438D01*
X192809524Y-50932438D02*
X192904762Y-50884819D01*
X184355842Y-47309819D02*
X184022509Y-46833628D01*
X183784414Y-47309819D02*
X183784414Y-46309819D01*
X183784414Y-46309819D02*
X184165366Y-46309819D01*
X184165366Y-46309819D02*
X184260604Y-46357438D01*
X184260604Y-46357438D02*
X184308223Y-46405057D01*
X184308223Y-46405057D02*
X184355842Y-46500295D01*
X184355842Y-46500295D02*
X184355842Y-46643152D01*
X184355842Y-46643152D02*
X184308223Y-46738390D01*
X184308223Y-46738390D02*
X184260604Y-46786009D01*
X184260604Y-46786009D02*
X184165366Y-46833628D01*
X184165366Y-46833628D02*
X183784414Y-46833628D01*
X185212985Y-46643152D02*
X185212985Y-47309819D01*
X184974890Y-46262200D02*
X184736795Y-46976485D01*
X184736795Y-46976485D02*
X185355842Y-46976485D01*
X185784414Y-47309819D02*
X185974890Y-47309819D01*
X185974890Y-47309819D02*
X186070128Y-47262200D01*
X186070128Y-47262200D02*
X186117747Y-47214580D01*
X186117747Y-47214580D02*
X186212985Y-47071723D01*
X186212985Y-47071723D02*
X186260604Y-46881247D01*
X186260604Y-46881247D02*
X186260604Y-46500295D01*
X186260604Y-46500295D02*
X186212985Y-46405057D01*
X186212985Y-46405057D02*
X186165366Y-46357438D01*
X186165366Y-46357438D02*
X186070128Y-46309819D01*
X186070128Y-46309819D02*
X185879652Y-46309819D01*
X185879652Y-46309819D02*
X185784414Y-46357438D01*
X185784414Y-46357438D02*
X185736795Y-46405057D01*
X185736795Y-46405057D02*
X185689176Y-46500295D01*
X185689176Y-46500295D02*
X185689176Y-46738390D01*
X185689176Y-46738390D02*
X185736795Y-46833628D01*
X185736795Y-46833628D02*
X185784414Y-46881247D01*
X185784414Y-46881247D02*
X185879652Y-46928866D01*
X185879652Y-46928866D02*
X186070128Y-46928866D01*
X186070128Y-46928866D02*
X186165366Y-46881247D01*
X186165366Y-46881247D02*
X186212985Y-46833628D01*
X186212985Y-46833628D02*
X186260604Y-46738390D01*
X129369580Y-60184858D02*
X129417200Y-60232477D01*
X129417200Y-60232477D02*
X129464819Y-60375334D01*
X129464819Y-60375334D02*
X129464819Y-60470572D01*
X129464819Y-60470572D02*
X129417200Y-60613429D01*
X129417200Y-60613429D02*
X129321961Y-60708667D01*
X129321961Y-60708667D02*
X129226723Y-60756286D01*
X129226723Y-60756286D02*
X129036247Y-60803905D01*
X129036247Y-60803905D02*
X128893390Y-60803905D01*
X128893390Y-60803905D02*
X128702914Y-60756286D01*
X128702914Y-60756286D02*
X128607676Y-60708667D01*
X128607676Y-60708667D02*
X128512438Y-60613429D01*
X128512438Y-60613429D02*
X128464819Y-60470572D01*
X128464819Y-60470572D02*
X128464819Y-60375334D01*
X128464819Y-60375334D02*
X128512438Y-60232477D01*
X128512438Y-60232477D02*
X128560057Y-60184858D01*
X129464819Y-59232477D02*
X129464819Y-59803905D01*
X129464819Y-59518191D02*
X128464819Y-59518191D01*
X128464819Y-59518191D02*
X128607676Y-59613429D01*
X128607676Y-59613429D02*
X128702914Y-59708667D01*
X128702914Y-59708667D02*
X128750533Y-59803905D01*
X128798152Y-58375334D02*
X129464819Y-58375334D01*
X128417200Y-58613429D02*
X129131485Y-58851524D01*
X129131485Y-58851524D02*
X129131485Y-58232477D01*
X174834819Y-74501666D02*
X174358628Y-74834999D01*
X174834819Y-75073094D02*
X173834819Y-75073094D01*
X173834819Y-75073094D02*
X173834819Y-74692142D01*
X173834819Y-74692142D02*
X173882438Y-74596904D01*
X173882438Y-74596904D02*
X173930057Y-74549285D01*
X173930057Y-74549285D02*
X174025295Y-74501666D01*
X174025295Y-74501666D02*
X174168152Y-74501666D01*
X174168152Y-74501666D02*
X174263390Y-74549285D01*
X174263390Y-74549285D02*
X174311009Y-74596904D01*
X174311009Y-74596904D02*
X174358628Y-74692142D01*
X174358628Y-74692142D02*
X174358628Y-75073094D01*
X174263390Y-73930237D02*
X174215771Y-74025475D01*
X174215771Y-74025475D02*
X174168152Y-74073094D01*
X174168152Y-74073094D02*
X174072914Y-74120713D01*
X174072914Y-74120713D02*
X174025295Y-74120713D01*
X174025295Y-74120713D02*
X173930057Y-74073094D01*
X173930057Y-74073094D02*
X173882438Y-74025475D01*
X173882438Y-74025475D02*
X173834819Y-73930237D01*
X173834819Y-73930237D02*
X173834819Y-73739761D01*
X173834819Y-73739761D02*
X173882438Y-73644523D01*
X173882438Y-73644523D02*
X173930057Y-73596904D01*
X173930057Y-73596904D02*
X174025295Y-73549285D01*
X174025295Y-73549285D02*
X174072914Y-73549285D01*
X174072914Y-73549285D02*
X174168152Y-73596904D01*
X174168152Y-73596904D02*
X174215771Y-73644523D01*
X174215771Y-73644523D02*
X174263390Y-73739761D01*
X174263390Y-73739761D02*
X174263390Y-73930237D01*
X174263390Y-73930237D02*
X174311009Y-74025475D01*
X174311009Y-74025475D02*
X174358628Y-74073094D01*
X174358628Y-74073094D02*
X174453866Y-74120713D01*
X174453866Y-74120713D02*
X174644342Y-74120713D01*
X174644342Y-74120713D02*
X174739580Y-74073094D01*
X174739580Y-74073094D02*
X174787200Y-74025475D01*
X174787200Y-74025475D02*
X174834819Y-73930237D01*
X174834819Y-73930237D02*
X174834819Y-73739761D01*
X174834819Y-73739761D02*
X174787200Y-73644523D01*
X174787200Y-73644523D02*
X174739580Y-73596904D01*
X174739580Y-73596904D02*
X174644342Y-73549285D01*
X174644342Y-73549285D02*
X174453866Y-73549285D01*
X174453866Y-73549285D02*
X174358628Y-73596904D01*
X174358628Y-73596904D02*
X174311009Y-73644523D01*
X174311009Y-73644523D02*
X174263390Y-73739761D01*
X213153333Y-38409580D02*
X213105714Y-38457200D01*
X213105714Y-38457200D02*
X212962857Y-38504819D01*
X212962857Y-38504819D02*
X212867619Y-38504819D01*
X212867619Y-38504819D02*
X212724762Y-38457200D01*
X212724762Y-38457200D02*
X212629524Y-38361961D01*
X212629524Y-38361961D02*
X212581905Y-38266723D01*
X212581905Y-38266723D02*
X212534286Y-38076247D01*
X212534286Y-38076247D02*
X212534286Y-37933390D01*
X212534286Y-37933390D02*
X212581905Y-37742914D01*
X212581905Y-37742914D02*
X212629524Y-37647676D01*
X212629524Y-37647676D02*
X212724762Y-37552438D01*
X212724762Y-37552438D02*
X212867619Y-37504819D01*
X212867619Y-37504819D02*
X212962857Y-37504819D01*
X212962857Y-37504819D02*
X213105714Y-37552438D01*
X213105714Y-37552438D02*
X213153333Y-37600057D01*
X214010476Y-37838152D02*
X214010476Y-38504819D01*
X213772381Y-37457200D02*
X213534286Y-38171485D01*
X213534286Y-38171485D02*
X214153333Y-38171485D01*
X206144819Y-46238094D02*
X205144819Y-46238094D01*
X205144819Y-46238094D02*
X205144819Y-45999999D01*
X205144819Y-45999999D02*
X205192438Y-45857142D01*
X205192438Y-45857142D02*
X205287676Y-45761904D01*
X205287676Y-45761904D02*
X205382914Y-45714285D01*
X205382914Y-45714285D02*
X205573390Y-45666666D01*
X205573390Y-45666666D02*
X205716247Y-45666666D01*
X205716247Y-45666666D02*
X205906723Y-45714285D01*
X205906723Y-45714285D02*
X206001961Y-45761904D01*
X206001961Y-45761904D02*
X206097200Y-45857142D01*
X206097200Y-45857142D02*
X206144819Y-45999999D01*
X206144819Y-45999999D02*
X206144819Y-46238094D01*
X205240057Y-45285713D02*
X205192438Y-45238094D01*
X205192438Y-45238094D02*
X205144819Y-45142856D01*
X205144819Y-45142856D02*
X205144819Y-44904761D01*
X205144819Y-44904761D02*
X205192438Y-44809523D01*
X205192438Y-44809523D02*
X205240057Y-44761904D01*
X205240057Y-44761904D02*
X205335295Y-44714285D01*
X205335295Y-44714285D02*
X205430533Y-44714285D01*
X205430533Y-44714285D02*
X205573390Y-44761904D01*
X205573390Y-44761904D02*
X206144819Y-45333332D01*
X206144819Y-45333332D02*
X206144819Y-44714285D01*
X133137142Y-76229580D02*
X133089523Y-76277200D01*
X133089523Y-76277200D02*
X132946666Y-76324819D01*
X132946666Y-76324819D02*
X132851428Y-76324819D01*
X132851428Y-76324819D02*
X132708571Y-76277200D01*
X132708571Y-76277200D02*
X132613333Y-76181961D01*
X132613333Y-76181961D02*
X132565714Y-76086723D01*
X132565714Y-76086723D02*
X132518095Y-75896247D01*
X132518095Y-75896247D02*
X132518095Y-75753390D01*
X132518095Y-75753390D02*
X132565714Y-75562914D01*
X132565714Y-75562914D02*
X132613333Y-75467676D01*
X132613333Y-75467676D02*
X132708571Y-75372438D01*
X132708571Y-75372438D02*
X132851428Y-75324819D01*
X132851428Y-75324819D02*
X132946666Y-75324819D01*
X132946666Y-75324819D02*
X133089523Y-75372438D01*
X133089523Y-75372438D02*
X133137142Y-75420057D01*
X133518095Y-75420057D02*
X133565714Y-75372438D01*
X133565714Y-75372438D02*
X133660952Y-75324819D01*
X133660952Y-75324819D02*
X133899047Y-75324819D01*
X133899047Y-75324819D02*
X133994285Y-75372438D01*
X133994285Y-75372438D02*
X134041904Y-75420057D01*
X134041904Y-75420057D02*
X134089523Y-75515295D01*
X134089523Y-75515295D02*
X134089523Y-75610533D01*
X134089523Y-75610533D02*
X134041904Y-75753390D01*
X134041904Y-75753390D02*
X133470476Y-76324819D01*
X133470476Y-76324819D02*
X134089523Y-76324819D01*
X134708571Y-75324819D02*
X134803809Y-75324819D01*
X134803809Y-75324819D02*
X134899047Y-75372438D01*
X134899047Y-75372438D02*
X134946666Y-75420057D01*
X134946666Y-75420057D02*
X134994285Y-75515295D01*
X134994285Y-75515295D02*
X135041904Y-75705771D01*
X135041904Y-75705771D02*
X135041904Y-75943866D01*
X135041904Y-75943866D02*
X134994285Y-76134342D01*
X134994285Y-76134342D02*
X134946666Y-76229580D01*
X134946666Y-76229580D02*
X134899047Y-76277200D01*
X134899047Y-76277200D02*
X134803809Y-76324819D01*
X134803809Y-76324819D02*
X134708571Y-76324819D01*
X134708571Y-76324819D02*
X134613333Y-76277200D01*
X134613333Y-76277200D02*
X134565714Y-76229580D01*
X134565714Y-76229580D02*
X134518095Y-76134342D01*
X134518095Y-76134342D02*
X134470476Y-75943866D01*
X134470476Y-75943866D02*
X134470476Y-75705771D01*
X134470476Y-75705771D02*
X134518095Y-75515295D01*
X134518095Y-75515295D02*
X134565714Y-75420057D01*
X134565714Y-75420057D02*
X134613333Y-75372438D01*
X134613333Y-75372438D02*
X134708571Y-75324819D01*
X195859580Y-51417857D02*
X195907200Y-51465476D01*
X195907200Y-51465476D02*
X195954819Y-51608333D01*
X195954819Y-51608333D02*
X195954819Y-51703571D01*
X195954819Y-51703571D02*
X195907200Y-51846428D01*
X195907200Y-51846428D02*
X195811961Y-51941666D01*
X195811961Y-51941666D02*
X195716723Y-51989285D01*
X195716723Y-51989285D02*
X195526247Y-52036904D01*
X195526247Y-52036904D02*
X195383390Y-52036904D01*
X195383390Y-52036904D02*
X195192914Y-51989285D01*
X195192914Y-51989285D02*
X195097676Y-51941666D01*
X195097676Y-51941666D02*
X195002438Y-51846428D01*
X195002438Y-51846428D02*
X194954819Y-51703571D01*
X194954819Y-51703571D02*
X194954819Y-51608333D01*
X194954819Y-51608333D02*
X195002438Y-51465476D01*
X195002438Y-51465476D02*
X195050057Y-51417857D01*
X195050057Y-51036904D02*
X195002438Y-50989285D01*
X195002438Y-50989285D02*
X194954819Y-50894047D01*
X194954819Y-50894047D02*
X194954819Y-50655952D01*
X194954819Y-50655952D02*
X195002438Y-50560714D01*
X195002438Y-50560714D02*
X195050057Y-50513095D01*
X195050057Y-50513095D02*
X195145295Y-50465476D01*
X195145295Y-50465476D02*
X195240533Y-50465476D01*
X195240533Y-50465476D02*
X195383390Y-50513095D01*
X195383390Y-50513095D02*
X195954819Y-51084523D01*
X195954819Y-51084523D02*
X195954819Y-50465476D01*
X195383390Y-49894047D02*
X195335771Y-49989285D01*
X195335771Y-49989285D02*
X195288152Y-50036904D01*
X195288152Y-50036904D02*
X195192914Y-50084523D01*
X195192914Y-50084523D02*
X195145295Y-50084523D01*
X195145295Y-50084523D02*
X195050057Y-50036904D01*
X195050057Y-50036904D02*
X195002438Y-49989285D01*
X195002438Y-49989285D02*
X194954819Y-49894047D01*
X194954819Y-49894047D02*
X194954819Y-49703571D01*
X194954819Y-49703571D02*
X195002438Y-49608333D01*
X195002438Y-49608333D02*
X195050057Y-49560714D01*
X195050057Y-49560714D02*
X195145295Y-49513095D01*
X195145295Y-49513095D02*
X195192914Y-49513095D01*
X195192914Y-49513095D02*
X195288152Y-49560714D01*
X195288152Y-49560714D02*
X195335771Y-49608333D01*
X195335771Y-49608333D02*
X195383390Y-49703571D01*
X195383390Y-49703571D02*
X195383390Y-49894047D01*
X195383390Y-49894047D02*
X195431009Y-49989285D01*
X195431009Y-49989285D02*
X195478628Y-50036904D01*
X195478628Y-50036904D02*
X195573866Y-50084523D01*
X195573866Y-50084523D02*
X195764342Y-50084523D01*
X195764342Y-50084523D02*
X195859580Y-50036904D01*
X195859580Y-50036904D02*
X195907200Y-49989285D01*
X195907200Y-49989285D02*
X195954819Y-49894047D01*
X195954819Y-49894047D02*
X195954819Y-49703571D01*
X195954819Y-49703571D02*
X195907200Y-49608333D01*
X195907200Y-49608333D02*
X195859580Y-49560714D01*
X195859580Y-49560714D02*
X195764342Y-49513095D01*
X195764342Y-49513095D02*
X195573866Y-49513095D01*
X195573866Y-49513095D02*
X195478628Y-49560714D01*
X195478628Y-49560714D02*
X195431009Y-49608333D01*
X195431009Y-49608333D02*
X195383390Y-49703571D01*
D11*
X187330237Y-69164318D02*
X187330237Y-67894318D01*
X188660714Y-69043365D02*
X188600238Y-69103842D01*
X188600238Y-69103842D02*
X188418809Y-69164318D01*
X188418809Y-69164318D02*
X188297857Y-69164318D01*
X188297857Y-69164318D02*
X188116428Y-69103842D01*
X188116428Y-69103842D02*
X187995476Y-68982889D01*
X187995476Y-68982889D02*
X187934999Y-68861937D01*
X187934999Y-68861937D02*
X187874523Y-68620032D01*
X187874523Y-68620032D02*
X187874523Y-68438603D01*
X187874523Y-68438603D02*
X187934999Y-68196699D01*
X187934999Y-68196699D02*
X187995476Y-68075746D01*
X187995476Y-68075746D02*
X188116428Y-67954794D01*
X188116428Y-67954794D02*
X188297857Y-67894318D01*
X188297857Y-67894318D02*
X188418809Y-67894318D01*
X188418809Y-67894318D02*
X188600238Y-67954794D01*
X188600238Y-67954794D02*
X188660714Y-68015270D01*
X189870238Y-69164318D02*
X189144523Y-69164318D01*
X189507380Y-69164318D02*
X189507380Y-67894318D01*
X189507380Y-67894318D02*
X189386428Y-68075746D01*
X189386428Y-68075746D02*
X189265476Y-68196699D01*
X189265476Y-68196699D02*
X189144523Y-68257175D01*
D10*
X195994819Y-90531666D02*
X195518628Y-90864999D01*
X195994819Y-91103094D02*
X194994819Y-91103094D01*
X194994819Y-91103094D02*
X194994819Y-90722142D01*
X194994819Y-90722142D02*
X195042438Y-90626904D01*
X195042438Y-90626904D02*
X195090057Y-90579285D01*
X195090057Y-90579285D02*
X195185295Y-90531666D01*
X195185295Y-90531666D02*
X195328152Y-90531666D01*
X195328152Y-90531666D02*
X195423390Y-90579285D01*
X195423390Y-90579285D02*
X195471009Y-90626904D01*
X195471009Y-90626904D02*
X195518628Y-90722142D01*
X195518628Y-90722142D02*
X195518628Y-91103094D01*
X194994819Y-90198332D02*
X194994819Y-89579285D01*
X194994819Y-89579285D02*
X195375771Y-89912618D01*
X195375771Y-89912618D02*
X195375771Y-89769761D01*
X195375771Y-89769761D02*
X195423390Y-89674523D01*
X195423390Y-89674523D02*
X195471009Y-89626904D01*
X195471009Y-89626904D02*
X195566247Y-89579285D01*
X195566247Y-89579285D02*
X195804342Y-89579285D01*
X195804342Y-89579285D02*
X195899580Y-89626904D01*
X195899580Y-89626904D02*
X195947200Y-89674523D01*
X195947200Y-89674523D02*
X195994819Y-89769761D01*
X195994819Y-89769761D02*
X195994819Y-90055475D01*
X195994819Y-90055475D02*
X195947200Y-90150713D01*
X195947200Y-90150713D02*
X195899580Y-90198332D01*
X204404819Y-40666666D02*
X203928628Y-40999999D01*
X204404819Y-41238094D02*
X203404819Y-41238094D01*
X203404819Y-41238094D02*
X203404819Y-40857142D01*
X203404819Y-40857142D02*
X203452438Y-40761904D01*
X203452438Y-40761904D02*
X203500057Y-40714285D01*
X203500057Y-40714285D02*
X203595295Y-40666666D01*
X203595295Y-40666666D02*
X203738152Y-40666666D01*
X203738152Y-40666666D02*
X203833390Y-40714285D01*
X203833390Y-40714285D02*
X203881009Y-40761904D01*
X203881009Y-40761904D02*
X203928628Y-40857142D01*
X203928628Y-40857142D02*
X203928628Y-41238094D01*
X203404819Y-39761904D02*
X203404819Y-40238094D01*
X203404819Y-40238094D02*
X203881009Y-40285713D01*
X203881009Y-40285713D02*
X203833390Y-40238094D01*
X203833390Y-40238094D02*
X203785771Y-40142856D01*
X203785771Y-40142856D02*
X203785771Y-39904761D01*
X203785771Y-39904761D02*
X203833390Y-39809523D01*
X203833390Y-39809523D02*
X203881009Y-39761904D01*
X203881009Y-39761904D02*
X203976247Y-39714285D01*
X203976247Y-39714285D02*
X204214342Y-39714285D01*
X204214342Y-39714285D02*
X204309580Y-39761904D01*
X204309580Y-39761904D02*
X204357200Y-39809523D01*
X204357200Y-39809523D02*
X204404819Y-39904761D01*
X204404819Y-39904761D02*
X204404819Y-40142856D01*
X204404819Y-40142856D02*
X204357200Y-40238094D01*
X204357200Y-40238094D02*
X204309580Y-40285713D01*
X135347142Y-71609580D02*
X135299523Y-71657200D01*
X135299523Y-71657200D02*
X135156666Y-71704819D01*
X135156666Y-71704819D02*
X135061428Y-71704819D01*
X135061428Y-71704819D02*
X134918571Y-71657200D01*
X134918571Y-71657200D02*
X134823333Y-71561961D01*
X134823333Y-71561961D02*
X134775714Y-71466723D01*
X134775714Y-71466723D02*
X134728095Y-71276247D01*
X134728095Y-71276247D02*
X134728095Y-71133390D01*
X134728095Y-71133390D02*
X134775714Y-70942914D01*
X134775714Y-70942914D02*
X134823333Y-70847676D01*
X134823333Y-70847676D02*
X134918571Y-70752438D01*
X134918571Y-70752438D02*
X135061428Y-70704819D01*
X135061428Y-70704819D02*
X135156666Y-70704819D01*
X135156666Y-70704819D02*
X135299523Y-70752438D01*
X135299523Y-70752438D02*
X135347142Y-70800057D01*
X135728095Y-70800057D02*
X135775714Y-70752438D01*
X135775714Y-70752438D02*
X135870952Y-70704819D01*
X135870952Y-70704819D02*
X136109047Y-70704819D01*
X136109047Y-70704819D02*
X136204285Y-70752438D01*
X136204285Y-70752438D02*
X136251904Y-70800057D01*
X136251904Y-70800057D02*
X136299523Y-70895295D01*
X136299523Y-70895295D02*
X136299523Y-70990533D01*
X136299523Y-70990533D02*
X136251904Y-71133390D01*
X136251904Y-71133390D02*
X135680476Y-71704819D01*
X135680476Y-71704819D02*
X136299523Y-71704819D01*
X136632857Y-70704819D02*
X137251904Y-70704819D01*
X137251904Y-70704819D02*
X136918571Y-71085771D01*
X136918571Y-71085771D02*
X137061428Y-71085771D01*
X137061428Y-71085771D02*
X137156666Y-71133390D01*
X137156666Y-71133390D02*
X137204285Y-71181009D01*
X137204285Y-71181009D02*
X137251904Y-71276247D01*
X137251904Y-71276247D02*
X137251904Y-71514342D01*
X137251904Y-71514342D02*
X137204285Y-71609580D01*
X137204285Y-71609580D02*
X137156666Y-71657200D01*
X137156666Y-71657200D02*
X137061428Y-71704819D01*
X137061428Y-71704819D02*
X136775714Y-71704819D01*
X136775714Y-71704819D02*
X136680476Y-71657200D01*
X136680476Y-71657200D02*
X136632857Y-71609580D01*
X213033333Y-90489580D02*
X212985714Y-90537200D01*
X212985714Y-90537200D02*
X212842857Y-90584819D01*
X212842857Y-90584819D02*
X212747619Y-90584819D01*
X212747619Y-90584819D02*
X212604762Y-90537200D01*
X212604762Y-90537200D02*
X212509524Y-90441961D01*
X212509524Y-90441961D02*
X212461905Y-90346723D01*
X212461905Y-90346723D02*
X212414286Y-90156247D01*
X212414286Y-90156247D02*
X212414286Y-90013390D01*
X212414286Y-90013390D02*
X212461905Y-89822914D01*
X212461905Y-89822914D02*
X212509524Y-89727676D01*
X212509524Y-89727676D02*
X212604762Y-89632438D01*
X212604762Y-89632438D02*
X212747619Y-89584819D01*
X212747619Y-89584819D02*
X212842857Y-89584819D01*
X212842857Y-89584819D02*
X212985714Y-89632438D01*
X212985714Y-89632438D02*
X213033333Y-89680057D01*
X213985714Y-90584819D02*
X213414286Y-90584819D01*
X213700000Y-90584819D02*
X213700000Y-89584819D01*
X213700000Y-89584819D02*
X213604762Y-89727676D01*
X213604762Y-89727676D02*
X213509524Y-89822914D01*
X213509524Y-89822914D02*
X213414286Y-89870533D01*
X168223333Y-66139580D02*
X168175714Y-66187200D01*
X168175714Y-66187200D02*
X168032857Y-66234819D01*
X168032857Y-66234819D02*
X167937619Y-66234819D01*
X167937619Y-66234819D02*
X167794762Y-66187200D01*
X167794762Y-66187200D02*
X167699524Y-66091961D01*
X167699524Y-66091961D02*
X167651905Y-65996723D01*
X167651905Y-65996723D02*
X167604286Y-65806247D01*
X167604286Y-65806247D02*
X167604286Y-65663390D01*
X167604286Y-65663390D02*
X167651905Y-65472914D01*
X167651905Y-65472914D02*
X167699524Y-65377676D01*
X167699524Y-65377676D02*
X167794762Y-65282438D01*
X167794762Y-65282438D02*
X167937619Y-65234819D01*
X167937619Y-65234819D02*
X168032857Y-65234819D01*
X168032857Y-65234819D02*
X168175714Y-65282438D01*
X168175714Y-65282438D02*
X168223333Y-65330057D01*
X168699524Y-66234819D02*
X168890000Y-66234819D01*
X168890000Y-66234819D02*
X168985238Y-66187200D01*
X168985238Y-66187200D02*
X169032857Y-66139580D01*
X169032857Y-66139580D02*
X169128095Y-65996723D01*
X169128095Y-65996723D02*
X169175714Y-65806247D01*
X169175714Y-65806247D02*
X169175714Y-65425295D01*
X169175714Y-65425295D02*
X169128095Y-65330057D01*
X169128095Y-65330057D02*
X169080476Y-65282438D01*
X169080476Y-65282438D02*
X168985238Y-65234819D01*
X168985238Y-65234819D02*
X168794762Y-65234819D01*
X168794762Y-65234819D02*
X168699524Y-65282438D01*
X168699524Y-65282438D02*
X168651905Y-65330057D01*
X168651905Y-65330057D02*
X168604286Y-65425295D01*
X168604286Y-65425295D02*
X168604286Y-65663390D01*
X168604286Y-65663390D02*
X168651905Y-65758628D01*
X168651905Y-65758628D02*
X168699524Y-65806247D01*
X168699524Y-65806247D02*
X168794762Y-65853866D01*
X168794762Y-65853866D02*
X168985238Y-65853866D01*
X168985238Y-65853866D02*
X169080476Y-65806247D01*
X169080476Y-65806247D02*
X169128095Y-65758628D01*
X169128095Y-65758628D02*
X169175714Y-65663390D01*
X202333333Y-90954819D02*
X202000000Y-90478628D01*
X201761905Y-90954819D02*
X201761905Y-89954819D01*
X201761905Y-89954819D02*
X202142857Y-89954819D01*
X202142857Y-89954819D02*
X202238095Y-90002438D01*
X202238095Y-90002438D02*
X202285714Y-90050057D01*
X202285714Y-90050057D02*
X202333333Y-90145295D01*
X202333333Y-90145295D02*
X202333333Y-90288152D01*
X202333333Y-90288152D02*
X202285714Y-90383390D01*
X202285714Y-90383390D02*
X202238095Y-90431009D01*
X202238095Y-90431009D02*
X202142857Y-90478628D01*
X202142857Y-90478628D02*
X201761905Y-90478628D01*
X202714286Y-90050057D02*
X202761905Y-90002438D01*
X202761905Y-90002438D02*
X202857143Y-89954819D01*
X202857143Y-89954819D02*
X203095238Y-89954819D01*
X203095238Y-89954819D02*
X203190476Y-90002438D01*
X203190476Y-90002438D02*
X203238095Y-90050057D01*
X203238095Y-90050057D02*
X203285714Y-90145295D01*
X203285714Y-90145295D02*
X203285714Y-90240533D01*
X203285714Y-90240533D02*
X203238095Y-90383390D01*
X203238095Y-90383390D02*
X202666667Y-90954819D01*
X202666667Y-90954819D02*
X203285714Y-90954819D01*
X195689819Y-41541666D02*
X195213628Y-41874999D01*
X195689819Y-42113094D02*
X194689819Y-42113094D01*
X194689819Y-42113094D02*
X194689819Y-41732142D01*
X194689819Y-41732142D02*
X194737438Y-41636904D01*
X194737438Y-41636904D02*
X194785057Y-41589285D01*
X194785057Y-41589285D02*
X194880295Y-41541666D01*
X194880295Y-41541666D02*
X195023152Y-41541666D01*
X195023152Y-41541666D02*
X195118390Y-41589285D01*
X195118390Y-41589285D02*
X195166009Y-41636904D01*
X195166009Y-41636904D02*
X195213628Y-41732142D01*
X195213628Y-41732142D02*
X195213628Y-42113094D01*
X194689819Y-40684523D02*
X194689819Y-40874999D01*
X194689819Y-40874999D02*
X194737438Y-40970237D01*
X194737438Y-40970237D02*
X194785057Y-41017856D01*
X194785057Y-41017856D02*
X194927914Y-41113094D01*
X194927914Y-41113094D02*
X195118390Y-41160713D01*
X195118390Y-41160713D02*
X195499342Y-41160713D01*
X195499342Y-41160713D02*
X195594580Y-41113094D01*
X195594580Y-41113094D02*
X195642200Y-41065475D01*
X195642200Y-41065475D02*
X195689819Y-40970237D01*
X195689819Y-40970237D02*
X195689819Y-40779761D01*
X195689819Y-40779761D02*
X195642200Y-40684523D01*
X195642200Y-40684523D02*
X195594580Y-40636904D01*
X195594580Y-40636904D02*
X195499342Y-40589285D01*
X195499342Y-40589285D02*
X195261247Y-40589285D01*
X195261247Y-40589285D02*
X195166009Y-40636904D01*
X195166009Y-40636904D02*
X195118390Y-40684523D01*
X195118390Y-40684523D02*
X195070771Y-40779761D01*
X195070771Y-40779761D02*
X195070771Y-40970237D01*
X195070771Y-40970237D02*
X195118390Y-41065475D01*
X195118390Y-41065475D02*
X195166009Y-41113094D01*
X195166009Y-41113094D02*
X195261247Y-41160713D01*
D12*
%TO.C,C12*%
X186760000Y-72489420D02*
X186760000Y-72770580D01*
X185740000Y-72489420D02*
X185740000Y-72770580D01*
%TO.C,U5*%
X192952500Y-94940000D02*
X194772500Y-94940000D01*
X192952500Y-94990000D02*
X192952500Y-94940000D01*
X192952500Y-96890000D02*
X192952500Y-96110000D01*
X192952500Y-98060000D02*
X192952500Y-98010000D01*
X194772500Y-94940000D02*
X194772500Y-94990000D01*
X194772500Y-98010000D02*
X194772500Y-98060000D01*
X194772500Y-98060000D02*
X192952500Y-98060000D01*
X195552500Y-98340000D02*
X195072500Y-98340000D01*
X195312500Y-98010000D01*
X195552500Y-98340000D01*
G36*
X195552500Y-98340000D02*
G01*
X195072500Y-98340000D01*
X195312500Y-98010000D01*
X195552500Y-98340000D01*
G37*
%TO.C,R16*%
X128357258Y-98577001D02*
X127882742Y-98577001D01*
X128357258Y-99622001D02*
X127882742Y-99622001D01*
%TO.C,J1*%
X151450000Y-39800000D02*
X151450000Y-100880000D01*
X151450000Y-100880000D02*
X163570000Y-100880000D01*
X156510000Y-39800000D02*
X151450000Y-39800000D01*
X163570000Y-39800000D02*
X158510000Y-39800000D01*
X163570000Y-100880000D02*
X163570000Y-39800000D01*
X148450000Y-39740000D02*
X166570000Y-39740000D01*
X166570000Y-100940000D01*
X148450000Y-100940000D01*
X148450000Y-39740000D01*
X158510000Y-39800000D02*
G75*
G02*
X156510000Y-39800000I-1000000J0D01*
G01*
%TO.C,R13*%
X128222500Y-67869259D02*
X128222500Y-67394743D01*
X129267500Y-67869259D02*
X129267500Y-67394743D01*
%TO.C,C21*%
X130235000Y-67772581D02*
X130235000Y-67491421D01*
X131255000Y-67772581D02*
X131255000Y-67491421D01*
D13*
%TO.C,SW1*%
X135333000Y-35445001D02*
X135333000Y-45859001D01*
X135333000Y-45859001D02*
X140667000Y-45859001D01*
X140667000Y-35445001D02*
X135333000Y-35445001D01*
X140667000Y-45859001D02*
X140667000Y-35445001D01*
D12*
%TO.C,C17*%
X139859420Y-48902001D02*
X140140580Y-48902001D01*
X139859420Y-49922001D02*
X140140580Y-49922001D01*
%TO.C,R14*%
X132832742Y-69109501D02*
X133307258Y-69109501D01*
X132832742Y-70154501D02*
X133307258Y-70154501D01*
%TO.C,C5*%
X201265000Y-42738748D02*
X201265000Y-43261252D01*
X202735000Y-42738748D02*
X202735000Y-43261252D01*
%TO.C,U8*%
X126560000Y-97298753D02*
X126560000Y-95489501D01*
X128780000Y-95489501D02*
X128780000Y-97709501D01*
X126550000Y-97589501D02*
X126360000Y-97729501D01*
X126360000Y-97449501D01*
X126550000Y-97589501D01*
G36*
X126550000Y-97589501D02*
G01*
X126360000Y-97729501D01*
X126360000Y-97449501D01*
X126550000Y-97589501D01*
G37*
%TO.C,C2*%
X205311252Y-91765000D02*
X204788748Y-91765000D01*
X205311252Y-93235000D02*
X204788748Y-93235000D01*
%TO.C,R10*%
X189987742Y-95027500D02*
X190462258Y-95027500D01*
X189987742Y-96072500D02*
X190462258Y-96072500D01*
%TO.C,C11*%
X184881252Y-61865000D02*
X184358748Y-61865000D01*
X184881252Y-63335000D02*
X184358748Y-63335000D01*
D13*
%TO.C,J2*%
X124417401Y-35253301D02*
X124417401Y-50010701D01*
X124417401Y-50010701D02*
X133663001Y-50010701D01*
X133663001Y-35253301D02*
X124417401Y-35253301D01*
X133663001Y-50010701D02*
X133663001Y-35253301D01*
D14*
X126627000Y-49080003D02*
G75*
G02*
X125865000Y-49080003I-381000J0D01*
G01*
X125865000Y-49080003D02*
G75*
G02*
X126627000Y-49080003I381000J0D01*
G01*
D12*
%TO.C,C19*%
X125483748Y-68897001D02*
X126006252Y-68897001D01*
X125483748Y-70367001D02*
X126006252Y-70367001D01*
%TO.C,C18*%
X139859420Y-46902001D02*
X140140580Y-46902001D01*
X139859420Y-47922001D02*
X140140580Y-47922001D01*
%TO.C,C31*%
X189035000Y-64871252D02*
X189035000Y-64348748D01*
X190505000Y-64871252D02*
X190505000Y-64348748D01*
D13*
%TO.C,U2*%
X199071301Y-95614999D02*
X202221299Y-95614999D01*
X202221299Y-92465001D02*
X199071301Y-92465001D01*
D12*
%TO.C,C25*%
X124238748Y-98265000D02*
X124761252Y-98265000D01*
X124238748Y-99735000D02*
X124761252Y-99735000D01*
%TO.C,C6*%
X192990000Y-43915580D02*
X192990000Y-43634420D01*
X194010000Y-43915580D02*
X194010000Y-43634420D01*
%TO.C,R12*%
X131367258Y-78307500D02*
X130892742Y-78307500D01*
X131367258Y-79352500D02*
X130892742Y-79352500D01*
D13*
%TO.C,U1*%
X176638100Y-67306347D02*
X176638100Y-70053653D01*
X181641900Y-70053653D02*
X181641900Y-67306347D01*
X181641900Y-68984800D02*
G75*
G02*
X181641900Y-68375200I0J304800D01*
G01*
D12*
%TO.C,R7*%
X173807500Y-66132742D02*
X173807500Y-66607258D01*
X174852500Y-66132742D02*
X174852500Y-66607258D01*
%TO.C,C99*%
X193590580Y-98540000D02*
X193309420Y-98540000D01*
X193590580Y-99560000D02*
X193309420Y-99560000D01*
%TO.C,R9*%
X185087500Y-64992742D02*
X185087500Y-65467258D01*
X186132500Y-64992742D02*
X186132500Y-65467258D01*
D15*
%TO.C,U4*%
X168715000Y-68630001D02*
X170889999Y-68630001D01*
X169915000Y-71729999D02*
X170889999Y-71729999D01*
D12*
%TO.C,R4*%
X210302500Y-38262742D02*
X210302500Y-38737258D01*
X211347500Y-38262742D02*
X211347500Y-38737258D01*
%TO.C,C30*%
X187285000Y-72578748D02*
X187285000Y-73101252D01*
X188755000Y-72578748D02*
X188755000Y-73101252D01*
%TO.C,C27*%
X206990000Y-67859420D02*
X206990000Y-68140580D01*
X208010000Y-67859420D02*
X208010000Y-68140580D01*
D13*
%TO.C,U7*%
X127063599Y-72439750D02*
X127063599Y-75792550D01*
X130416399Y-75792550D02*
X130416399Y-72439750D01*
D16*
G36*
X127930498Y-70979250D02*
G01*
X127549498Y-70979250D01*
X127549498Y-70725250D01*
X127930498Y-70725250D01*
X127930498Y-70979250D01*
G37*
D12*
%TO.C,C8*%
X174068748Y-68225000D02*
X174591252Y-68225000D01*
X174068748Y-69695000D02*
X174591252Y-69695000D01*
D13*
%TO.C,U3*%
X197031301Y-47074999D02*
X200181299Y-47074999D01*
X200181299Y-43925001D02*
X197031301Y-43925001D01*
D12*
%TO.C,C15*%
X136301252Y-46897001D02*
X135778748Y-46897001D01*
X136301252Y-48367001D02*
X135778748Y-48367001D01*
%TO.C,D1*%
X207425307Y-98311018D02*
X208188982Y-99074693D01*
X208188982Y-99074693D02*
X209002156Y-98261520D01*
X208238480Y-97497844D02*
X207425307Y-98311018D01*
X208238480Y-97497844D02*
G75*
G02*
X209002156Y-98261520I3761520J2997844D01*
G01*
%TO.C,C16*%
X139859420Y-50902001D02*
X140140580Y-50902001D01*
X139859420Y-51922001D02*
X140140580Y-51922001D01*
%TO.C,C29*%
X196990000Y-96359420D02*
X196990000Y-96640580D01*
X198010000Y-96359420D02*
X198010000Y-96640580D01*
%TO.C,L1*%
X123591000Y-82786001D02*
X123591000Y-78478001D01*
X127899000Y-78478001D02*
X127899000Y-82786001D01*
%TO.C,C26*%
X213490000Y-65140580D02*
X213490000Y-64859420D01*
X214510000Y-65140580D02*
X214510000Y-64859420D01*
%TO.C,C7*%
X170839420Y-72450000D02*
X171120580Y-72450000D01*
X170839420Y-73470000D02*
X171120580Y-73470000D01*
%TO.C,C22*%
X128510000Y-83045993D02*
X128510000Y-82523489D01*
X129980000Y-83045993D02*
X129980000Y-82523489D01*
%TO.C,C4*%
X182390000Y-68559420D02*
X182390000Y-68840580D01*
X183410000Y-68559420D02*
X183410000Y-68840580D01*
%TO.C,U6*%
X190727500Y-45890000D02*
X192547500Y-45890000D01*
X190727500Y-45940000D02*
X190727500Y-45890000D01*
X190727500Y-47840000D02*
X190727500Y-47060000D01*
X190727500Y-49010000D02*
X190727500Y-48960000D01*
X192547500Y-45890000D02*
X192547500Y-45940000D01*
X192547500Y-48960000D02*
X192547500Y-49010000D01*
X192547500Y-49010000D02*
X190727500Y-49010000D01*
X193327500Y-49290000D02*
X192847500Y-49290000D01*
X193087500Y-48960000D01*
X193327500Y-49290000D01*
G36*
X193327500Y-49290000D02*
G01*
X192847500Y-49290000D01*
X193087500Y-48960000D01*
X193327500Y-49290000D01*
G37*
%TO.C,R1*%
X210017500Y-87627742D02*
X210017500Y-88102258D01*
X211062500Y-87627742D02*
X211062500Y-88102258D01*
%TO.C,C3*%
X196705000Y-92855580D02*
X196705000Y-92574420D01*
X197725000Y-92855580D02*
X197725000Y-92574420D01*
%TO.C,C13*%
X187460000Y-64990580D02*
X187460000Y-64709420D01*
X188480000Y-64990580D02*
X188480000Y-64709420D01*
%TO.C,R15*%
X133317258Y-72187500D02*
X132842742Y-72187500D01*
X133317258Y-73232500D02*
X132842742Y-73232500D01*
D13*
%TO.C,U9*%
X209796550Y-68574800D02*
X211650750Y-68574800D01*
X211650750Y-65425200D02*
X209796550Y-65425200D01*
D12*
%TO.C,C10*%
X175995000Y-74448748D02*
X175995000Y-74971252D01*
X177465000Y-74448748D02*
X177465000Y-74971252D01*
%TO.C,C24*%
X125331252Y-93364501D02*
X124808748Y-93364501D01*
X125331252Y-94834501D02*
X124808748Y-94834501D01*
%TO.C,C100*%
X191640580Y-49490000D02*
X191359420Y-49490000D01*
X191640580Y-50510000D02*
X191359420Y-50510000D01*
%TO.C,R49*%
X187762742Y-45977500D02*
X188237258Y-45977500D01*
X187762742Y-47022500D02*
X188237258Y-47022500D01*
%TO.C,C14*%
X130375748Y-52432001D02*
X127544252Y-52432001D01*
X130375748Y-57652001D02*
X127544252Y-57652001D01*
%TO.C,R8*%
X173787500Y-72072258D02*
X173787500Y-71597742D01*
X174832500Y-72072258D02*
X174832500Y-71597742D01*
%TO.C,C4*%
X213530580Y-38990000D02*
X213249420Y-38990000D01*
X213530580Y-40010000D02*
X213249420Y-40010000D01*
%TO.C,D2*%
X206925307Y-49311018D02*
X207688982Y-50074693D01*
X207688982Y-50074693D02*
X208502156Y-49261520D01*
X207738480Y-48497844D02*
X206925307Y-49311018D01*
X207738480Y-48497844D02*
G75*
G02*
X208502156Y-49261520I3761520J2997844D01*
G01*
%TO.C,C20*%
X131140000Y-75834420D02*
X131140000Y-76115580D01*
X132160000Y-75834420D02*
X132160000Y-76115580D01*
%TO.C,C28*%
X194990000Y-47634420D02*
X194990000Y-47915580D01*
X196010000Y-47634420D02*
X196010000Y-47915580D01*
D17*
%TO.C,IC1*%
X186795000Y-67090000D02*
G75*
G02*
X186545000Y-67090000I-125000J0D01*
G01*
X186545000Y-67090000D02*
G75*
G02*
X186795000Y-67090000I125000J0D01*
G01*
D12*
%TO.C,R3*%
X195017500Y-93102258D02*
X195017500Y-92627742D01*
X196062500Y-93102258D02*
X196062500Y-92627742D01*
%TO.C,R5*%
X203427500Y-42762742D02*
X203427500Y-43237258D01*
X204472500Y-42762742D02*
X204472500Y-43237258D01*
%TO.C,C23*%
X133210580Y-70670000D02*
X132929420Y-70670000D01*
X133210580Y-71690000D02*
X132929420Y-71690000D01*
%TO.C,C1*%
X213340580Y-88190000D02*
X213059420Y-88190000D01*
X213340580Y-89210000D02*
X213059420Y-89210000D01*
%TO.C,C9*%
X171711252Y-65155000D02*
X171188748Y-65155000D01*
X171711252Y-66625000D02*
X171188748Y-66625000D01*
%TO.C,R2*%
X204762742Y-89977500D02*
X205237258Y-89977500D01*
X204762742Y-91022500D02*
X205237258Y-91022500D01*
%TO.C,R6*%
X194477500Y-44012258D02*
X194477500Y-43537742D01*
X195522500Y-44012258D02*
X195522500Y-43537742D01*
%TD*%
M02*
