%TF.GenerationSoftware,KiCad,Pcbnew,9.0.7*%
%TF.CreationDate,2026-05-05T14:16:49-05:00*%
%TF.ProjectId,Polarimeter,506f6c61-7269-46d6-9574-65722e6b6963,rev?*%
%TF.SameCoordinates,Original*%
%TF.FileFunction,Copper,L3,Inr*%
%TF.FilePolarity,Positive*%
%FSLAX46Y46*%
G04 Gerber Fmt 4.6, Leading zero omitted, Abs format (unit mm)*
G04 Created by KiCad (PCBNEW 9.0.7) date 2026-05-05 14:16:49*
%MOMM*%
%LPD*%
G01*
G04 APERTURE LIST*
G04 Aperture macros list*
%AMRoundRect*
0 Rectangle with rounded corners*
0 $1 Rounding radius*
0 $2 $3 $4 $5 $6 $7 $8 $9 X,Y pos of 4 corners*
0 Add a 4 corners polygon primitive as box body*
4,1,4,$2,$3,$4,$5,$6,$7,$8,$9,$2,$3,0*
0 Add four circle primitives for the rounded corners*
1,1,$1+$1,$2,$3*
1,1,$1+$1,$4,$5*
1,1,$1+$1,$6,$7*
1,1,$1+$1,$8,$9*
0 Add four rect primitives between the rounded corners*
20,1,$1+$1,$2,$3,$4,$5,0*
20,1,$1+$1,$4,$5,$6,$7,0*
20,1,$1+$1,$6,$7,$8,$9,0*
20,1,$1+$1,$8,$9,$2,$3,0*%
G04 Aperture macros list end*
%TA.AperFunction,ComponentPad*%
%ADD10RoundRect,0.250000X-0.950000X-0.550000X0.950000X-0.550000X0.950000X0.550000X-0.950000X0.550000X0*%
%TD*%
%TA.AperFunction,ComponentPad*%
%ADD11O,2.400000X1.600000*%
%TD*%
%TA.AperFunction,ComponentPad*%
%ADD12R,1.600200X1.600200*%
%TD*%
%TA.AperFunction,ComponentPad*%
%ADD13C,1.600200*%
%TD*%
%TA.AperFunction,HeatsinkPad*%
%ADD14C,0.500000*%
%TD*%
%TA.AperFunction,ComponentPad*%
%ADD15O,4.200000X1.700000*%
%TD*%
%TA.AperFunction,ComponentPad*%
%ADD16C,0.508000*%
%TD*%
%TA.AperFunction,ComponentPad*%
%ADD17O,1.200000X1.600000*%
%TD*%
%TA.AperFunction,ComponentPad*%
%ADD18C,1.200000*%
%TD*%
%TA.AperFunction,ViaPad*%
%ADD19C,0.600000*%
%TD*%
%TA.AperFunction,ViaPad*%
%ADD20C,0.480000*%
%TD*%
G04 APERTURE END LIST*
D10*
%TO.N,GND*%
%TO.C,J1*%
X149890000Y-41130000D03*
D11*
%TO.N,CS1*%
X149890000Y-43670000D03*
%TO.N,SDO1*%
X149890000Y-46210000D03*
%TO.N,unconnected-(J1-Pin_4-Pad4)*%
X149890000Y-48750000D03*
%TO.N,unconnected-(J1-Pin_5-Pad5)*%
X149890000Y-51290000D03*
%TO.N,unconnected-(J1-Pin_6-Pad6)*%
X149890000Y-53830000D03*
%TO.N,unconnected-(J1-Pin_7-Pad7)*%
X149890000Y-56370000D03*
%TO.N,unconnected-(J1-Pin_8-Pad8)*%
X149890000Y-58910000D03*
%TO.N,unconnected-(J1-Pin_9-Pad9)*%
X149890000Y-61450000D03*
%TO.N,unconnected-(J1-Pin_10-Pad10)*%
X149890000Y-63990000D03*
%TO.N,unconnected-(J1-Pin_11-Pad11)*%
X149890000Y-66530000D03*
%TO.N,CS*%
X149890000Y-69070000D03*
%TO.N,SDI*%
X149890000Y-71610000D03*
%TO.N,SDOA*%
X149890000Y-74150000D03*
%TO.N,unconnected-(J1-Pin_15-Pad15)*%
X149890000Y-76690000D03*
%TO.N,unconnected-(J1-Pin_16-Pad16)*%
X149890000Y-79230000D03*
%TO.N,unconnected-(J1-Pin_17-Pad17)*%
X149890000Y-81770000D03*
%TO.N,SDI1*%
X149890000Y-84310000D03*
%TO.N,SCLK1*%
X149890000Y-86850000D03*
%TO.N,unconnected-(J1-Pin_20-Pad20)*%
X149890000Y-89390000D03*
%TO.N,unconnected-(J1-Pin_21-Pad21)*%
X149890000Y-91930000D03*
%TO.N,unconnected-(J1-Pin_22-Pad22)*%
X149890000Y-94470000D03*
%TO.N,unconnected-(J1-Pin_23-Pad23)*%
X149890000Y-97010000D03*
%TO.N,unconnected-(J1-Pin_24-Pad24)*%
X149890000Y-99550000D03*
%TO.N,unconnected-(J1-Pin_25-Pad25)*%
X165130000Y-99550000D03*
%TO.N,unconnected-(J1-Pin_26-Pad26)*%
X165130000Y-97010000D03*
%TO.N,unconnected-(J1-Pin_27-Pad27)*%
X165130000Y-94470000D03*
%TO.N,unconnected-(J1-Pin_28-Pad28)*%
X165130000Y-91930000D03*
%TO.N,unconnected-(J1-Pin_29-Pad29)*%
X165130000Y-89390000D03*
%TO.N,unconnected-(J1-Pin_30-Pad30)*%
X165130000Y-86850000D03*
%TO.N,unconnected-(J1-Pin_31-Pad31)*%
X165130000Y-84310000D03*
%TO.N,unconnected-(J1-Pin_32-Pad32)*%
X165130000Y-81770000D03*
%TO.N,unconnected-(J1-Pin_33-Pad33)*%
X165130000Y-79230000D03*
%TO.N,GND*%
X165130000Y-76690000D03*
%TO.N,clk*%
X165130000Y-74150000D03*
%TO.N,unconnected-(J1-Pin_36-Pad36)*%
X165130000Y-71610000D03*
%TO.N,unconnected-(J1-Pin_37-Pad37)*%
X165130000Y-69070000D03*
%TO.N,unconnected-(J1-Pin_38-Pad38)*%
X165130000Y-66530000D03*
%TO.N,unconnected-(J1-Pin_39-Pad39)*%
X165130000Y-63990000D03*
%TO.N,unconnected-(J1-Pin_40-Pad40)*%
X165130000Y-61450000D03*
%TO.N,unconnected-(J1-Pin_41-Pad41)*%
X165130000Y-58910000D03*
%TO.N,unconnected-(J1-Pin_42-Pad42)*%
X165130000Y-56370000D03*
%TO.N,unconnected-(J1-Pin_43-Pad43)*%
X165130000Y-53830000D03*
%TO.N,unconnected-(J1-Pin_44-Pad44)*%
X165130000Y-51290000D03*
%TO.N,unconnected-(J1-Pin_45-Pad45)*%
X165130000Y-48750000D03*
%TO.N,unconnected-(J1-Pin_46-Pad46)*%
X165130000Y-46210000D03*
%TO.N,unconnected-(J1-Pin_47-Pad47)*%
X165130000Y-43670000D03*
%TO.N,+5V*%
X165130000Y-41130000D03*
%TD*%
D12*
%TO.N,+20V*%
%TO.C,SW1*%
X138000000Y-43192001D03*
D13*
%TO.N,+20V IN*%
X138000000Y-40652001D03*
%TO.N,unconnected-(SW1-Pad3)*%
X138000000Y-38112001D03*
%TD*%
D14*
%TO.N,GND*%
%TO.C,U8*%
X127120000Y-96599501D03*
X128220000Y-96599501D03*
%TD*%
D15*
%TO.N,GND*%
%TO.C,J2*%
X129040000Y-43080000D03*
%TO.N,+20V IN*%
X129040000Y-49080003D03*
%TD*%
D16*
%TO.N,N/C*%
%TO.C,U2*%
X201040000Y-94827400D03*
X201040000Y-94040000D03*
X201040000Y-93252600D03*
X200252600Y-94827400D03*
X200252600Y-94040000D03*
X200252600Y-93252600D03*
%TD*%
%TO.N,N/C*%
%TO.C,U3*%
X199000000Y-46287400D03*
X199000000Y-45500000D03*
X199000000Y-44712600D03*
X198212600Y-46287400D03*
X198212600Y-45500000D03*
X198212600Y-44712600D03*
%TD*%
D17*
%TO.N,IN_A-*%
%TO.C,D1*%
X212000000Y-97040000D03*
D18*
%TO.N,GND*%
X214540000Y-94500000D03*
%TO.N,Net-(D1-K)*%
X212000000Y-91960000D03*
%TD*%
D17*
%TO.N,IN_B-*%
%TO.C,D2*%
X211500000Y-48040000D03*
D18*
%TO.N,GND*%
X214040000Y-45500000D03*
%TO.N,Net-(D2-K)*%
X211500000Y-42960000D03*
%TD*%
D19*
%TO.N,GND*%
X194250000Y-47250000D03*
X213000000Y-67250000D03*
D20*
%TO.N,AINPB*%
X187000000Y-47500000D03*
X185500000Y-69500000D03*
%TO.N,IN_A-*%
X198500000Y-91500000D03*
D19*
%TO.N,+20V*%
X210500000Y-86000000D03*
%TO.N,+5V*%
X172000000Y-72000000D03*
X184000000Y-69500000D03*
X191000000Y-65500000D03*
X195500000Y-46000000D03*
%TO.N,+0.5V*%
X205000000Y-42000000D03*
X203500000Y-89500000D03*
%TO.N,+20V*%
X211000000Y-36500000D03*
D20*
%TO.N,+0.5V*%
X208500000Y-66500000D03*
X207500000Y-66500000D03*
%TO.N,GND*%
X175750000Y-66750000D03*
D19*
%TO.N,IN_A-*%
X203990000Y-94350000D03*
%TO.N,IN_B-*%
X196890000Y-42940000D03*
X201500000Y-45910000D03*
D20*
%TO.N,+5V*%
X128350000Y-94800000D03*
X127740000Y-94200000D03*
X128340000Y-94200000D03*
X134930000Y-69720000D03*
X128340000Y-93610000D03*
X191500000Y-98500000D03*
X127130000Y-93610000D03*
X198000000Y-94500000D03*
X127740000Y-93610000D03*
X127140000Y-94800000D03*
X128750000Y-65740000D03*
X127750000Y-94800000D03*
X127130000Y-94200000D03*
%TO.N,+20V*%
X136520000Y-58290000D03*
X133520000Y-55750000D03*
X133520000Y-53210000D03*
X136520000Y-51500000D03*
X126780000Y-71780000D03*
X138020000Y-53210000D03*
X136520000Y-53210000D03*
X138020000Y-55750000D03*
X133520000Y-51500000D03*
X135020000Y-58290000D03*
X138000000Y-51500000D03*
X135020000Y-53210000D03*
X135020000Y-55750000D03*
X139520000Y-53210000D03*
X138020000Y-58290000D03*
X139520000Y-58290000D03*
X133520000Y-58290000D03*
X126790000Y-70930000D03*
X135020000Y-51500000D03*
X139520000Y-55750000D03*
X136520000Y-55750000D03*
%TO.N,+3.3V*%
X213000000Y-65500000D03*
X190500000Y-72500000D03*
X126500000Y-99000000D03*
%TO.N,CS*%
X191030000Y-69360000D03*
%TO.N,SDI*%
X189339224Y-71238350D03*
%TO.N,clk*%
X191457964Y-68857556D03*
%TO.N,SDOA*%
X190930000Y-68310000D03*
D19*
%TO.N,OUT320_A*%
X196300000Y-97490000D03*
X191180000Y-97040000D03*
%TO.N,OUT320_B*%
X194190000Y-48460000D03*
X188870000Y-47720000D03*
%TD*%
%TA.AperFunction,Conductor*%
%TO.N,+3.3V*%
G36*
X129664261Y-98149685D02*
G01*
X129710016Y-98202489D01*
X129721216Y-98252772D01*
X129773611Y-103543893D01*
X129754591Y-103611124D01*
X129702243Y-103657400D01*
X129649351Y-103669121D01*
X125203734Y-103659579D01*
X125136737Y-103639750D01*
X125091095Y-103586848D01*
X125080000Y-103535579D01*
X125080000Y-98254000D01*
X125099685Y-98186961D01*
X125152489Y-98141206D01*
X125204000Y-98130000D01*
X129597222Y-98130000D01*
X129664261Y-98149685D01*
G37*
%TD.AperFunction*%
%TD*%
%TA.AperFunction,Conductor*%
%TO.N,+5V*%
G36*
X197943968Y-43509727D02*
G01*
X197989764Y-43562496D01*
X198001005Y-43613082D01*
X198006078Y-44234417D01*
X197986941Y-44301615D01*
X197944086Y-44342814D01*
X197933530Y-44348908D01*
X197848908Y-44433531D01*
X197848907Y-44433533D01*
X197789074Y-44537166D01*
X197789073Y-44537169D01*
X197758100Y-44652764D01*
X197758100Y-44772436D01*
X197789073Y-44888031D01*
X197848909Y-44991670D01*
X197848911Y-44991672D01*
X197875858Y-45018619D01*
X197909343Y-45079942D01*
X197904359Y-45149634D01*
X197875858Y-45193981D01*
X197848911Y-45220927D01*
X197848907Y-45220933D01*
X197789074Y-45324566D01*
X197789073Y-45324569D01*
X197758100Y-45440164D01*
X197758100Y-45559836D01*
X197789073Y-45675431D01*
X197848909Y-45779070D01*
X197848911Y-45779072D01*
X197875858Y-45806019D01*
X197909343Y-45867342D01*
X197904359Y-45937034D01*
X197875858Y-45981381D01*
X197848911Y-46008327D01*
X197848907Y-46008333D01*
X197789074Y-46111966D01*
X197789073Y-46111969D01*
X197758100Y-46227564D01*
X197758100Y-46347236D01*
X197789073Y-46462831D01*
X197848909Y-46566470D01*
X197933530Y-46651091D01*
X197964836Y-46669166D01*
X198013050Y-46719730D01*
X198026831Y-46775538D01*
X198387852Y-90983495D01*
X198368715Y-91050693D01*
X198325857Y-91091894D01*
X198229533Y-91147508D01*
X198229524Y-91147514D01*
X198147514Y-91229524D01*
X198147512Y-91229527D01*
X198089519Y-91329971D01*
X198059500Y-91442007D01*
X198059500Y-91557992D01*
X198089519Y-91670028D01*
X198118515Y-91720250D01*
X198147512Y-91770473D01*
X198229527Y-91852488D01*
X198229528Y-91852489D01*
X198229530Y-91852490D01*
X198334315Y-91912988D01*
X198382531Y-91963555D01*
X198396311Y-92019362D01*
X198420000Y-94920007D01*
X198519587Y-99976379D01*
X198501226Y-100043793D01*
X198449334Y-100090579D01*
X198395650Y-100102821D01*
X166565469Y-100112709D01*
X166498423Y-100093045D01*
X166452652Y-100040255D01*
X166442687Y-99971100D01*
X166450867Y-99941261D01*
X166492051Y-99841835D01*
X166530500Y-99648541D01*
X166530500Y-99451459D01*
X166530500Y-99451456D01*
X166492052Y-99258170D01*
X166492051Y-99258169D01*
X166492051Y-99258165D01*
X166492049Y-99258160D01*
X166416635Y-99076092D01*
X166416628Y-99076079D01*
X166307139Y-98912218D01*
X166307136Y-98912214D01*
X166167785Y-98772863D01*
X166167781Y-98772860D01*
X166003920Y-98663371D01*
X166003907Y-98663364D01*
X165821839Y-98587950D01*
X165821829Y-98587947D01*
X165628543Y-98549500D01*
X165628541Y-98549500D01*
X164631459Y-98549500D01*
X164631457Y-98549500D01*
X164438170Y-98587947D01*
X164438160Y-98587950D01*
X164256092Y-98663364D01*
X164256079Y-98663371D01*
X164092218Y-98772860D01*
X164092214Y-98772863D01*
X163952863Y-98912214D01*
X163952860Y-98912218D01*
X163843371Y-99076079D01*
X163843364Y-99076092D01*
X163767950Y-99258160D01*
X163767947Y-99258170D01*
X163729500Y-99451456D01*
X163729500Y-99451459D01*
X163729500Y-99648541D01*
X163729500Y-99648543D01*
X163729499Y-99648543D01*
X163767947Y-99841829D01*
X163767949Y-99841835D01*
X163809130Y-99941256D01*
X163809500Y-99942148D01*
X163816969Y-100011618D01*
X163785694Y-100074097D01*
X163725605Y-100109749D01*
X163694978Y-100113601D01*
X151323508Y-100117444D01*
X151256462Y-100097780D01*
X151210691Y-100044990D01*
X151200726Y-99975835D01*
X151208907Y-99945994D01*
X151252051Y-99841835D01*
X151290500Y-99648541D01*
X151290500Y-99451459D01*
X151290500Y-99451456D01*
X151252052Y-99258170D01*
X151252051Y-99258169D01*
X151252051Y-99258165D01*
X151252049Y-99258160D01*
X151176635Y-99076092D01*
X151176628Y-99076079D01*
X151067139Y-98912218D01*
X151067136Y-98912214D01*
X150927785Y-98772863D01*
X150927781Y-98772860D01*
X150763920Y-98663371D01*
X150763907Y-98663364D01*
X150581839Y-98587950D01*
X150581829Y-98587947D01*
X150388543Y-98549500D01*
X150388541Y-98549500D01*
X149391459Y-98549500D01*
X149391457Y-98549500D01*
X149198170Y-98587947D01*
X149198160Y-98587950D01*
X149016092Y-98663364D01*
X149016079Y-98663371D01*
X148852218Y-98772860D01*
X148852214Y-98772863D01*
X148712863Y-98912214D01*
X148712860Y-98912218D01*
X148603371Y-99076079D01*
X148603364Y-99076092D01*
X148527950Y-99258160D01*
X148527947Y-99258170D01*
X148489500Y-99451456D01*
X148489500Y-99451459D01*
X148489500Y-99648541D01*
X148489500Y-99648543D01*
X148489499Y-99648543D01*
X148527947Y-99841829D01*
X148527950Y-99841839D01*
X148571460Y-99946883D01*
X148578929Y-100016353D01*
X148547653Y-100078832D01*
X148487564Y-100114483D01*
X148456938Y-100118335D01*
X134375233Y-100122710D01*
X134308187Y-100103046D01*
X134262416Y-100050257D01*
X134251194Y-99998890D01*
X134247055Y-97108543D01*
X148489499Y-97108543D01*
X148527947Y-97301829D01*
X148527950Y-97301839D01*
X148603364Y-97483907D01*
X148603371Y-97483920D01*
X148712860Y-97647781D01*
X148712863Y-97647785D01*
X148852214Y-97787136D01*
X148852218Y-97787139D01*
X149016079Y-97896628D01*
X149016092Y-97896635D01*
X149198160Y-97972049D01*
X149198165Y-97972051D01*
X149198169Y-97972051D01*
X149198170Y-97972052D01*
X149391456Y-98010500D01*
X149391459Y-98010500D01*
X150388543Y-98010500D01*
X150518582Y-97984632D01*
X150581835Y-97972051D01*
X150763914Y-97896632D01*
X150927782Y-97787139D01*
X151067139Y-97647782D01*
X151176632Y-97483914D01*
X151252051Y-97301835D01*
X151265706Y-97233186D01*
X151290500Y-97108543D01*
X163729499Y-97108543D01*
X163767947Y-97301829D01*
X163767950Y-97301839D01*
X163843364Y-97483907D01*
X163843371Y-97483920D01*
X163952860Y-97647781D01*
X163952863Y-97647785D01*
X164092214Y-97787136D01*
X164092218Y-97787139D01*
X164256079Y-97896628D01*
X164256092Y-97896635D01*
X164438160Y-97972049D01*
X164438165Y-97972051D01*
X164438169Y-97972051D01*
X164438170Y-97972052D01*
X164631456Y-98010500D01*
X164631459Y-98010500D01*
X165628543Y-98010500D01*
X165758582Y-97984632D01*
X165821835Y-97972051D01*
X166003914Y-97896632D01*
X166167782Y-97787139D01*
X166307139Y-97647782D01*
X166416632Y-97483914D01*
X166492051Y-97301835D01*
X166505706Y-97233186D01*
X166530500Y-97108543D01*
X166530500Y-96974108D01*
X190679500Y-96974108D01*
X190679500Y-97105892D01*
X190696554Y-97169539D01*
X190713608Y-97233187D01*
X190746554Y-97290250D01*
X190779500Y-97347314D01*
X190872686Y-97440500D01*
X190986814Y-97506392D01*
X191114108Y-97540500D01*
X191114110Y-97540500D01*
X191245890Y-97540500D01*
X191245892Y-97540500D01*
X191373186Y-97506392D01*
X191487314Y-97440500D01*
X191503706Y-97424108D01*
X195799500Y-97424108D01*
X195799500Y-97555891D01*
X195833608Y-97683187D01*
X195866554Y-97740250D01*
X195899500Y-97797314D01*
X195992686Y-97890500D01*
X196106814Y-97956392D01*
X196234108Y-97990500D01*
X196234110Y-97990500D01*
X196365890Y-97990500D01*
X196365892Y-97990500D01*
X196493186Y-97956392D01*
X196607314Y-97890500D01*
X196700500Y-97797314D01*
X196766392Y-97683186D01*
X196800500Y-97555892D01*
X196800500Y-97424108D01*
X196766392Y-97296814D01*
X196700500Y-97182686D01*
X196607314Y-97089500D01*
X196550250Y-97056554D01*
X196493187Y-97023608D01*
X196429539Y-97006554D01*
X196365892Y-96989500D01*
X196234108Y-96989500D01*
X196106812Y-97023608D01*
X195992686Y-97089500D01*
X195992683Y-97089502D01*
X195899502Y-97182683D01*
X195899500Y-97182686D01*
X195833608Y-97296812D01*
X195799500Y-97424108D01*
X191503706Y-97424108D01*
X191580500Y-97347314D01*
X191646392Y-97233186D01*
X191680500Y-97105892D01*
X191680500Y-96974108D01*
X191646392Y-96846814D01*
X191580500Y-96732686D01*
X191487314Y-96639500D01*
X191430250Y-96606554D01*
X191373187Y-96573608D01*
X191309539Y-96556554D01*
X191245892Y-96539500D01*
X191114108Y-96539500D01*
X190986812Y-96573608D01*
X190872686Y-96639500D01*
X190872683Y-96639502D01*
X190779502Y-96732683D01*
X190779500Y-96732686D01*
X190713608Y-96846812D01*
X190679500Y-96974108D01*
X166530500Y-96974108D01*
X166530500Y-96911456D01*
X166492052Y-96718170D01*
X166492051Y-96718169D01*
X166492051Y-96718165D01*
X166432174Y-96573608D01*
X166416635Y-96536092D01*
X166416628Y-96536079D01*
X166307139Y-96372218D01*
X166307136Y-96372214D01*
X166167785Y-96232863D01*
X166167781Y-96232860D01*
X166003920Y-96123371D01*
X166003907Y-96123364D01*
X165821839Y-96047950D01*
X165821829Y-96047947D01*
X165628543Y-96009500D01*
X165628541Y-96009500D01*
X164631459Y-96009500D01*
X164631457Y-96009500D01*
X164438170Y-96047947D01*
X164438160Y-96047950D01*
X164256092Y-96123364D01*
X164256079Y-96123371D01*
X164092218Y-96232860D01*
X164092214Y-96232863D01*
X163952863Y-96372214D01*
X163952860Y-96372218D01*
X163843371Y-96536079D01*
X163843364Y-96536092D01*
X163767950Y-96718160D01*
X163767947Y-96718170D01*
X163729500Y-96911456D01*
X163729500Y-96911459D01*
X163729500Y-97108541D01*
X163729500Y-97108543D01*
X163729499Y-97108543D01*
X151290500Y-97108543D01*
X151290500Y-96911456D01*
X151252052Y-96718170D01*
X151252051Y-96718169D01*
X151252051Y-96718165D01*
X151192174Y-96573608D01*
X151176635Y-96536092D01*
X151176628Y-96536079D01*
X151067139Y-96372218D01*
X151067136Y-96372214D01*
X150927785Y-96232863D01*
X150927781Y-96232860D01*
X150763920Y-96123371D01*
X150763907Y-96123364D01*
X150581839Y-96047950D01*
X150581829Y-96047947D01*
X150388543Y-96009500D01*
X150388541Y-96009500D01*
X149391459Y-96009500D01*
X149391457Y-96009500D01*
X149198170Y-96047947D01*
X149198160Y-96047950D01*
X149016092Y-96123364D01*
X149016079Y-96123371D01*
X148852218Y-96232860D01*
X148852214Y-96232863D01*
X148712863Y-96372214D01*
X148712860Y-96372218D01*
X148603371Y-96536079D01*
X148603364Y-96536092D01*
X148527950Y-96718160D01*
X148527947Y-96718170D01*
X148489500Y-96911456D01*
X148489500Y-96911459D01*
X148489500Y-97108541D01*
X148489500Y-97108543D01*
X148489499Y-97108543D01*
X134247055Y-97108543D01*
X134243418Y-94568543D01*
X148489499Y-94568543D01*
X148527947Y-94761829D01*
X148527950Y-94761839D01*
X148603364Y-94943907D01*
X148603371Y-94943920D01*
X148712860Y-95107781D01*
X148712863Y-95107785D01*
X148852214Y-95247136D01*
X148852218Y-95247139D01*
X149016079Y-95356628D01*
X149016092Y-95356635D01*
X149198160Y-95432049D01*
X149198165Y-95432051D01*
X149198169Y-95432051D01*
X149198170Y-95432052D01*
X149391456Y-95470500D01*
X149391459Y-95470500D01*
X150388543Y-95470500D01*
X150518582Y-95444632D01*
X150581835Y-95432051D01*
X150763914Y-95356632D01*
X150927782Y-95247139D01*
X151067139Y-95107782D01*
X151176632Y-94943914D01*
X151252051Y-94761835D01*
X151290500Y-94568543D01*
X163729499Y-94568543D01*
X163767947Y-94761829D01*
X163767950Y-94761839D01*
X163843364Y-94943907D01*
X163843371Y-94943920D01*
X163952860Y-95107781D01*
X163952863Y-95107785D01*
X164092214Y-95247136D01*
X164092218Y-95247139D01*
X164256079Y-95356628D01*
X164256092Y-95356635D01*
X164438160Y-95432049D01*
X164438165Y-95432051D01*
X164438169Y-95432051D01*
X164438170Y-95432052D01*
X164631456Y-95470500D01*
X164631459Y-95470500D01*
X165628543Y-95470500D01*
X165758582Y-95444632D01*
X165821835Y-95432051D01*
X166003914Y-95356632D01*
X166167782Y-95247139D01*
X166307139Y-95107782D01*
X166416632Y-94943914D01*
X166492051Y-94761835D01*
X166530500Y-94568541D01*
X166530500Y-94371459D01*
X166530500Y-94371456D01*
X166492052Y-94178170D01*
X166492051Y-94178169D01*
X166492051Y-94178165D01*
X166492049Y-94178160D01*
X166416635Y-93996092D01*
X166416628Y-93996079D01*
X166307139Y-93832218D01*
X166307136Y-93832214D01*
X166167785Y-93692863D01*
X166167781Y-93692860D01*
X166003920Y-93583371D01*
X166003907Y-93583364D01*
X165821839Y-93507950D01*
X165821829Y-93507947D01*
X165628543Y-93469500D01*
X165628541Y-93469500D01*
X164631459Y-93469500D01*
X164631457Y-93469500D01*
X164438170Y-93507947D01*
X164438160Y-93507950D01*
X164256092Y-93583364D01*
X164256079Y-93583371D01*
X164092218Y-93692860D01*
X164092214Y-93692863D01*
X163952863Y-93832214D01*
X163952860Y-93832218D01*
X163843371Y-93996079D01*
X163843364Y-93996092D01*
X163767950Y-94178160D01*
X163767947Y-94178170D01*
X163729500Y-94371456D01*
X163729500Y-94371459D01*
X163729500Y-94568541D01*
X163729500Y-94568543D01*
X163729499Y-94568543D01*
X151290500Y-94568543D01*
X151290500Y-94568541D01*
X151290500Y-94371459D01*
X151290500Y-94371456D01*
X151252052Y-94178170D01*
X151252051Y-94178169D01*
X151252051Y-94178165D01*
X151252049Y-94178160D01*
X151176635Y-93996092D01*
X151176628Y-93996079D01*
X151067139Y-93832218D01*
X151067136Y-93832214D01*
X150927785Y-93692863D01*
X150927781Y-93692860D01*
X150763920Y-93583371D01*
X150763907Y-93583364D01*
X150581839Y-93507950D01*
X150581829Y-93507947D01*
X150388543Y-93469500D01*
X150388541Y-93469500D01*
X149391459Y-93469500D01*
X149391457Y-93469500D01*
X149198170Y-93507947D01*
X149198160Y-93507950D01*
X149016092Y-93583364D01*
X149016079Y-93583371D01*
X148852218Y-93692860D01*
X148852214Y-93692863D01*
X148712863Y-93832214D01*
X148712860Y-93832218D01*
X148603371Y-93996079D01*
X148603364Y-93996092D01*
X148527950Y-94178160D01*
X148527947Y-94178170D01*
X148489500Y-94371456D01*
X148489500Y-94371459D01*
X148489500Y-94568541D01*
X148489500Y-94568543D01*
X148489499Y-94568543D01*
X134243418Y-94568543D01*
X134239781Y-92028543D01*
X148489499Y-92028543D01*
X148527947Y-92221829D01*
X148527950Y-92221839D01*
X148603364Y-92403907D01*
X148603371Y-92403920D01*
X148712860Y-92567781D01*
X148712863Y-92567785D01*
X148852214Y-92707136D01*
X148852218Y-92707139D01*
X149016079Y-92816628D01*
X149016092Y-92816635D01*
X149198160Y-92892049D01*
X149198165Y-92892051D01*
X149198169Y-92892051D01*
X149198170Y-92892052D01*
X149391456Y-92930500D01*
X149391459Y-92930500D01*
X150388543Y-92930500D01*
X150518582Y-92904632D01*
X150581835Y-92892051D01*
X150763914Y-92816632D01*
X150927782Y-92707139D01*
X151067139Y-92567782D01*
X151176632Y-92403914D01*
X151252051Y-92221835D01*
X151290500Y-92028543D01*
X163729499Y-92028543D01*
X163767947Y-92221829D01*
X163767950Y-92221839D01*
X163843364Y-92403907D01*
X163843371Y-92403920D01*
X163952860Y-92567781D01*
X163952863Y-92567785D01*
X164092214Y-92707136D01*
X164092218Y-92707139D01*
X164256079Y-92816628D01*
X164256092Y-92816635D01*
X164438160Y-92892049D01*
X164438165Y-92892051D01*
X164438169Y-92892051D01*
X164438170Y-92892052D01*
X164631456Y-92930500D01*
X164631459Y-92930500D01*
X165628543Y-92930500D01*
X165758582Y-92904632D01*
X165821835Y-92892051D01*
X166003914Y-92816632D01*
X166167782Y-92707139D01*
X166307139Y-92567782D01*
X166416632Y-92403914D01*
X166492051Y-92221835D01*
X166530500Y-92028541D01*
X166530500Y-91831459D01*
X166530500Y-91831456D01*
X166492052Y-91638170D01*
X166492051Y-91638169D01*
X166492051Y-91638165D01*
X166458843Y-91557992D01*
X166416635Y-91456092D01*
X166416628Y-91456079D01*
X166307139Y-91292218D01*
X166307136Y-91292214D01*
X166167785Y-91152863D01*
X166167781Y-91152860D01*
X166003920Y-91043371D01*
X166003907Y-91043364D01*
X165821839Y-90967950D01*
X165821829Y-90967947D01*
X165628543Y-90929500D01*
X165628541Y-90929500D01*
X164631459Y-90929500D01*
X164631457Y-90929500D01*
X164438170Y-90967947D01*
X164438160Y-90967950D01*
X164256092Y-91043364D01*
X164256079Y-91043371D01*
X164092218Y-91152860D01*
X164092214Y-91152863D01*
X163952863Y-91292214D01*
X163952860Y-91292218D01*
X163843371Y-91456079D01*
X163843364Y-91456092D01*
X163767950Y-91638160D01*
X163767947Y-91638170D01*
X163729500Y-91831456D01*
X163729500Y-91831459D01*
X163729500Y-92028541D01*
X163729500Y-92028543D01*
X163729499Y-92028543D01*
X151290500Y-92028543D01*
X151290500Y-92028541D01*
X151290500Y-91831459D01*
X151290500Y-91831456D01*
X151252052Y-91638170D01*
X151252051Y-91638169D01*
X151252051Y-91638165D01*
X151218843Y-91557992D01*
X151176635Y-91456092D01*
X151176628Y-91456079D01*
X151067139Y-91292218D01*
X151067136Y-91292214D01*
X150927785Y-91152863D01*
X150927781Y-91152860D01*
X150763920Y-91043371D01*
X150763907Y-91043364D01*
X150581839Y-90967950D01*
X150581829Y-90967947D01*
X150388543Y-90929500D01*
X150388541Y-90929500D01*
X149391459Y-90929500D01*
X149391457Y-90929500D01*
X149198170Y-90967947D01*
X149198160Y-90967950D01*
X149016092Y-91043364D01*
X149016079Y-91043371D01*
X148852218Y-91152860D01*
X148852214Y-91152863D01*
X148712863Y-91292214D01*
X148712860Y-91292218D01*
X148603371Y-91456079D01*
X148603364Y-91456092D01*
X148527950Y-91638160D01*
X148527947Y-91638170D01*
X148489500Y-91831456D01*
X148489500Y-91831459D01*
X148489500Y-92028541D01*
X148489500Y-92028543D01*
X148489499Y-92028543D01*
X134239781Y-92028543D01*
X134239490Y-91825545D01*
X134229357Y-84749844D01*
X134200000Y-64250000D01*
X139826000Y-64250000D01*
X139893039Y-64269685D01*
X139938794Y-64322489D01*
X139950000Y-64374000D01*
X139950000Y-88442879D01*
X148719562Y-88446204D01*
X148786591Y-88465913D01*
X148832326Y-88518734D01*
X148842243Y-88587897D01*
X148813194Y-88651441D01*
X148807194Y-88657884D01*
X148712860Y-88752218D01*
X148603371Y-88916079D01*
X148603364Y-88916092D01*
X148527950Y-89098160D01*
X148527947Y-89098170D01*
X148489500Y-89291456D01*
X148489500Y-89291459D01*
X148489500Y-89488541D01*
X148489500Y-89488543D01*
X148489499Y-89488543D01*
X148527947Y-89681829D01*
X148527950Y-89681839D01*
X148603364Y-89863907D01*
X148603371Y-89863920D01*
X148712860Y-90027781D01*
X148712863Y-90027785D01*
X148852214Y-90167136D01*
X148852218Y-90167139D01*
X149016079Y-90276628D01*
X149016092Y-90276635D01*
X149198160Y-90352049D01*
X149198165Y-90352051D01*
X149198169Y-90352051D01*
X149198170Y-90352052D01*
X149391456Y-90390500D01*
X149391459Y-90390500D01*
X150388543Y-90390500D01*
X150518582Y-90364632D01*
X150581835Y-90352051D01*
X150763914Y-90276632D01*
X150927782Y-90167139D01*
X151067139Y-90027782D01*
X151176632Y-89863914D01*
X151252051Y-89681835D01*
X151290500Y-89488541D01*
X151290500Y-89291459D01*
X151290500Y-89291456D01*
X151252052Y-89098170D01*
X151252051Y-89098169D01*
X151252051Y-89098165D01*
X151252049Y-89098160D01*
X151176635Y-88916092D01*
X151176628Y-88916079D01*
X151067139Y-88752218D01*
X151067136Y-88752214D01*
X150973694Y-88658772D01*
X150940209Y-88597449D01*
X150945193Y-88527757D01*
X150987065Y-88471824D01*
X151052529Y-88447407D01*
X151061393Y-88447092D01*
X163953787Y-88451980D01*
X164020815Y-88471689D01*
X164066550Y-88524510D01*
X164076467Y-88593673D01*
X164047418Y-88657217D01*
X164041418Y-88663660D01*
X163952860Y-88752218D01*
X163843371Y-88916079D01*
X163843364Y-88916092D01*
X163767950Y-89098160D01*
X163767947Y-89098170D01*
X163729500Y-89291456D01*
X163729500Y-89291459D01*
X163729500Y-89488541D01*
X163729500Y-89488543D01*
X163729499Y-89488543D01*
X163767947Y-89681829D01*
X163767950Y-89681839D01*
X163843364Y-89863907D01*
X163843371Y-89863920D01*
X163952860Y-90027781D01*
X163952863Y-90027785D01*
X164092214Y-90167136D01*
X164092218Y-90167139D01*
X164256079Y-90276628D01*
X164256092Y-90276635D01*
X164438160Y-90352049D01*
X164438165Y-90352051D01*
X164438169Y-90352051D01*
X164438170Y-90352052D01*
X164631456Y-90390500D01*
X164631459Y-90390500D01*
X165628543Y-90390500D01*
X165758582Y-90364632D01*
X165821835Y-90352051D01*
X166003914Y-90276632D01*
X166167782Y-90167139D01*
X166307139Y-90027782D01*
X166416632Y-89863914D01*
X166492051Y-89681835D01*
X166530500Y-89488541D01*
X166530500Y-89291459D01*
X166530500Y-89291456D01*
X166492052Y-89098170D01*
X166492051Y-89098169D01*
X166492051Y-89098165D01*
X166492049Y-89098160D01*
X166416635Y-88916092D01*
X166416628Y-88916079D01*
X166307139Y-88752218D01*
X166307136Y-88752214D01*
X166219475Y-88664553D01*
X166185990Y-88603230D01*
X166190974Y-88533538D01*
X166232846Y-88477605D01*
X166298310Y-88453188D01*
X166307184Y-88452872D01*
X192500000Y-88462804D01*
X192500000Y-69500000D01*
X191688994Y-69500000D01*
X191621955Y-69480315D01*
X191576200Y-69427511D01*
X191566256Y-69358353D01*
X191595281Y-69294797D01*
X191626993Y-69268613D01*
X191627991Y-69268037D01*
X191728437Y-69210044D01*
X191810452Y-69128029D01*
X191868445Y-69027583D01*
X191898464Y-68915549D01*
X191898464Y-68799563D01*
X191868445Y-68687529D01*
X191810452Y-68587083D01*
X191728437Y-68505068D01*
X191678214Y-68476071D01*
X191627992Y-68447075D01*
X191561869Y-68429358D01*
X191515957Y-68417056D01*
X191494500Y-68417056D01*
X191427461Y-68397371D01*
X191381706Y-68344567D01*
X191370500Y-68293056D01*
X191370500Y-68252009D01*
X191370500Y-68252007D01*
X191340481Y-68139973D01*
X191282488Y-68039527D01*
X191200473Y-67957512D01*
X191150250Y-67928515D01*
X191100028Y-67899519D01*
X191044010Y-67884509D01*
X190987993Y-67869500D01*
X190872007Y-67869500D01*
X190759971Y-67899519D01*
X190659527Y-67957512D01*
X190659524Y-67957514D01*
X190577514Y-68039524D01*
X190577512Y-68039527D01*
X190519519Y-68139971D01*
X190489500Y-68252007D01*
X190489500Y-68367992D01*
X190519519Y-68480028D01*
X190548515Y-68530250D01*
X190577512Y-68580473D01*
X190659527Y-68662488D01*
X190759973Y-68720481D01*
X190810066Y-68733903D01*
X190869727Y-68770268D01*
X190900256Y-68833115D01*
X190891961Y-68902491D01*
X190847476Y-68956368D01*
X190839974Y-68961064D01*
X190759533Y-69007507D01*
X190759524Y-69007514D01*
X190677514Y-69089524D01*
X190677512Y-69089527D01*
X190619519Y-69189971D01*
X190589500Y-69302007D01*
X190589500Y-69376000D01*
X190569815Y-69443039D01*
X190517011Y-69488794D01*
X190465500Y-69500000D01*
X186051188Y-69500000D01*
X185984149Y-69480315D01*
X185938394Y-69427511D01*
X185931413Y-69408094D01*
X185910481Y-69329973D01*
X185852488Y-69229527D01*
X185770473Y-69147512D01*
X185720250Y-69118515D01*
X185670028Y-69089519D01*
X185614010Y-69074509D01*
X185557993Y-69059500D01*
X185442007Y-69059500D01*
X185329971Y-69089519D01*
X185229527Y-69147512D01*
X185229524Y-69147514D01*
X185147514Y-69229524D01*
X185147512Y-69229527D01*
X185089519Y-69329971D01*
X185059500Y-69442007D01*
X185059500Y-69557992D01*
X185089519Y-69670028D01*
X185111317Y-69707782D01*
X185147512Y-69770473D01*
X185229527Y-69852488D01*
X185329973Y-69910481D01*
X185408093Y-69931413D01*
X185467753Y-69967776D01*
X185498283Y-70030623D01*
X185500000Y-70051187D01*
X185500000Y-74876000D01*
X185480315Y-74943039D01*
X185427511Y-74988794D01*
X185376000Y-75000000D01*
X170124000Y-75000000D01*
X170056961Y-74980315D01*
X170011206Y-74927511D01*
X170000000Y-74876000D01*
X170000000Y-66692007D01*
X175309500Y-66692007D01*
X175309500Y-66807992D01*
X175339519Y-66920028D01*
X175368515Y-66970250D01*
X175397512Y-67020473D01*
X175479527Y-67102488D01*
X175579973Y-67160481D01*
X175692007Y-67190500D01*
X175692009Y-67190500D01*
X175807991Y-67190500D01*
X175807993Y-67190500D01*
X175920027Y-67160481D01*
X176020473Y-67102488D01*
X176102488Y-67020473D01*
X176160481Y-66920027D01*
X176190500Y-66807993D01*
X176190500Y-66692007D01*
X176160481Y-66579973D01*
X176102488Y-66479527D01*
X176020473Y-66397512D01*
X175970250Y-66368515D01*
X175920028Y-66339519D01*
X175864010Y-66324509D01*
X175807993Y-66309500D01*
X175692007Y-66309500D01*
X175579971Y-66339519D01*
X175479527Y-66397512D01*
X175479524Y-66397514D01*
X175397514Y-66479524D01*
X175397512Y-66479527D01*
X175339519Y-66579971D01*
X175309500Y-66692007D01*
X170000000Y-66692007D01*
X170000000Y-64624082D01*
X170019685Y-64557043D01*
X170072489Y-64511288D01*
X170124079Y-64500082D01*
X185000000Y-64510000D01*
X185000000Y-48394108D01*
X193689500Y-48394108D01*
X193689500Y-48525891D01*
X193723608Y-48653187D01*
X193756554Y-48710250D01*
X193789500Y-48767314D01*
X193882686Y-48860500D01*
X193996814Y-48926392D01*
X194124108Y-48960500D01*
X194124110Y-48960500D01*
X194255890Y-48960500D01*
X194255892Y-48960500D01*
X194383186Y-48926392D01*
X194497314Y-48860500D01*
X194590500Y-48767314D01*
X194656392Y-48653186D01*
X194690500Y-48525892D01*
X194690500Y-48394108D01*
X194656392Y-48266814D01*
X194590500Y-48152686D01*
X194497314Y-48059500D01*
X194383186Y-47993608D01*
X194342896Y-47982812D01*
X194283237Y-47946448D01*
X194252708Y-47883600D01*
X194261003Y-47814225D01*
X194305488Y-47760347D01*
X194342893Y-47743265D01*
X194443186Y-47716392D01*
X194557314Y-47650500D01*
X194650500Y-47557314D01*
X194716392Y-47443186D01*
X194750500Y-47315892D01*
X194750500Y-47184108D01*
X194716392Y-47056814D01*
X194650500Y-46942686D01*
X194557314Y-46849500D01*
X194500250Y-46816554D01*
X194443187Y-46783608D01*
X194379539Y-46766554D01*
X194315892Y-46749500D01*
X194184108Y-46749500D01*
X194056812Y-46783608D01*
X193942686Y-46849500D01*
X193942683Y-46849502D01*
X193849502Y-46942683D01*
X193849500Y-46942686D01*
X193783608Y-47056812D01*
X193772939Y-47096632D01*
X193749500Y-47184108D01*
X193749500Y-47315892D01*
X193753273Y-47329973D01*
X193783608Y-47443187D01*
X193816554Y-47500250D01*
X193849500Y-47557314D01*
X193942686Y-47650500D01*
X194056814Y-47716392D01*
X194097101Y-47727186D01*
X194156761Y-47763550D01*
X194187291Y-47826397D01*
X194178997Y-47895772D01*
X194134512Y-47949651D01*
X194097102Y-47966736D01*
X194074244Y-47972861D01*
X193996814Y-47993608D01*
X193996812Y-47993608D01*
X193996812Y-47993609D01*
X193882686Y-48059500D01*
X193882683Y-48059502D01*
X193789502Y-48152683D01*
X193789500Y-48152686D01*
X193723608Y-48266812D01*
X193689500Y-48394108D01*
X185000000Y-48394108D01*
X185000000Y-47442007D01*
X186559500Y-47442007D01*
X186559500Y-47557992D01*
X186589519Y-47670028D01*
X186616287Y-47716391D01*
X186647512Y-47770473D01*
X186729527Y-47852488D01*
X186829973Y-47910481D01*
X186942007Y-47940500D01*
X186942009Y-47940500D01*
X187057991Y-47940500D01*
X187057993Y-47940500D01*
X187170027Y-47910481D01*
X187270473Y-47852488D01*
X187352488Y-47770473D01*
X187410481Y-47670027D01*
X187414746Y-47654108D01*
X188369500Y-47654108D01*
X188369500Y-47785891D01*
X188403608Y-47913187D01*
X188422812Y-47946448D01*
X188469500Y-48027314D01*
X188562686Y-48120500D01*
X188676814Y-48186392D01*
X188804108Y-48220500D01*
X188804110Y-48220500D01*
X188935890Y-48220500D01*
X188935892Y-48220500D01*
X189063186Y-48186392D01*
X189177314Y-48120500D01*
X189270500Y-48027314D01*
X189336392Y-47913186D01*
X189370500Y-47785892D01*
X189370500Y-47654108D01*
X189336392Y-47526814D01*
X189270500Y-47412686D01*
X189177314Y-47319500D01*
X189120250Y-47286554D01*
X189063187Y-47253608D01*
X188999539Y-47236554D01*
X188935892Y-47219500D01*
X188804108Y-47219500D01*
X188676812Y-47253608D01*
X188562686Y-47319500D01*
X188562683Y-47319502D01*
X188469502Y-47412683D01*
X188469500Y-47412686D01*
X188403608Y-47526812D01*
X188369500Y-47654108D01*
X187414746Y-47654108D01*
X187440500Y-47557993D01*
X187440500Y-47442007D01*
X187410481Y-47329973D01*
X187352488Y-47229527D01*
X187270473Y-47147512D01*
X187220250Y-47118515D01*
X187170028Y-47089519D01*
X187114010Y-47074509D01*
X187057993Y-47059500D01*
X186942007Y-47059500D01*
X186829971Y-47089519D01*
X186729527Y-47147512D01*
X186729524Y-47147514D01*
X186647514Y-47229524D01*
X186647512Y-47229527D01*
X186589519Y-47329971D01*
X186559500Y-47442007D01*
X185000000Y-47442007D01*
X185000000Y-43500000D01*
X197876916Y-43490094D01*
X197943968Y-43509727D01*
G37*
%TD.AperFunction*%
%TD*%
%TA.AperFunction,Conductor*%
%TO.N,+3.3V*%
G36*
X214973039Y-65019685D02*
G01*
X215018794Y-65072489D01*
X215030000Y-65124000D01*
X215030000Y-66376000D01*
X215010315Y-66443039D01*
X214957511Y-66488794D01*
X214906000Y-66500000D01*
X211624000Y-66500000D01*
X211556961Y-66480315D01*
X211511206Y-66427511D01*
X211500000Y-66376000D01*
X211500000Y-65124000D01*
X211519685Y-65056961D01*
X211572489Y-65011206D01*
X211624000Y-65000000D01*
X214906000Y-65000000D01*
X214973039Y-65019685D01*
G37*
%TD.AperFunction*%
%TD*%
%TA.AperFunction,Conductor*%
%TO.N,+0.5V*%
G36*
X209943039Y-65019685D02*
G01*
X209988794Y-65072489D01*
X210000000Y-65124000D01*
X210000000Y-67376000D01*
X209980315Y-67443039D01*
X209927511Y-67488794D01*
X209876000Y-67500000D01*
X208000000Y-67500000D01*
X208000000Y-65000000D01*
X209876000Y-65000000D01*
X209943039Y-65019685D01*
G37*
%TD.AperFunction*%
%TD*%
%TA.AperFunction,Conductor*%
%TO.N,+0.5V*%
G36*
X205943039Y-41519685D02*
G01*
X205988794Y-41572489D01*
X206000000Y-41624000D01*
X206000000Y-65000000D01*
X208000000Y-65000000D01*
X208000000Y-67500000D01*
X208500000Y-67500000D01*
X208500000Y-67876000D01*
X208480315Y-67943039D01*
X208427511Y-67988794D01*
X208376000Y-68000000D01*
X206499999Y-68000000D01*
X205000000Y-69499999D01*
X205000000Y-90448638D01*
X204980315Y-90515677D01*
X204963681Y-90536319D01*
X204536319Y-90963681D01*
X204474996Y-90997166D01*
X204448638Y-91000000D01*
X203124000Y-91000000D01*
X203056961Y-90980315D01*
X203011206Y-90927511D01*
X203000000Y-90876000D01*
X203000000Y-41624000D01*
X203019685Y-41556961D01*
X203072489Y-41511206D01*
X203124000Y-41500000D01*
X205876000Y-41500000D01*
X205943039Y-41519685D01*
G37*
%TD.AperFunction*%
%TD*%
%TA.AperFunction,Conductor*%
%TO.N,+5V*%
G36*
X189443039Y-39519685D02*
G01*
X189488794Y-39572489D01*
X189500000Y-39624000D01*
X189500000Y-43496537D01*
X189500000Y-43496538D01*
X185000000Y-43500000D01*
X185000000Y-42000000D01*
X163624000Y-42000000D01*
X163556961Y-41980315D01*
X163511206Y-41927511D01*
X163500000Y-41876000D01*
X163500000Y-39624000D01*
X163519685Y-39556961D01*
X163572489Y-39511206D01*
X163624000Y-39500000D01*
X189376000Y-39500000D01*
X189443039Y-39519685D01*
G37*
%TD.AperFunction*%
%TD*%
%TA.AperFunction,Conductor*%
%TO.N,+5V*%
G36*
X128840283Y-84722649D02*
G01*
X128622433Y-95707317D01*
X128601423Y-95773953D01*
X128547722Y-95818652D01*
X128497298Y-95828853D01*
X125534251Y-95801161D01*
X125467399Y-95780850D01*
X125422139Y-95727621D01*
X125411418Y-95675751D01*
X125536119Y-84750000D01*
X125540000Y-84410000D01*
X125540000Y-82780000D01*
X128880000Y-82720000D01*
X128840283Y-84722649D01*
G37*
%TD.AperFunction*%
%TD*%
%TA.AperFunction,Conductor*%
%TO.N,+5V*%
G36*
X133264429Y-80679168D02*
G01*
X133270000Y-82070000D01*
X134225523Y-82073272D01*
X134229357Y-84749845D01*
X134229356Y-84749844D01*
X128840283Y-84722649D01*
X128880000Y-82720000D01*
X125540000Y-82780000D01*
X125540000Y-84410000D01*
X125536621Y-84705979D01*
X125536620Y-84705978D01*
X122493988Y-84690625D01*
X122427049Y-84670603D01*
X122381561Y-84617569D01*
X122370616Y-84566013D01*
X122389385Y-80793484D01*
X122409402Y-80726546D01*
X122462433Y-80681055D01*
X122513487Y-80670104D01*
X133264429Y-80679168D01*
G37*
%TD.AperFunction*%
%TD*%
%TA.AperFunction,Conductor*%
%TO.N,+20V*%
G36*
X126808663Y-42312548D02*
G01*
X126875493Y-42332919D01*
X126920704Y-42386190D01*
X126929936Y-42455447D01*
X126910489Y-42505430D01*
X126859058Y-42582403D01*
X126779870Y-42773579D01*
X126779868Y-42773587D01*
X126739500Y-42976530D01*
X126739500Y-43183469D01*
X126779868Y-43386412D01*
X126779870Y-43386420D01*
X126859058Y-43577596D01*
X126974024Y-43749657D01*
X127120342Y-43895975D01*
X127120345Y-43895977D01*
X127292402Y-44010941D01*
X127483580Y-44090130D01*
X127686530Y-44130499D01*
X127686534Y-44130500D01*
X127686535Y-44130500D01*
X130393466Y-44130500D01*
X130393467Y-44130499D01*
X130596420Y-44090130D01*
X130787598Y-44010941D01*
X130959655Y-43895977D01*
X131105977Y-43749655D01*
X131220941Y-43577598D01*
X131300130Y-43386420D01*
X131340500Y-43183465D01*
X131340500Y-42976535D01*
X131300130Y-42773580D01*
X131220941Y-42582402D01*
X131200368Y-42551613D01*
X131179491Y-42484937D01*
X131197975Y-42417556D01*
X131249954Y-42370866D01*
X131304738Y-42358731D01*
X139500000Y-42442912D01*
X139500000Y-58978160D01*
X128010000Y-58950000D01*
X127811798Y-72556509D01*
X127791139Y-72623255D01*
X127737674Y-72668236D01*
X127686502Y-72678696D01*
X124142510Y-72641292D01*
X124075682Y-72620901D01*
X124030487Y-72567617D01*
X124019819Y-72517484D01*
X123990000Y-52250000D01*
X123882349Y-49183472D01*
X123875084Y-48976533D01*
X126739500Y-48976533D01*
X126739500Y-49183472D01*
X126779868Y-49386415D01*
X126779870Y-49386423D01*
X126859058Y-49577599D01*
X126974024Y-49749660D01*
X127120342Y-49895978D01*
X127120345Y-49895980D01*
X127292402Y-50010944D01*
X127483580Y-50090133D01*
X127686530Y-50130502D01*
X127686534Y-50130503D01*
X127686535Y-50130503D01*
X130393466Y-50130503D01*
X130393467Y-50130502D01*
X130596420Y-50090133D01*
X130787598Y-50010944D01*
X130959655Y-49895980D01*
X131105977Y-49749658D01*
X131220941Y-49577601D01*
X131300130Y-49386423D01*
X131340500Y-49183468D01*
X131340500Y-48976538D01*
X131300130Y-48773583D01*
X131220941Y-48582405D01*
X131105977Y-48410348D01*
X131105975Y-48410345D01*
X130959657Y-48264027D01*
X130801401Y-48158285D01*
X130787598Y-48149062D01*
X130596420Y-48069873D01*
X130596412Y-48069871D01*
X130393469Y-48029503D01*
X130393465Y-48029503D01*
X127686535Y-48029503D01*
X127686530Y-48029503D01*
X127483587Y-48069871D01*
X127483579Y-48069873D01*
X127292403Y-48149061D01*
X127120342Y-48264027D01*
X126974024Y-48410345D01*
X126859058Y-48582406D01*
X126779870Y-48773582D01*
X126779868Y-48773590D01*
X126739500Y-48976533D01*
X123875084Y-48976533D01*
X123875023Y-48974796D01*
X123691593Y-43749657D01*
X123644552Y-42409674D01*
X123661873Y-42341987D01*
X123713039Y-42294407D01*
X123769746Y-42281332D01*
X126808663Y-42312548D01*
G37*
%TD.AperFunction*%
%TA.AperFunction,Conductor*%
G36*
X140249995Y-58978866D02*
G01*
X140197823Y-58979843D01*
X140197137Y-58979655D01*
X140195199Y-58979865D01*
X139785115Y-58978859D01*
X140249989Y-58977000D01*
X140249995Y-58978866D01*
G37*
%TD.AperFunction*%
%TD*%
%TA.AperFunction,Conductor*%
%TO.N,+20V*%
G36*
X212030000Y-33010000D02*
G01*
X212029799Y-33059940D01*
X212020000Y-33060000D01*
X212029779Y-33064865D01*
X212017992Y-36000000D01*
X212010499Y-37865683D01*
X211990545Y-37932643D01*
X211937558Y-37978185D01*
X211885684Y-37989182D01*
X209093184Y-37970810D01*
X209026276Y-37950685D01*
X208980869Y-37897581D01*
X208970000Y-37846813D01*
X208970000Y-35969999D01*
X147060000Y-35960000D01*
X147000321Y-58826817D01*
X146980461Y-58893804D01*
X146927538Y-58939421D01*
X146876817Y-58950492D01*
X140220619Y-58977117D01*
X140220614Y-58977117D01*
X139785103Y-58978859D01*
X139784895Y-58978859D01*
X139553568Y-58979785D01*
X139551732Y-58979779D01*
X139500000Y-58979219D01*
X139500000Y-42442912D01*
X139500000Y-33114034D01*
X139519685Y-33046995D01*
X139572489Y-33001240D01*
X139624033Y-32990034D01*
X212030000Y-33010000D01*
G37*
%TD.AperFunction*%
%TD*%
%TA.AperFunction,Conductor*%
%TO.N,+5V*%
G36*
X134225524Y-82073272D02*
G01*
X133270000Y-82070000D01*
X133210000Y-67090000D01*
X133000588Y-67087647D01*
X129650016Y-67050000D01*
X129650000Y-67050000D01*
X128464000Y-67050000D01*
X128396961Y-67030315D01*
X128351206Y-66977511D01*
X128340000Y-66926000D01*
X128340000Y-64374000D01*
X128359685Y-64306961D01*
X128412489Y-64261206D01*
X128464000Y-64250000D01*
X134200000Y-64250000D01*
X134225524Y-82073272D01*
G37*
%TD.AperFunction*%
%TD*%
%TA.AperFunction,Conductor*%
%TO.N,+20V*%
G36*
X220076045Y-33011198D02*
G01*
X220103622Y-33021877D01*
X220132058Y-33030038D01*
X220135845Y-33034355D01*
X220141200Y-33036429D01*
X220158627Y-33060324D01*
X220178135Y-33082561D01*
X220178987Y-33088240D01*
X220182371Y-33092880D01*
X220189658Y-33135100D01*
X220040338Y-87836029D01*
X220020470Y-87903015D01*
X219967541Y-87948626D01*
X219916029Y-87959691D01*
X208123691Y-87930308D01*
X208056701Y-87910456D01*
X208011078Y-87857538D01*
X208000000Y-87806308D01*
X208000000Y-85113754D01*
X208019685Y-85046715D01*
X208072489Y-85000960D01*
X208123749Y-84989754D01*
X218100000Y-84970000D01*
X217970000Y-36020000D01*
X217969999Y-36019999D01*
X217929797Y-36000000D01*
X212020000Y-33060000D01*
X220070493Y-33010731D01*
X220076045Y-33011198D01*
G37*
%TD.AperFunction*%
%TD*%
%TA.AperFunction,Conductor*%
%TO.N,GND*%
G36*
X208340523Y-36475396D02*
G01*
X208407556Y-36495091D01*
X208453303Y-36547903D01*
X208464500Y-36599396D01*
X208464500Y-37846812D01*
X208475700Y-37952640D01*
X208486567Y-38003398D01*
X208486568Y-38003399D01*
X208486569Y-38003403D01*
X208486570Y-38003406D01*
X208488883Y-38010472D01*
X208519677Y-38104541D01*
X208519678Y-38104543D01*
X208519679Y-38104545D01*
X208584980Y-38207640D01*
X208596670Y-38226095D01*
X208642076Y-38279198D01*
X208750191Y-38374133D01*
X208835566Y-38413802D01*
X208880673Y-38434761D01*
X208947581Y-38454886D01*
X209089858Y-38476299D01*
X211882358Y-38494671D01*
X211990517Y-38483692D01*
X212042391Y-38472695D01*
X212145701Y-38438844D01*
X212267052Y-38361544D01*
X212320039Y-38316002D01*
X212414696Y-38207644D01*
X212474992Y-38077008D01*
X212494383Y-38011934D01*
X212494845Y-38010472D01*
X212494945Y-38010051D01*
X212494944Y-38010051D01*
X212494946Y-38010048D01*
X212494947Y-38010045D01*
X212515995Y-37867713D01*
X212520970Y-36629002D01*
X212540924Y-36562042D01*
X212593911Y-36516500D01*
X212644969Y-36505500D01*
X217342116Y-36505500D01*
X217409155Y-36525185D01*
X217454910Y-36577989D01*
X217466116Y-36629171D01*
X217592828Y-84341418D01*
X217573321Y-84408509D01*
X217520639Y-84454404D01*
X217469074Y-84465747D01*
X208122740Y-84484255D01*
X208122735Y-84484255D01*
X208015796Y-84495916D01*
X208015793Y-84495916D01*
X207964521Y-84507125D01*
X207862504Y-84541137D01*
X207862491Y-84541143D01*
X207741462Y-84618925D01*
X207741451Y-84618933D01*
X207688659Y-84664677D01*
X207594433Y-84773418D01*
X207594430Y-84773422D01*
X207534664Y-84904288D01*
X207514976Y-84971336D01*
X207494500Y-85113755D01*
X207494500Y-87806310D01*
X207505920Y-87913148D01*
X207516997Y-87964375D01*
X207516998Y-87964377D01*
X207550735Y-88066381D01*
X207585979Y-88121523D01*
X207628222Y-88187616D01*
X207673845Y-88240534D01*
X207782345Y-88335025D01*
X207913074Y-88395122D01*
X207978118Y-88414397D01*
X207979596Y-88414863D01*
X207980064Y-88414974D01*
X207980067Y-88414975D01*
X207980069Y-88414975D01*
X207980072Y-88414976D01*
X208084397Y-88430240D01*
X208122431Y-88435806D01*
X219914769Y-88465189D01*
X220022191Y-88453918D01*
X220073703Y-88442853D01*
X220158214Y-88414975D01*
X220176276Y-88409017D01*
X220176276Y-88409016D01*
X220176278Y-88409016D01*
X220271184Y-88348389D01*
X220297532Y-88331558D01*
X220301079Y-88328918D01*
X220302220Y-88330451D01*
X220358656Y-88304846D01*
X220427790Y-88314960D01*
X220480481Y-88360846D01*
X220500000Y-88427627D01*
X220500000Y-105698638D01*
X220480315Y-105765677D01*
X220463681Y-105786319D01*
X220286819Y-105963181D01*
X220225496Y-105996666D01*
X220199138Y-105999500D01*
X121974500Y-105999500D01*
X121907461Y-105979815D01*
X121861706Y-105927011D01*
X121850500Y-105875500D01*
X121850500Y-98254000D01*
X124574500Y-98254000D01*
X124574500Y-103535579D01*
X124585937Y-103642498D01*
X124592608Y-103673323D01*
X124597030Y-103693759D01*
X124597035Y-103693780D01*
X124630826Y-103795853D01*
X124630828Y-103795856D01*
X124684774Y-103880195D01*
X124708360Y-103917068D01*
X124708361Y-103917069D01*
X124753991Y-103969957D01*
X124753995Y-103969961D01*
X124753998Y-103969964D01*
X124862527Y-104064414D01*
X124862530Y-104064415D01*
X124862533Y-104064417D01*
X124993269Y-104124463D01*
X124993275Y-104124466D01*
X125018836Y-104132031D01*
X125060273Y-104144295D01*
X125060277Y-104144296D01*
X125202649Y-104165078D01*
X129648266Y-104174620D01*
X129758718Y-104162648D01*
X129811610Y-104150927D01*
X129916782Y-104115115D01*
X130037045Y-104036132D01*
X130089393Y-103989856D01*
X130182529Y-103880195D01*
X130241001Y-103748732D01*
X130260021Y-103681501D01*
X130260021Y-103681499D01*
X130260024Y-103681471D01*
X130261075Y-103673901D01*
X130261114Y-103673323D01*
X130279086Y-103538888D01*
X130226691Y-98247767D01*
X130214624Y-98142871D01*
X130203424Y-98092588D01*
X130169835Y-97992496D01*
X130092047Y-97871457D01*
X130092042Y-97871451D01*
X130046298Y-97818659D01*
X130046294Y-97818656D01*
X130046292Y-97818653D01*
X129937558Y-97724433D01*
X129937555Y-97724431D01*
X129937553Y-97724430D01*
X129806687Y-97664664D01*
X129806682Y-97664662D01*
X129806681Y-97664662D01*
X129739642Y-97644977D01*
X129739644Y-97644977D01*
X129739639Y-97644976D01*
X129677569Y-97636052D01*
X129597222Y-97624500D01*
X125204000Y-97624500D01*
X125203991Y-97624500D01*
X125203990Y-97624501D01*
X125096549Y-97636052D01*
X125096537Y-97636054D01*
X125045027Y-97647260D01*
X124942502Y-97681383D01*
X124942496Y-97681386D01*
X124821462Y-97759171D01*
X124821451Y-97759179D01*
X124768659Y-97804923D01*
X124674433Y-97913664D01*
X124674430Y-97913668D01*
X124614664Y-98044534D01*
X124594976Y-98111582D01*
X124584962Y-98181231D01*
X124574500Y-98254000D01*
X121850500Y-98254000D01*
X121850500Y-85104230D01*
X121870185Y-85037191D01*
X121922989Y-84991436D01*
X121992147Y-84981492D01*
X122055703Y-85010517D01*
X122056102Y-85010865D01*
X122151616Y-85094474D01*
X122282191Y-85154903D01*
X122349130Y-85174925D01*
X122349137Y-85174926D01*
X122491435Y-85196119D01*
X122491434Y-85196119D01*
X122603504Y-85196684D01*
X124900558Y-85208275D01*
X124967496Y-85228297D01*
X125012984Y-85281331D01*
X125023923Y-85333688D01*
X124914599Y-94912244D01*
X124905951Y-95669982D01*
X124912660Y-95739500D01*
X124916383Y-95778078D01*
X124927101Y-95829935D01*
X124927103Y-95829940D01*
X124960379Y-95933311D01*
X125037033Y-96055072D01*
X125037035Y-96055074D01*
X125037039Y-96055080D01*
X125082292Y-96108300D01*
X125190137Y-96203527D01*
X125320452Y-96264521D01*
X125349231Y-96273264D01*
X125387302Y-96284831D01*
X125387309Y-96284833D01*
X125529527Y-96306639D01*
X128492574Y-96334331D01*
X128597532Y-96324316D01*
X128647956Y-96314115D01*
X128748555Y-96282544D01*
X128871114Y-96207172D01*
X128924815Y-96162473D01*
X129021174Y-96055625D01*
X129083527Y-95925958D01*
X129104537Y-95859322D01*
X129127834Y-95717340D01*
X129333384Y-85352809D01*
X129354394Y-85286175D01*
X129408095Y-85241476D01*
X129457983Y-85231272D01*
X133601380Y-85252181D01*
X133668318Y-85272203D01*
X133713806Y-85325237D01*
X133724753Y-85376001D01*
X133734070Y-91881244D01*
X133734282Y-92029267D01*
X133737707Y-94421244D01*
X133741344Y-96961244D01*
X133741556Y-97109267D01*
X133745695Y-99999613D01*
X133745695Y-99999621D01*
X133755886Y-100093384D01*
X133757342Y-100106780D01*
X133768564Y-100158147D01*
X133768565Y-100158151D01*
X133768566Y-100158155D01*
X133802661Y-100260390D01*
X133802662Y-100260392D01*
X133802663Y-100260394D01*
X133880489Y-100381409D01*
X133926260Y-100434198D01*
X133926263Y-100434201D01*
X134035023Y-100528384D01*
X134165922Y-100588115D01*
X134207337Y-100600261D01*
X134232967Y-100607778D01*
X134232968Y-100607778D01*
X134241702Y-100609033D01*
X134241729Y-100609034D01*
X134375390Y-100628210D01*
X148457095Y-100623835D01*
X148511859Y-100620395D01*
X148520006Y-100619884D01*
X148520007Y-100619883D01*
X148520020Y-100619883D01*
X148550646Y-100616031D01*
X148612569Y-100604283D01*
X148622280Y-100600260D01*
X148691744Y-100592789D01*
X148742617Y-100614500D01*
X148808390Y-100662287D01*
X148894561Y-100706193D01*
X148990776Y-100755218D01*
X148990778Y-100755218D01*
X148990781Y-100755220D01*
X149095137Y-100789127D01*
X149185465Y-100818477D01*
X149286557Y-100834488D01*
X149387648Y-100850500D01*
X149387649Y-100850500D01*
X150392351Y-100850500D01*
X150392352Y-100850500D01*
X150594534Y-100818477D01*
X150789219Y-100755220D01*
X150971610Y-100662287D01*
X151041205Y-100611722D01*
X151042104Y-100611402D01*
X151042700Y-100610653D01*
X151074944Y-100599683D01*
X151107011Y-100588242D01*
X151108241Y-100588356D01*
X151108847Y-100588151D01*
X151117982Y-100589266D01*
X151143963Y-100591692D01*
X151146482Y-100592317D01*
X151181242Y-100602512D01*
X151181243Y-100602512D01*
X151323665Y-100622944D01*
X163695135Y-100619101D01*
X163695150Y-100619100D01*
X163695152Y-100619100D01*
X163700747Y-100618748D01*
X163758058Y-100615150D01*
X163788685Y-100611298D01*
X163850616Y-100599548D01*
X163857417Y-100596730D01*
X163926883Y-100589258D01*
X163977757Y-100610970D01*
X164048390Y-100662287D01*
X164134561Y-100706193D01*
X164230776Y-100755218D01*
X164230778Y-100755218D01*
X164230781Y-100755220D01*
X164335137Y-100789127D01*
X164425465Y-100818477D01*
X164526557Y-100834488D01*
X164627648Y-100850500D01*
X164627649Y-100850500D01*
X165632351Y-100850500D01*
X165632352Y-100850500D01*
X165834534Y-100818477D01*
X166029219Y-100755220D01*
X166211610Y-100662287D01*
X166286412Y-100607940D01*
X166287159Y-100607673D01*
X166287653Y-100607049D01*
X166320036Y-100595942D01*
X166352218Y-100584459D01*
X166353241Y-100584553D01*
X166353744Y-100584381D01*
X166361346Y-100585299D01*
X166388868Y-100587834D01*
X166391531Y-100588488D01*
X166423203Y-100597777D01*
X166423204Y-100597777D01*
X166565626Y-100618209D01*
X198395807Y-100608321D01*
X198508038Y-100595669D01*
X198561722Y-100583427D01*
X198668344Y-100546172D01*
X198787828Y-100466015D01*
X198839720Y-100419229D01*
X198931777Y-100308662D01*
X198988959Y-100176633D01*
X199006411Y-100112555D01*
X199007022Y-100110534D01*
X199007320Y-100109218D01*
X199007321Y-100109216D01*
X199024989Y-99966425D01*
X198961707Y-96753389D01*
X210899500Y-96753389D01*
X210899500Y-97326611D01*
X210926598Y-97497701D01*
X210980127Y-97662445D01*
X211058768Y-97816788D01*
X211160586Y-97956928D01*
X211283072Y-98079414D01*
X211423212Y-98181232D01*
X211577555Y-98259873D01*
X211742299Y-98313402D01*
X211913389Y-98340500D01*
X211913390Y-98340500D01*
X212086610Y-98340500D01*
X212086611Y-98340500D01*
X212257701Y-98313402D01*
X212422445Y-98259873D01*
X212576788Y-98181232D01*
X212716928Y-98079414D01*
X212839414Y-97956928D01*
X212941232Y-97816788D01*
X213019873Y-97662445D01*
X213073402Y-97497701D01*
X213100500Y-97326611D01*
X213100500Y-96753389D01*
X213073402Y-96582299D01*
X213019873Y-96417555D01*
X212941232Y-96263212D01*
X212839414Y-96123072D01*
X212716928Y-96000586D01*
X212576788Y-95898768D01*
X212422445Y-95820127D01*
X212257701Y-95766598D01*
X212257699Y-95766597D01*
X212257698Y-95766597D01*
X212126271Y-95745781D01*
X212086611Y-95739500D01*
X211913389Y-95739500D01*
X211873728Y-95745781D01*
X211742302Y-95766597D01*
X211577552Y-95820128D01*
X211423211Y-95898768D01*
X211343256Y-95956859D01*
X211283072Y-96000586D01*
X211283070Y-96000588D01*
X211283069Y-96000588D01*
X211160588Y-96123069D01*
X211160588Y-96123070D01*
X211160586Y-96123072D01*
X211116859Y-96183256D01*
X211058768Y-96263211D01*
X210980128Y-96417552D01*
X210926597Y-96582302D01*
X210899885Y-96750959D01*
X210899500Y-96753389D01*
X198961707Y-96753389D01*
X198925472Y-94913634D01*
X198925453Y-94912244D01*
X198922768Y-94583489D01*
X198911292Y-93178283D01*
X199498100Y-93178283D01*
X199498100Y-93326916D01*
X199527093Y-93472672D01*
X199527095Y-93472680D01*
X199579355Y-93598847D01*
X199586824Y-93668317D01*
X199579355Y-93693753D01*
X199527095Y-93819919D01*
X199527093Y-93819927D01*
X199498100Y-93965683D01*
X199498100Y-94114316D01*
X199527093Y-94260072D01*
X199527095Y-94260080D01*
X199579355Y-94386247D01*
X199586824Y-94455717D01*
X199579355Y-94481153D01*
X199527095Y-94607319D01*
X199527093Y-94607327D01*
X199498100Y-94753083D01*
X199498100Y-94901716D01*
X199527093Y-95047472D01*
X199527095Y-95047480D01*
X199583971Y-95184791D01*
X199666539Y-95308364D01*
X199666545Y-95308371D01*
X199771628Y-95413454D01*
X199771635Y-95413460D01*
X199895208Y-95496028D01*
X199895209Y-95496028D01*
X199895210Y-95496029D01*
X200032520Y-95552905D01*
X200178283Y-95581899D01*
X200178287Y-95581900D01*
X200178288Y-95581900D01*
X200326913Y-95581900D01*
X200326914Y-95581899D01*
X200472680Y-95552905D01*
X200598848Y-95500643D01*
X200668316Y-95493175D01*
X200693747Y-95500642D01*
X200819920Y-95552905D01*
X200965683Y-95581899D01*
X200965687Y-95581900D01*
X200965688Y-95581900D01*
X201114313Y-95581900D01*
X201114314Y-95581899D01*
X201260080Y-95552905D01*
X201397390Y-95496029D01*
X201520966Y-95413459D01*
X201626059Y-95308366D01*
X201708629Y-95184790D01*
X201765505Y-95047480D01*
X201794500Y-94901712D01*
X201794500Y-94753088D01*
X201765505Y-94607320D01*
X201713243Y-94481151D01*
X201710183Y-94452685D01*
X201704132Y-94424699D01*
X201706224Y-94415867D01*
X201705775Y-94411684D01*
X201711678Y-94390221D01*
X201712425Y-94388224D01*
X201760918Y-94271153D01*
X203189500Y-94271153D01*
X203189500Y-94428846D01*
X203220261Y-94583489D01*
X203220264Y-94583501D01*
X203280602Y-94729172D01*
X203280609Y-94729185D01*
X203368210Y-94860288D01*
X203368213Y-94860292D01*
X203479707Y-94971786D01*
X203479711Y-94971789D01*
X203610814Y-95059390D01*
X203610827Y-95059397D01*
X203756498Y-95119735D01*
X203756503Y-95119737D01*
X203911153Y-95150499D01*
X203911156Y-95150500D01*
X203911158Y-95150500D01*
X204068844Y-95150500D01*
X204068845Y-95150499D01*
X204223497Y-95119737D01*
X204369179Y-95059394D01*
X204500289Y-94971789D01*
X204611789Y-94860289D01*
X204699394Y-94729179D01*
X204759737Y-94583497D01*
X204790500Y-94428842D01*
X204790500Y-94271158D01*
X204790500Y-94271155D01*
X204790499Y-94271153D01*
X204759738Y-94116510D01*
X204759737Y-94116503D01*
X204758830Y-94114313D01*
X204699397Y-93970827D01*
X204699390Y-93970814D01*
X204611789Y-93839711D01*
X204611786Y-93839707D01*
X204500292Y-93728213D01*
X204500288Y-93728210D01*
X204369185Y-93640609D01*
X204369172Y-93640602D01*
X204223501Y-93580264D01*
X204223489Y-93580261D01*
X204068845Y-93549500D01*
X204068842Y-93549500D01*
X203911158Y-93549500D01*
X203911155Y-93549500D01*
X203756510Y-93580261D01*
X203756498Y-93580264D01*
X203610827Y-93640602D01*
X203610814Y-93640609D01*
X203479711Y-93728210D01*
X203479707Y-93728213D01*
X203368213Y-93839707D01*
X203368210Y-93839711D01*
X203280609Y-93970814D01*
X203280602Y-93970827D01*
X203220264Y-94116498D01*
X203220261Y-94116510D01*
X203189500Y-94271153D01*
X201760918Y-94271153D01*
X201765505Y-94260080D01*
X201794500Y-94114312D01*
X201794500Y-93965688D01*
X201765505Y-93819920D01*
X201713243Y-93693751D01*
X201705775Y-93624284D01*
X201713242Y-93598852D01*
X201765505Y-93472680D01*
X201794500Y-93326912D01*
X201794500Y-93178288D01*
X201765505Y-93032520D01*
X201708629Y-92895210D01*
X201626059Y-92771634D01*
X201626054Y-92771628D01*
X201520971Y-92666545D01*
X201520964Y-92666539D01*
X201397391Y-92583971D01*
X201260080Y-92527095D01*
X201260072Y-92527093D01*
X201114316Y-92498100D01*
X201114312Y-92498100D01*
X200965688Y-92498100D01*
X200965683Y-92498100D01*
X200819927Y-92527093D01*
X200819919Y-92527095D01*
X200693753Y-92579355D01*
X200624283Y-92586824D01*
X200598847Y-92579355D01*
X200472680Y-92527095D01*
X200472672Y-92527093D01*
X200326916Y-92498100D01*
X200326912Y-92498100D01*
X200178288Y-92498100D01*
X200178283Y-92498100D01*
X200032527Y-92527093D01*
X200032519Y-92527095D01*
X199895208Y-92583971D01*
X199771635Y-92666539D01*
X199771628Y-92666545D01*
X199666545Y-92771628D01*
X199666539Y-92771635D01*
X199583971Y-92895208D01*
X199527095Y-93032519D01*
X199527093Y-93032527D01*
X199498100Y-93178283D01*
X198911292Y-93178283D01*
X198903208Y-92188468D01*
X198922345Y-92121273D01*
X198958315Y-92084355D01*
X198972041Y-92075184D01*
X199075184Y-91972041D01*
X199141101Y-91873389D01*
X210899500Y-91873389D01*
X210899500Y-92046611D01*
X210926598Y-92217701D01*
X210980127Y-92382445D01*
X211058768Y-92536788D01*
X211160586Y-92676928D01*
X211283072Y-92799414D01*
X211423212Y-92901232D01*
X211577555Y-92979873D01*
X211742299Y-93033402D01*
X211913389Y-93060500D01*
X211913390Y-93060500D01*
X212086610Y-93060500D01*
X212086611Y-93060500D01*
X212257701Y-93033402D01*
X212422445Y-92979873D01*
X212576788Y-92901232D01*
X212716928Y-92799414D01*
X212839414Y-92676928D01*
X212941232Y-92536788D01*
X213019873Y-92382445D01*
X213073402Y-92217701D01*
X213100500Y-92046611D01*
X213100500Y-91873389D01*
X213073402Y-91702299D01*
X213019873Y-91537555D01*
X212941232Y-91383212D01*
X212839414Y-91243072D01*
X212716928Y-91120586D01*
X212576788Y-91018768D01*
X212422445Y-90940127D01*
X212257701Y-90886598D01*
X212257699Y-90886597D01*
X212257698Y-90886597D01*
X212126271Y-90865781D01*
X212086611Y-90859500D01*
X211913389Y-90859500D01*
X211873728Y-90865781D01*
X211742302Y-90886597D01*
X211577552Y-90940128D01*
X211423211Y-91018768D01*
X211343256Y-91076859D01*
X211283072Y-91120586D01*
X211283070Y-91120588D01*
X211283069Y-91120588D01*
X211160588Y-91243069D01*
X211160588Y-91243070D01*
X211160586Y-91243072D01*
X211149350Y-91258537D01*
X211058768Y-91383211D01*
X210980128Y-91537552D01*
X210926597Y-91702302D01*
X210907788Y-91821062D01*
X210899500Y-91873389D01*
X199141101Y-91873389D01*
X199156223Y-91850758D01*
X199212043Y-91715996D01*
X199240500Y-91572933D01*
X199240500Y-91427067D01*
X199240500Y-91427064D01*
X199240499Y-91427062D01*
X199212044Y-91284011D01*
X199212043Y-91284004D01*
X199201494Y-91258537D01*
X199156226Y-91149248D01*
X199156219Y-91149235D01*
X199075184Y-91027959D01*
X199075181Y-91027955D01*
X198972042Y-90924816D01*
X198947022Y-90908098D01*
X198902218Y-90854485D01*
X198891919Y-90806010D01*
X198871712Y-88331558D01*
X198534980Y-47098035D01*
X198554117Y-47030840D01*
X198606545Y-46984655D01*
X198675620Y-46974147D01*
X198706430Y-46982464D01*
X198779920Y-47012905D01*
X198870086Y-47030840D01*
X198925683Y-47041899D01*
X198925687Y-47041900D01*
X198925688Y-47041900D01*
X199074313Y-47041900D01*
X199074314Y-47041899D01*
X199220080Y-47012905D01*
X199357390Y-46956029D01*
X199480966Y-46873459D01*
X199586059Y-46768366D01*
X199668629Y-46644790D01*
X199725505Y-46507480D01*
X199754500Y-46361712D01*
X199754500Y-46213088D01*
X199725505Y-46067320D01*
X199673243Y-45941151D01*
X199669963Y-45910641D01*
X199664516Y-45880444D01*
X199666064Y-45874376D01*
X199665775Y-45871684D01*
X199673241Y-45846254D01*
X199679496Y-45831153D01*
X200699500Y-45831153D01*
X200699500Y-45988846D01*
X200730261Y-46143489D01*
X200730264Y-46143501D01*
X200790602Y-46289172D01*
X200790609Y-46289185D01*
X200878210Y-46420288D01*
X200878213Y-46420292D01*
X200989707Y-46531786D01*
X200989711Y-46531789D01*
X201120814Y-46619390D01*
X201120827Y-46619397D01*
X201266498Y-46679735D01*
X201266503Y-46679737D01*
X201414718Y-46709219D01*
X201421153Y-46710499D01*
X201421156Y-46710500D01*
X201421158Y-46710500D01*
X201578844Y-46710500D01*
X201578845Y-46710499D01*
X201733497Y-46679737D01*
X201879179Y-46619394D01*
X202010289Y-46531789D01*
X202121789Y-46420289D01*
X202209394Y-46289179D01*
X202255939Y-46176809D01*
X202299779Y-46122405D01*
X202366073Y-46100340D01*
X202433773Y-46117619D01*
X202481384Y-46168756D01*
X202494500Y-46224261D01*
X202494500Y-90876000D01*
X202494501Y-90876009D01*
X202506052Y-90983450D01*
X202506054Y-90983462D01*
X202517260Y-91034972D01*
X202551383Y-91137497D01*
X202551386Y-91137503D01*
X202629171Y-91258537D01*
X202629179Y-91258548D01*
X202674923Y-91311340D01*
X202674926Y-91311343D01*
X202674930Y-91311347D01*
X202783664Y-91405567D01*
X202783667Y-91405568D01*
X202783668Y-91405569D01*
X202860883Y-91440833D01*
X202914541Y-91465338D01*
X202981580Y-91485023D01*
X202981584Y-91485024D01*
X203124000Y-91505500D01*
X203124003Y-91505500D01*
X204448640Y-91505500D01*
X204458786Y-91504955D01*
X204502678Y-91502603D01*
X204502686Y-91502602D01*
X204502688Y-91502602D01*
X204502689Y-91502602D01*
X204509682Y-91501849D01*
X204529036Y-91499769D01*
X204529046Y-91499767D01*
X204529049Y-91499767D01*
X204538648Y-91498211D01*
X204582448Y-91491114D01*
X204717257Y-91440832D01*
X204778580Y-91407347D01*
X204893761Y-91321123D01*
X205321123Y-90893761D01*
X205357288Y-90853500D01*
X205373922Y-90832858D01*
X205405567Y-90788974D01*
X205465338Y-90658097D01*
X205485023Y-90591058D01*
X205485024Y-90591054D01*
X205505500Y-90448638D01*
X205505500Y-69760745D01*
X205525185Y-69693706D01*
X205541819Y-69673064D01*
X206673064Y-68541819D01*
X206734387Y-68508334D01*
X206760745Y-68505500D01*
X208375990Y-68505500D01*
X208376000Y-68505500D01*
X208483456Y-68493947D01*
X208534967Y-68482741D01*
X208569197Y-68471347D01*
X208637497Y-68448616D01*
X208637501Y-68448613D01*
X208637504Y-68448613D01*
X208758543Y-68370825D01*
X208811347Y-68325070D01*
X208905567Y-68216336D01*
X208965338Y-68085459D01*
X208967178Y-68081431D01*
X208968253Y-68081922D01*
X209006941Y-68030236D01*
X209072404Y-68005816D01*
X209081256Y-68005500D01*
X209875990Y-68005500D01*
X209876000Y-68005500D01*
X209983456Y-67993947D01*
X210034967Y-67982741D01*
X210069197Y-67971347D01*
X210137497Y-67948616D01*
X210137501Y-67948613D01*
X210137504Y-67948613D01*
X210258543Y-67870825D01*
X210311347Y-67825070D01*
X210405567Y-67716336D01*
X210465338Y-67585459D01*
X210485023Y-67518420D01*
X210485024Y-67518416D01*
X210505500Y-67376000D01*
X210505500Y-65124000D01*
X210994500Y-65124000D01*
X210994500Y-66376000D01*
X210994501Y-66376009D01*
X211006052Y-66483450D01*
X211006054Y-66483462D01*
X211017260Y-66534972D01*
X211051383Y-66637497D01*
X211051386Y-66637503D01*
X211129171Y-66758537D01*
X211129179Y-66758548D01*
X211174923Y-66811340D01*
X211174926Y-66811343D01*
X211174930Y-66811347D01*
X211283664Y-66905567D01*
X211283667Y-66905568D01*
X211283668Y-66905569D01*
X211377925Y-66948616D01*
X211414541Y-66965338D01*
X211481580Y-66985023D01*
X211481584Y-66985024D01*
X211624000Y-67005500D01*
X211624003Y-67005500D01*
X214905990Y-67005500D01*
X214906000Y-67005500D01*
X215013456Y-66993947D01*
X215064967Y-66982741D01*
X215099197Y-66971347D01*
X215167497Y-66948616D01*
X215167501Y-66948613D01*
X215167504Y-66948613D01*
X215288543Y-66870825D01*
X215341347Y-66825070D01*
X215435567Y-66716336D01*
X215495338Y-66585459D01*
X215515023Y-66518420D01*
X215515024Y-66518416D01*
X215535500Y-66376000D01*
X215535500Y-65124000D01*
X215523947Y-65016544D01*
X215512741Y-64965033D01*
X215512637Y-64964722D01*
X215478616Y-64862502D01*
X215478613Y-64862496D01*
X215400828Y-64741462D01*
X215400825Y-64741457D01*
X215400820Y-64741451D01*
X215355076Y-64688659D01*
X215355072Y-64688656D01*
X215355070Y-64688653D01*
X215246336Y-64594433D01*
X215246333Y-64594431D01*
X215246331Y-64594430D01*
X215115465Y-64534664D01*
X215115460Y-64534662D01*
X215115459Y-64534662D01*
X215048420Y-64514977D01*
X215048422Y-64514977D01*
X215048417Y-64514976D01*
X214986347Y-64506052D01*
X214906000Y-64494500D01*
X211624000Y-64494500D01*
X211623991Y-64494500D01*
X211623990Y-64494501D01*
X211516549Y-64506052D01*
X211516537Y-64506054D01*
X211465027Y-64517260D01*
X211362502Y-64551383D01*
X211362496Y-64551386D01*
X211241462Y-64629171D01*
X211241451Y-64629179D01*
X211188659Y-64674923D01*
X211094433Y-64783664D01*
X211094430Y-64783668D01*
X211034664Y-64914534D01*
X211014976Y-64981582D01*
X211009949Y-65016549D01*
X210994500Y-65124000D01*
X210505500Y-65124000D01*
X210493947Y-65016544D01*
X210482741Y-64965033D01*
X210482637Y-64964722D01*
X210448616Y-64862502D01*
X210448613Y-64862496D01*
X210370828Y-64741462D01*
X210370825Y-64741457D01*
X210370820Y-64741451D01*
X210325076Y-64688659D01*
X210325072Y-64688656D01*
X210325070Y-64688653D01*
X210216336Y-64594433D01*
X210216333Y-64594431D01*
X210216331Y-64594430D01*
X210085465Y-64534664D01*
X210085460Y-64534662D01*
X210085459Y-64534662D01*
X210018420Y-64514977D01*
X210018422Y-64514977D01*
X210018417Y-64514976D01*
X209956347Y-64506052D01*
X209876000Y-64494500D01*
X209875998Y-64494500D01*
X206629500Y-64494500D01*
X206562461Y-64474815D01*
X206516706Y-64422011D01*
X206505500Y-64370500D01*
X206505500Y-47753389D01*
X210399500Y-47753389D01*
X210399500Y-48326610D01*
X210418324Y-48445465D01*
X210426598Y-48497701D01*
X210480127Y-48662445D01*
X210558768Y-48816788D01*
X210660586Y-48956928D01*
X210783072Y-49079414D01*
X210923212Y-49181232D01*
X211077555Y-49259873D01*
X211242299Y-49313402D01*
X211413389Y-49340500D01*
X211413390Y-49340500D01*
X211586610Y-49340500D01*
X211586611Y-49340500D01*
X211757701Y-49313402D01*
X211922445Y-49259873D01*
X212076788Y-49181232D01*
X212216928Y-49079414D01*
X212339414Y-48956928D01*
X212441232Y-48816788D01*
X212519873Y-48662445D01*
X212573402Y-48497701D01*
X212600500Y-48326611D01*
X212600500Y-47753389D01*
X212573402Y-47582299D01*
X212519873Y-47417555D01*
X212441232Y-47263212D01*
X212339414Y-47123072D01*
X212216928Y-47000586D01*
X212076788Y-46898768D01*
X211922445Y-46820127D01*
X211757701Y-46766598D01*
X211757699Y-46766597D01*
X211757698Y-46766597D01*
X211626271Y-46745781D01*
X211586611Y-46739500D01*
X211413389Y-46739500D01*
X211373728Y-46745781D01*
X211242302Y-46766597D01*
X211077552Y-46820128D01*
X210923211Y-46898768D01*
X210844401Y-46956028D01*
X210783072Y-47000586D01*
X210783070Y-47000588D01*
X210783069Y-47000588D01*
X210660588Y-47123069D01*
X210660588Y-47123070D01*
X210660586Y-47123072D01*
X210616859Y-47183256D01*
X210558768Y-47263211D01*
X210480128Y-47417552D01*
X210426597Y-47582302D01*
X210399500Y-47753389D01*
X206505500Y-47753389D01*
X206505500Y-42873389D01*
X210399500Y-42873389D01*
X210399500Y-43046610D01*
X210419166Y-43170781D01*
X210426598Y-43217701D01*
X210469034Y-43348306D01*
X210480128Y-43382447D01*
X210497870Y-43417267D01*
X210558768Y-43536788D01*
X210660586Y-43676928D01*
X210783072Y-43799414D01*
X210923212Y-43901232D01*
X211077555Y-43979873D01*
X211242299Y-44033402D01*
X211413389Y-44060500D01*
X211413390Y-44060500D01*
X211586610Y-44060500D01*
X211586611Y-44060500D01*
X211757701Y-44033402D01*
X211922445Y-43979873D01*
X212076788Y-43901232D01*
X212216928Y-43799414D01*
X212339414Y-43676928D01*
X212441232Y-43536788D01*
X212519873Y-43382445D01*
X212573402Y-43217701D01*
X212600500Y-43046611D01*
X212600500Y-42873389D01*
X212573402Y-42702299D01*
X212519873Y-42537555D01*
X212441232Y-42383212D01*
X212339414Y-42243072D01*
X212216928Y-42120586D01*
X212076788Y-42018768D01*
X211922445Y-41940127D01*
X211757701Y-41886598D01*
X211757699Y-41886597D01*
X211757698Y-41886597D01*
X211622561Y-41865194D01*
X211586611Y-41859500D01*
X211413389Y-41859500D01*
X211377439Y-41865194D01*
X211242302Y-41886597D01*
X211077552Y-41940128D01*
X210923211Y-42018768D01*
X210867708Y-42059094D01*
X210783072Y-42120586D01*
X210783070Y-42120588D01*
X210783069Y-42120588D01*
X210660588Y-42243069D01*
X210660588Y-42243070D01*
X210660586Y-42243072D01*
X210630592Y-42284355D01*
X210558768Y-42383211D01*
X210480128Y-42537552D01*
X210426597Y-42702302D01*
X210399500Y-42873389D01*
X206505500Y-42873389D01*
X206505500Y-41624010D01*
X206505500Y-41624000D01*
X206493947Y-41516544D01*
X206482741Y-41465033D01*
X206482637Y-41464722D01*
X206448616Y-41362502D01*
X206448613Y-41362496D01*
X206370828Y-41241462D01*
X206370825Y-41241457D01*
X206370820Y-41241451D01*
X206325076Y-41188659D01*
X206325072Y-41188656D01*
X206325070Y-41188653D01*
X206216336Y-41094433D01*
X206216333Y-41094431D01*
X206216331Y-41094430D01*
X206085465Y-41034664D01*
X206085460Y-41034662D01*
X206085459Y-41034662D01*
X206018420Y-41014977D01*
X206018422Y-41014977D01*
X206018417Y-41014976D01*
X205956347Y-41006052D01*
X205876000Y-40994500D01*
X203124000Y-40994500D01*
X203123991Y-40994500D01*
X203123990Y-40994501D01*
X203016549Y-41006052D01*
X203016537Y-41006054D01*
X202965027Y-41017260D01*
X202862502Y-41051383D01*
X202862496Y-41051386D01*
X202741462Y-41129171D01*
X202741451Y-41129179D01*
X202688659Y-41174923D01*
X202594433Y-41283664D01*
X202594430Y-41283668D01*
X202534664Y-41414534D01*
X202514976Y-41481582D01*
X202509949Y-41516549D01*
X202494502Y-41623990D01*
X202494500Y-41624001D01*
X202494500Y-45595738D01*
X202474815Y-45662777D01*
X202422011Y-45708532D01*
X202352853Y-45718476D01*
X202289297Y-45689451D01*
X202255939Y-45643190D01*
X202209397Y-45530827D01*
X202209390Y-45530814D01*
X202121789Y-45399711D01*
X202121786Y-45399707D01*
X202010292Y-45288213D01*
X202010288Y-45288210D01*
X201879185Y-45200609D01*
X201879172Y-45200602D01*
X201733501Y-45140264D01*
X201733489Y-45140261D01*
X201578845Y-45109500D01*
X201578842Y-45109500D01*
X201421158Y-45109500D01*
X201421155Y-45109500D01*
X201266510Y-45140261D01*
X201266498Y-45140264D01*
X201120827Y-45200602D01*
X201120814Y-45200609D01*
X200989711Y-45288210D01*
X200989707Y-45288213D01*
X200878213Y-45399707D01*
X200878210Y-45399711D01*
X200790609Y-45530814D01*
X200790602Y-45530827D01*
X200730264Y-45676498D01*
X200730261Y-45676510D01*
X200699500Y-45831153D01*
X199679496Y-45831153D01*
X199725505Y-45720080D01*
X199754500Y-45574312D01*
X199754500Y-45425688D01*
X199725505Y-45279920D01*
X199673243Y-45153751D01*
X199665775Y-45084284D01*
X199673242Y-45058852D01*
X199725505Y-44932680D01*
X199754500Y-44786912D01*
X199754500Y-44638288D01*
X199725505Y-44492520D01*
X199668629Y-44355210D01*
X199586059Y-44231634D01*
X199586054Y-44231628D01*
X199480971Y-44126545D01*
X199480964Y-44126539D01*
X199357391Y-44043971D01*
X199220080Y-43987095D01*
X199220072Y-43987093D01*
X199074316Y-43958100D01*
X199074312Y-43958100D01*
X198925688Y-43958100D01*
X198925683Y-43958100D01*
X198779927Y-43987093D01*
X198779915Y-43987096D01*
X198680432Y-44028303D01*
X198610962Y-44035772D01*
X198548483Y-44004496D01*
X198512832Y-43944407D01*
X198508984Y-43914758D01*
X198506488Y-43608955D01*
X198506201Y-43606439D01*
X198494469Y-43503437D01*
X198494468Y-43503427D01*
X198483227Y-43452841D01*
X198449421Y-43352149D01*
X198430847Y-43323296D01*
X198371545Y-43231175D01*
X198371542Y-43231171D01*
X198325745Y-43178401D01*
X198316937Y-43170781D01*
X198216939Y-43084266D01*
X198134319Y-43046610D01*
X198086019Y-43024596D01*
X198086016Y-43024595D01*
X198018964Y-43004962D01*
X198018962Y-43004961D01*
X198018960Y-43004961D01*
X198018955Y-43004960D01*
X197876530Y-42984594D01*
X197876527Y-42984594D01*
X197876296Y-42984594D01*
X197814593Y-42984641D01*
X197747539Y-42965007D01*
X197701744Y-42912237D01*
X197691915Y-42867137D01*
X197691097Y-42867218D01*
X197690500Y-42861163D01*
X197690500Y-42861158D01*
X197659737Y-42706503D01*
X197647945Y-42678034D01*
X197599397Y-42560827D01*
X197599390Y-42560814D01*
X197511789Y-42429711D01*
X197511786Y-42429707D01*
X197400292Y-42318213D01*
X197400288Y-42318210D01*
X197269185Y-42230609D01*
X197269172Y-42230602D01*
X197123501Y-42170264D01*
X197123489Y-42170261D01*
X196968845Y-42139500D01*
X196968842Y-42139500D01*
X196811158Y-42139500D01*
X196811155Y-42139500D01*
X196656510Y-42170261D01*
X196656498Y-42170264D01*
X196510827Y-42230602D01*
X196510814Y-42230609D01*
X196379711Y-42318210D01*
X196379707Y-42318213D01*
X196268213Y-42429707D01*
X196268210Y-42429711D01*
X196180609Y-42560814D01*
X196180602Y-42560827D01*
X196120264Y-42706498D01*
X196120261Y-42706510D01*
X196089500Y-42861153D01*
X196089500Y-42862063D01*
X196089365Y-42862520D01*
X196088903Y-42867218D01*
X196088012Y-42867130D01*
X196069815Y-42929102D01*
X196017011Y-42974857D01*
X195965595Y-42986063D01*
X190129595Y-42990553D01*
X190062541Y-42970920D01*
X190016745Y-42918151D01*
X190005500Y-42866553D01*
X190005500Y-39624010D01*
X190005500Y-39624000D01*
X189993947Y-39516544D01*
X189982741Y-39465033D01*
X189975911Y-39444511D01*
X189948616Y-39362502D01*
X189948613Y-39362496D01*
X189920975Y-39319491D01*
X189870825Y-39241457D01*
X189869950Y-39240447D01*
X189825076Y-39188659D01*
X189825072Y-39188656D01*
X189825070Y-39188653D01*
X189716336Y-39094433D01*
X189716333Y-39094431D01*
X189716331Y-39094430D01*
X189585465Y-39034664D01*
X189585460Y-39034662D01*
X189585459Y-39034662D01*
X189518420Y-39014977D01*
X189518422Y-39014977D01*
X189518417Y-39014976D01*
X189456347Y-39006052D01*
X189376000Y-38994500D01*
X163624000Y-38994500D01*
X163623991Y-38994500D01*
X163623990Y-38994501D01*
X163516549Y-39006052D01*
X163516537Y-39006054D01*
X163465027Y-39017260D01*
X163362502Y-39051383D01*
X163362496Y-39051386D01*
X163241462Y-39129171D01*
X163241451Y-39129179D01*
X163188659Y-39174923D01*
X163094433Y-39283664D01*
X163094430Y-39283668D01*
X163034664Y-39414534D01*
X163014976Y-39481582D01*
X163009949Y-39516549D01*
X162994500Y-39624000D01*
X162994500Y-41876000D01*
X162994501Y-41876009D01*
X163006052Y-41983450D01*
X163006054Y-41983462D01*
X163017260Y-42034972D01*
X163051383Y-42137497D01*
X163051386Y-42137503D01*
X163129171Y-42258537D01*
X163129179Y-42258548D01*
X163174923Y-42311340D01*
X163174926Y-42311343D01*
X163174930Y-42311347D01*
X163283664Y-42405567D01*
X163283667Y-42405568D01*
X163283668Y-42405569D01*
X163336530Y-42429711D01*
X163414541Y-42465338D01*
X163481580Y-42485023D01*
X163481584Y-42485024D01*
X163624000Y-42505500D01*
X163755953Y-42505500D01*
X163822992Y-42525185D01*
X163868747Y-42577989D01*
X163878691Y-42647147D01*
X163849666Y-42710703D01*
X163843634Y-42717181D01*
X163738032Y-42822782D01*
X163738028Y-42822786D01*
X163617715Y-42988386D01*
X163524781Y-43170776D01*
X163461522Y-43365465D01*
X163429500Y-43567648D01*
X163429500Y-43772351D01*
X163461522Y-43974534D01*
X163524781Y-44169223D01*
X163617715Y-44351613D01*
X163738028Y-44517213D01*
X163882786Y-44661971D01*
X164037749Y-44774556D01*
X164048390Y-44782287D01*
X164139840Y-44828883D01*
X164141080Y-44829515D01*
X164191876Y-44877490D01*
X164208671Y-44945311D01*
X164186134Y-45011446D01*
X164141080Y-45050485D01*
X164048386Y-45097715D01*
X163882786Y-45218028D01*
X163738028Y-45362786D01*
X163617715Y-45528386D01*
X163524781Y-45710776D01*
X163461522Y-45905465D01*
X163429500Y-46107648D01*
X163429500Y-46312351D01*
X163461522Y-46514534D01*
X163524781Y-46709223D01*
X163617715Y-46891613D01*
X163738028Y-47057213D01*
X163882786Y-47201971D01*
X164037749Y-47314556D01*
X164048390Y-47322287D01*
X164139840Y-47368883D01*
X164141080Y-47369515D01*
X164191876Y-47417490D01*
X164208671Y-47485311D01*
X164186134Y-47551446D01*
X164141080Y-47590485D01*
X164048386Y-47637715D01*
X163882786Y-47758028D01*
X163738028Y-47902786D01*
X163617715Y-48068386D01*
X163524781Y-48250776D01*
X163461522Y-48445465D01*
X163429500Y-48647648D01*
X163429500Y-48852351D01*
X163461522Y-49054534D01*
X163524781Y-49249223D01*
X163617715Y-49431613D01*
X163738028Y-49597213D01*
X163882786Y-49741971D01*
X164037749Y-49854556D01*
X164048390Y-49862287D01*
X164139840Y-49908883D01*
X164141080Y-49909515D01*
X164191876Y-49957490D01*
X164208671Y-50025311D01*
X164186134Y-50091446D01*
X164141080Y-50130485D01*
X164048386Y-50177715D01*
X163882786Y-50298028D01*
X163738028Y-50442786D01*
X163617715Y-50608386D01*
X163524781Y-50790776D01*
X163461522Y-50985465D01*
X163429500Y-51187648D01*
X163429500Y-51392351D01*
X163461522Y-51594534D01*
X163524781Y-51789223D01*
X163617715Y-51971613D01*
X163738028Y-52137213D01*
X163882786Y-52281971D01*
X164037749Y-52394556D01*
X164048390Y-52402287D01*
X164139840Y-52448883D01*
X164141080Y-52449515D01*
X164191876Y-52497490D01*
X164208671Y-52565311D01*
X164186134Y-52631446D01*
X164141080Y-52670485D01*
X164048386Y-52717715D01*
X163882786Y-52838028D01*
X163738028Y-52982786D01*
X163617715Y-53148386D01*
X163524781Y-53330776D01*
X163461522Y-53525465D01*
X163429500Y-53727648D01*
X163429500Y-53932351D01*
X163461522Y-54134534D01*
X163524781Y-54329223D01*
X163617715Y-54511613D01*
X163738028Y-54677213D01*
X163882786Y-54821971D01*
X164037749Y-54934556D01*
X164048390Y-54942287D01*
X164139840Y-54988883D01*
X164141080Y-54989515D01*
X164191876Y-55037490D01*
X164208671Y-55105311D01*
X164186134Y-55171446D01*
X164141080Y-55210485D01*
X164048386Y-55257715D01*
X163882786Y-55378028D01*
X163738028Y-55522786D01*
X163617715Y-55688386D01*
X163524781Y-55870776D01*
X163461522Y-56065465D01*
X163429500Y-56267648D01*
X163429500Y-56472351D01*
X163461522Y-56674534D01*
X163524781Y-56869223D01*
X163617715Y-57051613D01*
X163738028Y-57217213D01*
X163882786Y-57361971D01*
X164037749Y-57474556D01*
X164048390Y-57482287D01*
X164139840Y-57528883D01*
X164141080Y-57529515D01*
X164191876Y-57577490D01*
X164208671Y-57645311D01*
X164186134Y-57711446D01*
X164141080Y-57750485D01*
X164048386Y-57797715D01*
X163882786Y-57918028D01*
X163738028Y-58062786D01*
X163617715Y-58228386D01*
X163524781Y-58410776D01*
X163461522Y-58605465D01*
X163429500Y-58807648D01*
X163429500Y-59012351D01*
X163461522Y-59214534D01*
X163524781Y-59409223D01*
X163588691Y-59534653D01*
X163611397Y-59579215D01*
X163617715Y-59591613D01*
X163738028Y-59757213D01*
X163882786Y-59901971D01*
X164037749Y-60014556D01*
X164048390Y-60022287D01*
X164139840Y-60068883D01*
X164141080Y-60069515D01*
X164191876Y-60117490D01*
X164208671Y-60185311D01*
X164186134Y-60251446D01*
X164141080Y-60290485D01*
X164048386Y-60337715D01*
X163882786Y-60458028D01*
X163738028Y-60602786D01*
X163617715Y-60768386D01*
X163524781Y-60950776D01*
X163461522Y-61145465D01*
X163429500Y-61347648D01*
X163429500Y-61552351D01*
X163461522Y-61754534D01*
X163524781Y-61949223D01*
X163617715Y-62131613D01*
X163738028Y-62297213D01*
X163882786Y-62441971D01*
X164037749Y-62554556D01*
X164048390Y-62562287D01*
X164139840Y-62608883D01*
X164141080Y-62609515D01*
X164191876Y-62657490D01*
X164208671Y-62725311D01*
X164186134Y-62791446D01*
X164141080Y-62830485D01*
X164048386Y-62877715D01*
X163882786Y-62998028D01*
X163738028Y-63142786D01*
X163617715Y-63308386D01*
X163524781Y-63490776D01*
X163461522Y-63685465D01*
X163430699Y-63880079D01*
X163429500Y-63887648D01*
X163429500Y-64092352D01*
X163433878Y-64119995D01*
X163461522Y-64294534D01*
X163524781Y-64489223D01*
X163617715Y-64671613D01*
X163738028Y-64837213D01*
X163882786Y-64981971D01*
X164037749Y-65094556D01*
X164048390Y-65102287D01*
X164139840Y-65148883D01*
X164141080Y-65149515D01*
X164191876Y-65197490D01*
X164208671Y-65265311D01*
X164186134Y-65331446D01*
X164141080Y-65370485D01*
X164048386Y-65417715D01*
X163882786Y-65538028D01*
X163738028Y-65682786D01*
X163617715Y-65848386D01*
X163524781Y-66030776D01*
X163461522Y-66225465D01*
X163429500Y-66427648D01*
X163429500Y-66632351D01*
X163461522Y-66834534D01*
X163524781Y-67029223D01*
X163617715Y-67211613D01*
X163738028Y-67377213D01*
X163882786Y-67521971D01*
X164002487Y-67608937D01*
X164048390Y-67642287D01*
X164117880Y-67677694D01*
X164141080Y-67689515D01*
X164191876Y-67737490D01*
X164208671Y-67805311D01*
X164186134Y-67871446D01*
X164141080Y-67910485D01*
X164048386Y-67957715D01*
X163882786Y-68078028D01*
X163738028Y-68222786D01*
X163617715Y-68388386D01*
X163524781Y-68570776D01*
X163461522Y-68765465D01*
X163429500Y-68967648D01*
X163429500Y-69172351D01*
X163461522Y-69374534D01*
X163524781Y-69569223D01*
X163617715Y-69751613D01*
X163738028Y-69917213D01*
X163882786Y-70061971D01*
X163975734Y-70129500D01*
X164048390Y-70182287D01*
X164139840Y-70228883D01*
X164141080Y-70229515D01*
X164191876Y-70277490D01*
X164208671Y-70345311D01*
X164186134Y-70411446D01*
X164141080Y-70450485D01*
X164048386Y-70497715D01*
X163882786Y-70618028D01*
X163738028Y-70762786D01*
X163617715Y-70928386D01*
X163524781Y-71110776D01*
X163461522Y-71305465D01*
X163429500Y-71507648D01*
X163429500Y-71712351D01*
X163461522Y-71914534D01*
X163524781Y-72109223D01*
X163588691Y-72234653D01*
X163613841Y-72284011D01*
X163617715Y-72291613D01*
X163738028Y-72457213D01*
X163882786Y-72601971D01*
X164025937Y-72705974D01*
X164048390Y-72722287D01*
X164139840Y-72768883D01*
X164141080Y-72769515D01*
X164191876Y-72817490D01*
X164208671Y-72885311D01*
X164186134Y-72951446D01*
X164141080Y-72990485D01*
X164048386Y-73037715D01*
X163882786Y-73158028D01*
X163738028Y-73302786D01*
X163617715Y-73468386D01*
X163524781Y-73650776D01*
X163461522Y-73845465D01*
X163429500Y-74047648D01*
X163429500Y-74252351D01*
X163461522Y-74454534D01*
X163524781Y-74649223D01*
X163617715Y-74831613D01*
X163738028Y-74997213D01*
X163882786Y-75141971D01*
X163985143Y-75216336D01*
X164048390Y-75262287D01*
X164141080Y-75309515D01*
X164230776Y-75355218D01*
X164230778Y-75355218D01*
X164230781Y-75355220D01*
X164335137Y-75389127D01*
X164425465Y-75418477D01*
X164444697Y-75421523D01*
X164627648Y-75450500D01*
X164627649Y-75450500D01*
X165632351Y-75450500D01*
X165632352Y-75450500D01*
X165834534Y-75418477D01*
X166029219Y-75355220D01*
X166211610Y-75262287D01*
X166304590Y-75194732D01*
X166377213Y-75141971D01*
X166377215Y-75141968D01*
X166377219Y-75141966D01*
X166521966Y-74997219D01*
X166521968Y-74997215D01*
X166521971Y-74997213D01*
X166574732Y-74924590D01*
X166642287Y-74831610D01*
X166735220Y-74649219D01*
X166798477Y-74454534D01*
X166830500Y-74252352D01*
X166830500Y-74047648D01*
X166798477Y-73845466D01*
X166735220Y-73650781D01*
X166735218Y-73650778D01*
X166735218Y-73650776D01*
X166701503Y-73584607D01*
X166642287Y-73468390D01*
X166634556Y-73457749D01*
X166521971Y-73302786D01*
X166377213Y-73158028D01*
X166211614Y-73037715D01*
X166205006Y-73034348D01*
X166118917Y-72990483D01*
X166068123Y-72942511D01*
X166051328Y-72874690D01*
X166073865Y-72808555D01*
X166118917Y-72769516D01*
X166211610Y-72722287D01*
X166279684Y-72672829D01*
X166377213Y-72601971D01*
X166377215Y-72601968D01*
X166377219Y-72601966D01*
X166521966Y-72457219D01*
X166521968Y-72457215D01*
X166521971Y-72457213D01*
X166574732Y-72384590D01*
X166642287Y-72291610D01*
X166735220Y-72109219D01*
X166798477Y-71914534D01*
X166830500Y-71712352D01*
X166830500Y-71507648D01*
X166798477Y-71305466D01*
X166735220Y-71110781D01*
X166735218Y-71110778D01*
X166735218Y-71110776D01*
X166690164Y-71022354D01*
X166642287Y-70928390D01*
X166612641Y-70887585D01*
X166521971Y-70762786D01*
X166377213Y-70618028D01*
X166211614Y-70497715D01*
X166205006Y-70494348D01*
X166118917Y-70450483D01*
X166068123Y-70402511D01*
X166051328Y-70334690D01*
X166073865Y-70268555D01*
X166118917Y-70229516D01*
X166211610Y-70182287D01*
X166284266Y-70129500D01*
X166377213Y-70061971D01*
X166377215Y-70061968D01*
X166377219Y-70061966D01*
X166521966Y-69917219D01*
X166521968Y-69917215D01*
X166521971Y-69917213D01*
X166574732Y-69844590D01*
X166642287Y-69751610D01*
X166735220Y-69569219D01*
X166798477Y-69374534D01*
X166830500Y-69172352D01*
X166830500Y-68967648D01*
X166798477Y-68765466D01*
X166735220Y-68570781D01*
X166735218Y-68570778D01*
X166735218Y-68570776D01*
X166690360Y-68482739D01*
X166642287Y-68388390D01*
X166629522Y-68370820D01*
X166521971Y-68222786D01*
X166377213Y-68078028D01*
X166211614Y-67957715D01*
X166193750Y-67948613D01*
X166118917Y-67910483D01*
X166068123Y-67862511D01*
X166051328Y-67794690D01*
X166073865Y-67728555D01*
X166118917Y-67689516D01*
X166211610Y-67642287D01*
X166285641Y-67588501D01*
X166377213Y-67521971D01*
X166377215Y-67521968D01*
X166377219Y-67521966D01*
X166521966Y-67377219D01*
X166521968Y-67377215D01*
X166521971Y-67377213D01*
X166574732Y-67304590D01*
X166642287Y-67211610D01*
X166735220Y-67029219D01*
X166798477Y-66834534D01*
X166830500Y-66632352D01*
X166830500Y-66427648D01*
X166798477Y-66225466D01*
X166735220Y-66030781D01*
X166735218Y-66030778D01*
X166735218Y-66030776D01*
X166701503Y-65964607D01*
X166642287Y-65848390D01*
X166634556Y-65837749D01*
X166521971Y-65682786D01*
X166377213Y-65538028D01*
X166211614Y-65417715D01*
X166205006Y-65414348D01*
X166118917Y-65370483D01*
X166068123Y-65322511D01*
X166051328Y-65254690D01*
X166073865Y-65188555D01*
X166118917Y-65149516D01*
X166211610Y-65102287D01*
X166232770Y-65086913D01*
X166377213Y-64981971D01*
X166377215Y-64981968D01*
X166377219Y-64981966D01*
X166521966Y-64837219D01*
X166521968Y-64837215D01*
X166521971Y-64837213D01*
X166591537Y-64741462D01*
X166642287Y-64671610D01*
X166735220Y-64489219D01*
X166798477Y-64294534D01*
X166830500Y-64092352D01*
X166830500Y-63887648D01*
X166798477Y-63685466D01*
X166776781Y-63618694D01*
X166735218Y-63490776D01*
X166701503Y-63424607D01*
X166642287Y-63308390D01*
X166634556Y-63297749D01*
X166521971Y-63142786D01*
X166377213Y-62998028D01*
X166211614Y-62877715D01*
X166205006Y-62874348D01*
X166118917Y-62830483D01*
X166068123Y-62782511D01*
X166051328Y-62714690D01*
X166073865Y-62648555D01*
X166118917Y-62609516D01*
X166211610Y-62562287D01*
X166232770Y-62546913D01*
X166377213Y-62441971D01*
X166377215Y-62441968D01*
X166377219Y-62441966D01*
X166521966Y-62297219D01*
X166521968Y-62297215D01*
X166521971Y-62297213D01*
X166574732Y-62224590D01*
X166642287Y-62131610D01*
X166735220Y-61949219D01*
X166798477Y-61754534D01*
X166830500Y-61552352D01*
X166830500Y-61347648D01*
X166798477Y-61145466D01*
X166735220Y-60950781D01*
X166735218Y-60950778D01*
X166735218Y-60950776D01*
X166701503Y-60884607D01*
X166642287Y-60768390D01*
X166634556Y-60757749D01*
X166521971Y-60602786D01*
X166377213Y-60458028D01*
X166211614Y-60337715D01*
X166205006Y-60334348D01*
X166118917Y-60290483D01*
X166068123Y-60242511D01*
X166051328Y-60174690D01*
X166073865Y-60108555D01*
X166118917Y-60069516D01*
X166211610Y-60022287D01*
X166232770Y-60006913D01*
X166377213Y-59901971D01*
X166377215Y-59901968D01*
X166377219Y-59901966D01*
X166521966Y-59757219D01*
X166521968Y-59757215D01*
X166521971Y-59757213D01*
X166574732Y-59684590D01*
X166642287Y-59591610D01*
X166735220Y-59409219D01*
X166798477Y-59214534D01*
X166830500Y-59012352D01*
X166830500Y-58807648D01*
X166798477Y-58605466D01*
X166735220Y-58410781D01*
X166735218Y-58410778D01*
X166735218Y-58410776D01*
X166701503Y-58344607D01*
X166642287Y-58228390D01*
X166634556Y-58217749D01*
X166521971Y-58062786D01*
X166377213Y-57918028D01*
X166211614Y-57797715D01*
X166205006Y-57794348D01*
X166118917Y-57750483D01*
X166068123Y-57702511D01*
X166051328Y-57634690D01*
X166073865Y-57568555D01*
X166118917Y-57529516D01*
X166211610Y-57482287D01*
X166232770Y-57466913D01*
X166377213Y-57361971D01*
X166377215Y-57361968D01*
X166377219Y-57361966D01*
X166521966Y-57217219D01*
X166521968Y-57217215D01*
X166521971Y-57217213D01*
X166574732Y-57144590D01*
X166642287Y-57051610D01*
X166735220Y-56869219D01*
X166798477Y-56674534D01*
X166830500Y-56472352D01*
X166830500Y-56267648D01*
X166798477Y-56065466D01*
X166735220Y-55870781D01*
X166735218Y-55870778D01*
X166735218Y-55870776D01*
X166701503Y-55804607D01*
X166642287Y-55688390D01*
X166634556Y-55677749D01*
X166521971Y-55522786D01*
X166377213Y-55378028D01*
X166211614Y-55257715D01*
X166205006Y-55254348D01*
X166118917Y-55210483D01*
X166068123Y-55162511D01*
X166051328Y-55094690D01*
X166073865Y-55028555D01*
X166118917Y-54989516D01*
X166211610Y-54942287D01*
X166232770Y-54926913D01*
X166377213Y-54821971D01*
X166377215Y-54821968D01*
X166377219Y-54821966D01*
X166521966Y-54677219D01*
X166521968Y-54677215D01*
X166521971Y-54677213D01*
X166574732Y-54604590D01*
X166642287Y-54511610D01*
X166735220Y-54329219D01*
X166798477Y-54134534D01*
X166830500Y-53932352D01*
X166830500Y-53727648D01*
X166798477Y-53525466D01*
X166735220Y-53330781D01*
X166735218Y-53330778D01*
X166735218Y-53330776D01*
X166701503Y-53264607D01*
X166642287Y-53148390D01*
X166634556Y-53137749D01*
X166521971Y-52982786D01*
X166377213Y-52838028D01*
X166211614Y-52717715D01*
X166205006Y-52714348D01*
X166118917Y-52670483D01*
X166068123Y-52622511D01*
X166051328Y-52554690D01*
X166073865Y-52488555D01*
X166118917Y-52449516D01*
X166211610Y-52402287D01*
X166232770Y-52386913D01*
X166377213Y-52281971D01*
X166377215Y-52281968D01*
X166377219Y-52281966D01*
X166521966Y-52137219D01*
X166521968Y-52137215D01*
X166521971Y-52137213D01*
X166574732Y-52064590D01*
X166642287Y-51971610D01*
X166735220Y-51789219D01*
X166798477Y-51594534D01*
X166830500Y-51392352D01*
X166830500Y-51187648D01*
X166798477Y-50985466D01*
X166735220Y-50790781D01*
X166735218Y-50790778D01*
X166735218Y-50790776D01*
X166701503Y-50724607D01*
X166642287Y-50608390D01*
X166634556Y-50597749D01*
X166521971Y-50442786D01*
X166377213Y-50298028D01*
X166211614Y-50177715D01*
X166205006Y-50174348D01*
X166118917Y-50130483D01*
X166068123Y-50082511D01*
X166051328Y-50014690D01*
X166073865Y-49948555D01*
X166118917Y-49909516D01*
X166211610Y-49862287D01*
X166232770Y-49846913D01*
X166377213Y-49741971D01*
X166377215Y-49741968D01*
X166377219Y-49741966D01*
X166521966Y-49597219D01*
X166521968Y-49597215D01*
X166521971Y-49597213D01*
X166574732Y-49524590D01*
X166642287Y-49431610D01*
X166735220Y-49249219D01*
X166798477Y-49054534D01*
X166830500Y-48852352D01*
X166830500Y-48647648D01*
X166798477Y-48445466D01*
X166735220Y-48250781D01*
X166735218Y-48250778D01*
X166735218Y-48250776D01*
X166701503Y-48184607D01*
X166642287Y-48068390D01*
X166634556Y-48057749D01*
X166521971Y-47902786D01*
X166377213Y-47758028D01*
X166211614Y-47637715D01*
X166205006Y-47634348D01*
X166118917Y-47590483D01*
X166068123Y-47542511D01*
X166051328Y-47474690D01*
X166073865Y-47408555D01*
X166118917Y-47369516D01*
X166211610Y-47322287D01*
X166232770Y-47306913D01*
X166377213Y-47201971D01*
X166377215Y-47201968D01*
X166377219Y-47201966D01*
X166521966Y-47057219D01*
X166521968Y-47057215D01*
X166521971Y-47057213D01*
X166637086Y-46898768D01*
X166642287Y-46891610D01*
X166735220Y-46709219D01*
X166798477Y-46514534D01*
X166830500Y-46312352D01*
X166830500Y-46107648D01*
X166804129Y-45941153D01*
X166798477Y-45905465D01*
X166738241Y-45720080D01*
X166735220Y-45710781D01*
X166735218Y-45710778D01*
X166735218Y-45710776D01*
X166700781Y-45643190D01*
X166642287Y-45528390D01*
X166634556Y-45517749D01*
X166521971Y-45362786D01*
X166377213Y-45218028D01*
X166211614Y-45097715D01*
X166185254Y-45084284D01*
X166118917Y-45050483D01*
X166068123Y-45002511D01*
X166051328Y-44934690D01*
X166073865Y-44868555D01*
X166118917Y-44829516D01*
X166211610Y-44782287D01*
X166232770Y-44766913D01*
X166377213Y-44661971D01*
X166377215Y-44661968D01*
X166377219Y-44661966D01*
X166521966Y-44517219D01*
X166521968Y-44517215D01*
X166521971Y-44517213D01*
X166639671Y-44355210D01*
X166642287Y-44351610D01*
X166735220Y-44169219D01*
X166798477Y-43974534D01*
X166830500Y-43772352D01*
X166830500Y-43567648D01*
X166798477Y-43365466D01*
X166792901Y-43348306D01*
X166737696Y-43178401D01*
X166735220Y-43170781D01*
X166735218Y-43170778D01*
X166735218Y-43170776D01*
X166671952Y-43046611D01*
X166642287Y-42988390D01*
X166629594Y-42970920D01*
X166521971Y-42822786D01*
X166416366Y-42717181D01*
X166382881Y-42655858D01*
X166387865Y-42586166D01*
X166429737Y-42530233D01*
X166495201Y-42505816D01*
X166504047Y-42505500D01*
X184370500Y-42505500D01*
X184437539Y-42525185D01*
X184483294Y-42577989D01*
X184494500Y-42629500D01*
X184494500Y-63880079D01*
X184474815Y-63947118D01*
X184422011Y-63992873D01*
X184370417Y-64004079D01*
X170192296Y-63994627D01*
X170124416Y-63994582D01*
X170124415Y-63994582D01*
X170124414Y-63994582D01*
X170016780Y-64006101D01*
X169965198Y-64017305D01*
X169965194Y-64017306D01*
X169965190Y-64017307D01*
X169862496Y-64051469D01*
X169862494Y-64051469D01*
X169862491Y-64051471D01*
X169741462Y-64129252D01*
X169741451Y-64129261D01*
X169688659Y-64175005D01*
X169594433Y-64283746D01*
X169594430Y-64283750D01*
X169534664Y-64414616D01*
X169514976Y-64481664D01*
X169509858Y-64517260D01*
X169494500Y-64624082D01*
X169494500Y-74876000D01*
X169494501Y-74876009D01*
X169506052Y-74983450D01*
X169506054Y-74983462D01*
X169517260Y-75034972D01*
X169551383Y-75137497D01*
X169551386Y-75137503D01*
X169629171Y-75258537D01*
X169629179Y-75258548D01*
X169674923Y-75311340D01*
X169674926Y-75311343D01*
X169674930Y-75311347D01*
X169783664Y-75405567D01*
X169783667Y-75405568D01*
X169783668Y-75405569D01*
X169877925Y-75448616D01*
X169914541Y-75465338D01*
X169981580Y-75485023D01*
X169981584Y-75485024D01*
X170124000Y-75505500D01*
X170124003Y-75505500D01*
X185375990Y-75505500D01*
X185376000Y-75505500D01*
X185483456Y-75493947D01*
X185534967Y-75482741D01*
X185569197Y-75471347D01*
X185637497Y-75448616D01*
X185637501Y-75448613D01*
X185637504Y-75448613D01*
X185758543Y-75370825D01*
X185811347Y-75325070D01*
X185905567Y-75216336D01*
X185965338Y-75085459D01*
X185985023Y-75018420D01*
X185985024Y-75018416D01*
X186005500Y-74876000D01*
X186005500Y-71165412D01*
X188598724Y-71165412D01*
X188598724Y-71311287D01*
X188627179Y-71454338D01*
X188627182Y-71454350D01*
X188682997Y-71589101D01*
X188683004Y-71589114D01*
X188764039Y-71710390D01*
X188764042Y-71710394D01*
X188867179Y-71813531D01*
X188867183Y-71813534D01*
X188988459Y-71894569D01*
X188988472Y-71894576D01*
X189061479Y-71924816D01*
X189123228Y-71950393D01*
X189266286Y-71978849D01*
X189266289Y-71978850D01*
X189266291Y-71978850D01*
X189412159Y-71978850D01*
X189412160Y-71978849D01*
X189555220Y-71950393D01*
X189689982Y-71894573D01*
X189757256Y-71849621D01*
X189823932Y-71828743D01*
X189891312Y-71847227D01*
X189938003Y-71899205D01*
X189949181Y-71968175D01*
X189926237Y-72021582D01*
X189928200Y-72022894D01*
X189843780Y-72149235D01*
X189843773Y-72149248D01*
X189787958Y-72283999D01*
X189787955Y-72284011D01*
X189759500Y-72427062D01*
X189759500Y-72572937D01*
X189787955Y-72715988D01*
X189787958Y-72716000D01*
X189843773Y-72850751D01*
X189843780Y-72850764D01*
X189924815Y-72972040D01*
X189924818Y-72972044D01*
X190027955Y-73075181D01*
X190027959Y-73075184D01*
X190149235Y-73156219D01*
X190149248Y-73156226D01*
X190216707Y-73184168D01*
X190284004Y-73212043D01*
X190427062Y-73240499D01*
X190427065Y-73240500D01*
X190427067Y-73240500D01*
X190572935Y-73240500D01*
X190572936Y-73240499D01*
X190715996Y-73212043D01*
X190846386Y-73158034D01*
X190850751Y-73156226D01*
X190850751Y-73156225D01*
X190850758Y-73156223D01*
X190972041Y-73075184D01*
X191075184Y-72972041D01*
X191156223Y-72850758D01*
X191212043Y-72715996D01*
X191240500Y-72572933D01*
X191240500Y-72427067D01*
X191240500Y-72427064D01*
X191240499Y-72427062D01*
X191212043Y-72284004D01*
X191212041Y-72283999D01*
X191156226Y-72149248D01*
X191156219Y-72149235D01*
X191075184Y-72027959D01*
X191075181Y-72027955D01*
X190972044Y-71924818D01*
X190972040Y-71924815D01*
X190850764Y-71843780D01*
X190850751Y-71843773D01*
X190716000Y-71787958D01*
X190715988Y-71787955D01*
X190572936Y-71759500D01*
X190572933Y-71759500D01*
X190427067Y-71759500D01*
X190427064Y-71759500D01*
X190284011Y-71787955D01*
X190283999Y-71787958D01*
X190149248Y-71843773D01*
X190149235Y-71843780D01*
X190081967Y-71888728D01*
X190015289Y-71909606D01*
X189947909Y-71891121D01*
X189901219Y-71839142D01*
X189890043Y-71770172D01*
X189913005Y-71716780D01*
X189911024Y-71715456D01*
X189995443Y-71589114D01*
X189995443Y-71589113D01*
X189995447Y-71589108D01*
X190051267Y-71454346D01*
X190079724Y-71311283D01*
X190079724Y-71165417D01*
X190079724Y-71165414D01*
X190079723Y-71165412D01*
X190051268Y-71022361D01*
X190051267Y-71022354D01*
X190012346Y-70928390D01*
X189995450Y-70887598D01*
X189995443Y-70887585D01*
X189914408Y-70766309D01*
X189914405Y-70766305D01*
X189811268Y-70663168D01*
X189811264Y-70663165D01*
X189689988Y-70582130D01*
X189689975Y-70582123D01*
X189555224Y-70526308D01*
X189555212Y-70526305D01*
X189412160Y-70497850D01*
X189412157Y-70497850D01*
X189266291Y-70497850D01*
X189266288Y-70497850D01*
X189123235Y-70526305D01*
X189123223Y-70526308D01*
X188988472Y-70582123D01*
X188988459Y-70582130D01*
X188867183Y-70663165D01*
X188867179Y-70663168D01*
X188764042Y-70766305D01*
X188764039Y-70766309D01*
X188683004Y-70887585D01*
X188682997Y-70887598D01*
X188627182Y-71022349D01*
X188627179Y-71022361D01*
X188598724Y-71165412D01*
X186005500Y-71165412D01*
X186005500Y-70129500D01*
X186025185Y-70062461D01*
X186077989Y-70016706D01*
X186129500Y-70005500D01*
X190465490Y-70005500D01*
X190465500Y-70005500D01*
X190572956Y-69993947D01*
X190576517Y-69993172D01*
X190646206Y-69998150D01*
X190671776Y-70011234D01*
X190679242Y-70016223D01*
X190679244Y-70016223D01*
X190679248Y-70016226D01*
X190789688Y-70061971D01*
X190814004Y-70072043D01*
X190957062Y-70100499D01*
X190957065Y-70100500D01*
X190957067Y-70100500D01*
X191102935Y-70100500D01*
X191102936Y-70100499D01*
X191245996Y-70072043D01*
X191380758Y-70016223D01*
X191415615Y-69992931D01*
X191482291Y-69972053D01*
X191519443Y-69977057D01*
X191546564Y-69985021D01*
X191546570Y-69985021D01*
X191546574Y-69985023D01*
X191546578Y-69985024D01*
X191688994Y-70005500D01*
X191870500Y-70005500D01*
X191937539Y-70025185D01*
X191983294Y-70077989D01*
X191994500Y-70129500D01*
X191994500Y-87833064D01*
X191974815Y-87900103D01*
X191922011Y-87945858D01*
X191870453Y-87957064D01*
X167316311Y-87947754D01*
X166571026Y-87947471D01*
X166503995Y-87927762D01*
X166458260Y-87874941D01*
X166448343Y-87805778D01*
X166477392Y-87742234D01*
X166483380Y-87735804D01*
X166521966Y-87697219D01*
X166521968Y-87697215D01*
X166521971Y-87697213D01*
X166574732Y-87624590D01*
X166642287Y-87531610D01*
X166735220Y-87349219D01*
X166798477Y-87154534D01*
X166830500Y-86952352D01*
X166830500Y-86747648D01*
X166798477Y-86545466D01*
X166735220Y-86350781D01*
X166735218Y-86350778D01*
X166735218Y-86350776D01*
X166701503Y-86284607D01*
X166642287Y-86168390D01*
X166634556Y-86157749D01*
X166521971Y-86002786D01*
X166377213Y-85858028D01*
X166211614Y-85737715D01*
X166205006Y-85734348D01*
X166118917Y-85690483D01*
X166068123Y-85642511D01*
X166051328Y-85574690D01*
X166073865Y-85508555D01*
X166118917Y-85469516D01*
X166211610Y-85422287D01*
X166275318Y-85376001D01*
X166377213Y-85301971D01*
X166377215Y-85301968D01*
X166377219Y-85301966D01*
X166521966Y-85157219D01*
X166521968Y-85157215D01*
X166521971Y-85157213D01*
X166574732Y-85084590D01*
X166642287Y-84991610D01*
X166735220Y-84809219D01*
X166798477Y-84614534D01*
X166830500Y-84412352D01*
X166830500Y-84207648D01*
X166798477Y-84005466D01*
X166735220Y-83810781D01*
X166735218Y-83810778D01*
X166735218Y-83810776D01*
X166701503Y-83744607D01*
X166642287Y-83628390D01*
X166634556Y-83617749D01*
X166521971Y-83462786D01*
X166377213Y-83318028D01*
X166211614Y-83197715D01*
X166205006Y-83194348D01*
X166118917Y-83150483D01*
X166068123Y-83102511D01*
X166051328Y-83034690D01*
X166073865Y-82968555D01*
X166118917Y-82929516D01*
X166211610Y-82882287D01*
X166232770Y-82866913D01*
X166377213Y-82761971D01*
X166377215Y-82761968D01*
X166377219Y-82761966D01*
X166521966Y-82617219D01*
X166521968Y-82617215D01*
X166521971Y-82617213D01*
X166574732Y-82544590D01*
X166642287Y-82451610D01*
X166735220Y-82269219D01*
X166798477Y-82074534D01*
X166830500Y-81872352D01*
X166830500Y-81667648D01*
X166798477Y-81465466D01*
X166735220Y-81270781D01*
X166735218Y-81270778D01*
X166735218Y-81270776D01*
X166701503Y-81204607D01*
X166642287Y-81088390D01*
X166634556Y-81077749D01*
X166521971Y-80922786D01*
X166377213Y-80778028D01*
X166211614Y-80657715D01*
X166193837Y-80648657D01*
X166118917Y-80610483D01*
X166068123Y-80562511D01*
X166051328Y-80494690D01*
X166073865Y-80428555D01*
X166118917Y-80389516D01*
X166211610Y-80342287D01*
X166273421Y-80297379D01*
X166377213Y-80221971D01*
X166377215Y-80221968D01*
X166377219Y-80221966D01*
X166521966Y-80077219D01*
X166521968Y-80077215D01*
X166521971Y-80077213D01*
X166574732Y-80004590D01*
X166642287Y-79911610D01*
X166735220Y-79729219D01*
X166798477Y-79534534D01*
X166830500Y-79332352D01*
X166830500Y-79127648D01*
X166798477Y-78925466D01*
X166735220Y-78730781D01*
X166735218Y-78730778D01*
X166735218Y-78730776D01*
X166701503Y-78664607D01*
X166642287Y-78548390D01*
X166634556Y-78537749D01*
X166521971Y-78382786D01*
X166377213Y-78238028D01*
X166211613Y-78117715D01*
X166211612Y-78117714D01*
X166211610Y-78117713D01*
X166154653Y-78088691D01*
X166029223Y-78024781D01*
X165834534Y-77961522D01*
X165659995Y-77933878D01*
X165632352Y-77929500D01*
X164627648Y-77929500D01*
X164603329Y-77933351D01*
X164425465Y-77961522D01*
X164230776Y-78024781D01*
X164048386Y-78117715D01*
X163882786Y-78238028D01*
X163738028Y-78382786D01*
X163617715Y-78548386D01*
X163524781Y-78730776D01*
X163461522Y-78925465D01*
X163429500Y-79127648D01*
X163429500Y-79332351D01*
X163461522Y-79534534D01*
X163524781Y-79729223D01*
X163617715Y-79911613D01*
X163738028Y-80077213D01*
X163882786Y-80221971D01*
X164037749Y-80334556D01*
X164048390Y-80342287D01*
X164139840Y-80388883D01*
X164141080Y-80389515D01*
X164191876Y-80437490D01*
X164208671Y-80505311D01*
X164186134Y-80571446D01*
X164141080Y-80610485D01*
X164048386Y-80657715D01*
X163882786Y-80778028D01*
X163738028Y-80922786D01*
X163617715Y-81088386D01*
X163524781Y-81270776D01*
X163461522Y-81465465D01*
X163429500Y-81667648D01*
X163429500Y-81872351D01*
X163461522Y-82074534D01*
X163524781Y-82269223D01*
X163617715Y-82451613D01*
X163738028Y-82617213D01*
X163882786Y-82761971D01*
X164037749Y-82874556D01*
X164048390Y-82882287D01*
X164139840Y-82928883D01*
X164141080Y-82929515D01*
X164191876Y-82977490D01*
X164208671Y-83045311D01*
X164186134Y-83111446D01*
X164141080Y-83150485D01*
X164048386Y-83197715D01*
X163882786Y-83318028D01*
X163738028Y-83462786D01*
X163617715Y-83628386D01*
X163524781Y-83810776D01*
X163461522Y-84005465D01*
X163429500Y-84207648D01*
X163429500Y-84412351D01*
X163461522Y-84614534D01*
X163524781Y-84809223D01*
X163588691Y-84934653D01*
X163617624Y-84991436D01*
X163617715Y-84991613D01*
X163738028Y-85157213D01*
X163882786Y-85301971D01*
X163984682Y-85376001D01*
X164048390Y-85422287D01*
X164139840Y-85468883D01*
X164141080Y-85469515D01*
X164191876Y-85517490D01*
X164208671Y-85585311D01*
X164186134Y-85651446D01*
X164141080Y-85690485D01*
X164048386Y-85737715D01*
X163882786Y-85858028D01*
X163738028Y-86002786D01*
X163617715Y-86168386D01*
X163524781Y-86350776D01*
X163461522Y-86545465D01*
X163429500Y-86747648D01*
X163429500Y-86952351D01*
X163461522Y-87154534D01*
X163524781Y-87349223D01*
X163617715Y-87531613D01*
X163738028Y-87697213D01*
X163775513Y-87734698D01*
X163808998Y-87796021D01*
X163804014Y-87865713D01*
X163762142Y-87921646D01*
X163696678Y-87946063D01*
X163687785Y-87946379D01*
X151336803Y-87941696D01*
X151269771Y-87921986D01*
X151224036Y-87869165D01*
X151214119Y-87800002D01*
X151243168Y-87736458D01*
X151249156Y-87730028D01*
X151281966Y-87697219D01*
X151281968Y-87697215D01*
X151281971Y-87697213D01*
X151334732Y-87624590D01*
X151402287Y-87531610D01*
X151495220Y-87349219D01*
X151558477Y-87154534D01*
X151590500Y-86952352D01*
X151590500Y-86747648D01*
X151558477Y-86545466D01*
X151495220Y-86350781D01*
X151495218Y-86350778D01*
X151495218Y-86350776D01*
X151461503Y-86284607D01*
X151402287Y-86168390D01*
X151394556Y-86157749D01*
X151281971Y-86002786D01*
X151137213Y-85858028D01*
X150971614Y-85737715D01*
X150965006Y-85734348D01*
X150878917Y-85690483D01*
X150828123Y-85642511D01*
X150811328Y-85574690D01*
X150833865Y-85508555D01*
X150878917Y-85469516D01*
X150971610Y-85422287D01*
X151035318Y-85376001D01*
X151137213Y-85301971D01*
X151137215Y-85301968D01*
X151137219Y-85301966D01*
X151281966Y-85157219D01*
X151281968Y-85157215D01*
X151281971Y-85157213D01*
X151334732Y-85084590D01*
X151402287Y-84991610D01*
X151495220Y-84809219D01*
X151558477Y-84614534D01*
X151590500Y-84412352D01*
X151590500Y-84207648D01*
X151558477Y-84005466D01*
X151495220Y-83810781D01*
X151495218Y-83810778D01*
X151495218Y-83810776D01*
X151461503Y-83744607D01*
X151402287Y-83628390D01*
X151394556Y-83617749D01*
X151281971Y-83462786D01*
X151137213Y-83318028D01*
X150971614Y-83197715D01*
X150965006Y-83194348D01*
X150878917Y-83150483D01*
X150828123Y-83102511D01*
X150811328Y-83034690D01*
X150833865Y-82968555D01*
X150878917Y-82929516D01*
X150971610Y-82882287D01*
X150992770Y-82866913D01*
X151137213Y-82761971D01*
X151137215Y-82761968D01*
X151137219Y-82761966D01*
X151281966Y-82617219D01*
X151281968Y-82617215D01*
X151281971Y-82617213D01*
X151334732Y-82544590D01*
X151402287Y-82451610D01*
X151495220Y-82269219D01*
X151558477Y-82074534D01*
X151590500Y-81872352D01*
X151590500Y-81667648D01*
X151558477Y-81465466D01*
X151495220Y-81270781D01*
X151495218Y-81270778D01*
X151495218Y-81270776D01*
X151461503Y-81204607D01*
X151402287Y-81088390D01*
X151394556Y-81077749D01*
X151281971Y-80922786D01*
X151137213Y-80778028D01*
X150971614Y-80657715D01*
X150953837Y-80648657D01*
X150878917Y-80610483D01*
X150828123Y-80562511D01*
X150811328Y-80494690D01*
X150833865Y-80428555D01*
X150878917Y-80389516D01*
X150971610Y-80342287D01*
X151033421Y-80297379D01*
X151137213Y-80221971D01*
X151137215Y-80221968D01*
X151137219Y-80221966D01*
X151281966Y-80077219D01*
X151281968Y-80077215D01*
X151281971Y-80077213D01*
X151334732Y-80004590D01*
X151402287Y-79911610D01*
X151495220Y-79729219D01*
X151558477Y-79534534D01*
X151590500Y-79332352D01*
X151590500Y-79127648D01*
X151558477Y-78925466D01*
X151495220Y-78730781D01*
X151495218Y-78730778D01*
X151495218Y-78730776D01*
X151461503Y-78664607D01*
X151402287Y-78548390D01*
X151394556Y-78537749D01*
X151281971Y-78382786D01*
X151137213Y-78238028D01*
X150971614Y-78117715D01*
X150965006Y-78114348D01*
X150878917Y-78070483D01*
X150828123Y-78022511D01*
X150811328Y-77954690D01*
X150833865Y-77888555D01*
X150878917Y-77849516D01*
X150971610Y-77802287D01*
X150992770Y-77786913D01*
X151137213Y-77681971D01*
X151137215Y-77681968D01*
X151137219Y-77681966D01*
X151281966Y-77537219D01*
X151281968Y-77537215D01*
X151281971Y-77537213D01*
X151334732Y-77464590D01*
X151402287Y-77371610D01*
X151495220Y-77189219D01*
X151558477Y-76994534D01*
X151590500Y-76792352D01*
X151590500Y-76587648D01*
X151558477Y-76385466D01*
X151495220Y-76190781D01*
X151495218Y-76190778D01*
X151495218Y-76190776D01*
X151461503Y-76124607D01*
X151402287Y-76008390D01*
X151394556Y-75997749D01*
X151281971Y-75842786D01*
X151137213Y-75698028D01*
X150971614Y-75577715D01*
X150965006Y-75574348D01*
X150878917Y-75530483D01*
X150828123Y-75482511D01*
X150811328Y-75414690D01*
X150833865Y-75348555D01*
X150878917Y-75309516D01*
X150971610Y-75262287D01*
X151034864Y-75216331D01*
X151137213Y-75141971D01*
X151137215Y-75141968D01*
X151137219Y-75141966D01*
X151281966Y-74997219D01*
X151281968Y-74997215D01*
X151281971Y-74997213D01*
X151334732Y-74924590D01*
X151402287Y-74831610D01*
X151495220Y-74649219D01*
X151558477Y-74454534D01*
X151590500Y-74252352D01*
X151590500Y-74047648D01*
X151558477Y-73845466D01*
X151495220Y-73650781D01*
X151495218Y-73650778D01*
X151495218Y-73650776D01*
X151461503Y-73584607D01*
X151402287Y-73468390D01*
X151394556Y-73457749D01*
X151281971Y-73302786D01*
X151137213Y-73158028D01*
X150971614Y-73037715D01*
X150965006Y-73034348D01*
X150878917Y-72990483D01*
X150828123Y-72942511D01*
X150811328Y-72874690D01*
X150833865Y-72808555D01*
X150878917Y-72769516D01*
X150971610Y-72722287D01*
X151039684Y-72672829D01*
X151137213Y-72601971D01*
X151137215Y-72601968D01*
X151137219Y-72601966D01*
X151281966Y-72457219D01*
X151281968Y-72457215D01*
X151281971Y-72457213D01*
X151334732Y-72384590D01*
X151402287Y-72291610D01*
X151495220Y-72109219D01*
X151558477Y-71914534D01*
X151590500Y-71712352D01*
X151590500Y-71507648D01*
X151558477Y-71305466D01*
X151495220Y-71110781D01*
X151495218Y-71110778D01*
X151495218Y-71110776D01*
X151450164Y-71022354D01*
X151402287Y-70928390D01*
X151372641Y-70887585D01*
X151281971Y-70762786D01*
X151137213Y-70618028D01*
X150971614Y-70497715D01*
X150965006Y-70494348D01*
X150878917Y-70450483D01*
X150828123Y-70402511D01*
X150811328Y-70334690D01*
X150833865Y-70268555D01*
X150878917Y-70229516D01*
X150971610Y-70182287D01*
X151044266Y-70129500D01*
X151137213Y-70061971D01*
X151137215Y-70061968D01*
X151137219Y-70061966D01*
X151281966Y-69917219D01*
X151281968Y-69917215D01*
X151281971Y-69917213D01*
X151334732Y-69844590D01*
X151402287Y-69751610D01*
X151495220Y-69569219D01*
X151558477Y-69374534D01*
X151590500Y-69172352D01*
X151590500Y-68967648D01*
X151558477Y-68765466D01*
X151495220Y-68570781D01*
X151495218Y-68570778D01*
X151495218Y-68570776D01*
X151450360Y-68482739D01*
X151402287Y-68388390D01*
X151389522Y-68370820D01*
X151281971Y-68222786D01*
X151137213Y-68078028D01*
X150971614Y-67957715D01*
X150953750Y-67948613D01*
X150878917Y-67910483D01*
X150828123Y-67862511D01*
X150811328Y-67794690D01*
X150833865Y-67728555D01*
X150878917Y-67689516D01*
X150971610Y-67642287D01*
X151045641Y-67588501D01*
X151137213Y-67521971D01*
X151137215Y-67521968D01*
X151137219Y-67521966D01*
X151281966Y-67377219D01*
X151281968Y-67377215D01*
X151281971Y-67377213D01*
X151334732Y-67304590D01*
X151402287Y-67211610D01*
X151495220Y-67029219D01*
X151558477Y-66834534D01*
X151590500Y-66632352D01*
X151590500Y-66427648D01*
X151558477Y-66225466D01*
X151495220Y-66030781D01*
X151495218Y-66030778D01*
X151495218Y-66030776D01*
X151461503Y-65964607D01*
X151402287Y-65848390D01*
X151394556Y-65837749D01*
X151281971Y-65682786D01*
X151137213Y-65538028D01*
X150971614Y-65417715D01*
X150965006Y-65414348D01*
X150878917Y-65370483D01*
X150828123Y-65322511D01*
X150811328Y-65254690D01*
X150833865Y-65188555D01*
X150878917Y-65149516D01*
X150971610Y-65102287D01*
X150992770Y-65086913D01*
X151137213Y-64981971D01*
X151137215Y-64981968D01*
X151137219Y-64981966D01*
X151281966Y-64837219D01*
X151281968Y-64837215D01*
X151281971Y-64837213D01*
X151351537Y-64741462D01*
X151402287Y-64671610D01*
X151495220Y-64489219D01*
X151558477Y-64294534D01*
X151590500Y-64092352D01*
X151590500Y-63887648D01*
X151558477Y-63685466D01*
X151536781Y-63618694D01*
X151495218Y-63490776D01*
X151461503Y-63424607D01*
X151402287Y-63308390D01*
X151394556Y-63297749D01*
X151281971Y-63142786D01*
X151137213Y-62998028D01*
X150971614Y-62877715D01*
X150965006Y-62874348D01*
X150878917Y-62830483D01*
X150828123Y-62782511D01*
X150811328Y-62714690D01*
X150833865Y-62648555D01*
X150878917Y-62609516D01*
X150971610Y-62562287D01*
X150992770Y-62546913D01*
X151137213Y-62441971D01*
X151137215Y-62441968D01*
X151137219Y-62441966D01*
X151281966Y-62297219D01*
X151281968Y-62297215D01*
X151281971Y-62297213D01*
X151334732Y-62224590D01*
X151402287Y-62131610D01*
X151495220Y-61949219D01*
X151558477Y-61754534D01*
X151590500Y-61552352D01*
X151590500Y-61347648D01*
X151558477Y-61145466D01*
X151495220Y-60950781D01*
X151495218Y-60950778D01*
X151495218Y-60950776D01*
X151461503Y-60884607D01*
X151402287Y-60768390D01*
X151394556Y-60757749D01*
X151281971Y-60602786D01*
X151137213Y-60458028D01*
X150971614Y-60337715D01*
X150965006Y-60334348D01*
X150878917Y-60290483D01*
X150828123Y-60242511D01*
X150811328Y-60174690D01*
X150833865Y-60108555D01*
X150878917Y-60069516D01*
X150971610Y-60022287D01*
X150992770Y-60006913D01*
X151137213Y-59901971D01*
X151137215Y-59901968D01*
X151137219Y-59901966D01*
X151281966Y-59757219D01*
X151281968Y-59757215D01*
X151281971Y-59757213D01*
X151334732Y-59684590D01*
X151402287Y-59591610D01*
X151495220Y-59409219D01*
X151558477Y-59214534D01*
X151590500Y-59012352D01*
X151590500Y-58807648D01*
X151558477Y-58605466D01*
X151495220Y-58410781D01*
X151495218Y-58410778D01*
X151495218Y-58410776D01*
X151461503Y-58344607D01*
X151402287Y-58228390D01*
X151394556Y-58217749D01*
X151281971Y-58062786D01*
X151137213Y-57918028D01*
X150971614Y-57797715D01*
X150965006Y-57794348D01*
X150878917Y-57750483D01*
X150828123Y-57702511D01*
X150811328Y-57634690D01*
X150833865Y-57568555D01*
X150878917Y-57529516D01*
X150971610Y-57482287D01*
X150992770Y-57466913D01*
X151137213Y-57361971D01*
X151137215Y-57361968D01*
X151137219Y-57361966D01*
X151281966Y-57217219D01*
X151281968Y-57217215D01*
X151281971Y-57217213D01*
X151334732Y-57144590D01*
X151402287Y-57051610D01*
X151495220Y-56869219D01*
X151558477Y-56674534D01*
X151590500Y-56472352D01*
X151590500Y-56267648D01*
X151558477Y-56065466D01*
X151495220Y-55870781D01*
X151495218Y-55870778D01*
X151495218Y-55870776D01*
X151461503Y-55804607D01*
X151402287Y-55688390D01*
X151394556Y-55677749D01*
X151281971Y-55522786D01*
X151137213Y-55378028D01*
X150971614Y-55257715D01*
X150965006Y-55254348D01*
X150878917Y-55210483D01*
X150828123Y-55162511D01*
X150811328Y-55094690D01*
X150833865Y-55028555D01*
X150878917Y-54989516D01*
X150971610Y-54942287D01*
X150992770Y-54926913D01*
X151137213Y-54821971D01*
X151137215Y-54821968D01*
X151137219Y-54821966D01*
X151281966Y-54677219D01*
X151281968Y-54677215D01*
X151281971Y-54677213D01*
X151334732Y-54604590D01*
X151402287Y-54511610D01*
X151495220Y-54329219D01*
X151558477Y-54134534D01*
X151590500Y-53932352D01*
X151590500Y-53727648D01*
X151558477Y-53525466D01*
X151495220Y-53330781D01*
X151495218Y-53330778D01*
X151495218Y-53330776D01*
X151461503Y-53264607D01*
X151402287Y-53148390D01*
X151394556Y-53137749D01*
X151281971Y-52982786D01*
X151137213Y-52838028D01*
X150971614Y-52717715D01*
X150965006Y-52714348D01*
X150878917Y-52670483D01*
X150828123Y-52622511D01*
X150811328Y-52554690D01*
X150833865Y-52488555D01*
X150878917Y-52449516D01*
X150971610Y-52402287D01*
X150992770Y-52386913D01*
X151137213Y-52281971D01*
X151137215Y-52281968D01*
X151137219Y-52281966D01*
X151281966Y-52137219D01*
X151281968Y-52137215D01*
X151281971Y-52137213D01*
X151334732Y-52064590D01*
X151402287Y-51971610D01*
X151495220Y-51789219D01*
X151558477Y-51594534D01*
X151590500Y-51392352D01*
X151590500Y-51187648D01*
X151558477Y-50985466D01*
X151495220Y-50790781D01*
X151495218Y-50790778D01*
X151495218Y-50790776D01*
X151461503Y-50724607D01*
X151402287Y-50608390D01*
X151394556Y-50597749D01*
X151281971Y-50442786D01*
X151137213Y-50298028D01*
X150971614Y-50177715D01*
X150965006Y-50174348D01*
X150878917Y-50130483D01*
X150828123Y-50082511D01*
X150811328Y-50014690D01*
X150833865Y-49948555D01*
X150878917Y-49909516D01*
X150971610Y-49862287D01*
X150992770Y-49846913D01*
X151137213Y-49741971D01*
X151137215Y-49741968D01*
X151137219Y-49741966D01*
X151281966Y-49597219D01*
X151281968Y-49597215D01*
X151281971Y-49597213D01*
X151334732Y-49524590D01*
X151402287Y-49431610D01*
X151495220Y-49249219D01*
X151558477Y-49054534D01*
X151590500Y-48852352D01*
X151590500Y-48647648D01*
X151558477Y-48445466D01*
X151495220Y-48250781D01*
X151495218Y-48250778D01*
X151495218Y-48250776D01*
X151461503Y-48184607D01*
X151402287Y-48068390D01*
X151394556Y-48057749D01*
X151281971Y-47902786D01*
X151137213Y-47758028D01*
X150971614Y-47637715D01*
X150965006Y-47634348D01*
X150878917Y-47590483D01*
X150828123Y-47542511D01*
X150811328Y-47474690D01*
X150833865Y-47408555D01*
X150878917Y-47369516D01*
X150971610Y-47322287D01*
X150992770Y-47306913D01*
X151137213Y-47201971D01*
X151137215Y-47201968D01*
X151137219Y-47201966D01*
X151281966Y-47057219D01*
X151281968Y-47057215D01*
X151281971Y-47057213D01*
X151397086Y-46898768D01*
X151402287Y-46891610D01*
X151495220Y-46709219D01*
X151558477Y-46514534D01*
X151590500Y-46312352D01*
X151590500Y-46107648D01*
X151564129Y-45941153D01*
X151558477Y-45905465D01*
X151498241Y-45720080D01*
X151495220Y-45710781D01*
X151495218Y-45710778D01*
X151495218Y-45710776D01*
X151460781Y-45643190D01*
X151402287Y-45528390D01*
X151394556Y-45517749D01*
X151281971Y-45362786D01*
X151137213Y-45218028D01*
X150971614Y-45097715D01*
X150945254Y-45084284D01*
X150878917Y-45050483D01*
X150828123Y-45002511D01*
X150811328Y-44934690D01*
X150833865Y-44868555D01*
X150878917Y-44829516D01*
X150971610Y-44782287D01*
X150992770Y-44766913D01*
X151137213Y-44661971D01*
X151137215Y-44661968D01*
X151137219Y-44661966D01*
X151281966Y-44517219D01*
X151281968Y-44517215D01*
X151281971Y-44517213D01*
X151399671Y-44355210D01*
X151402287Y-44351610D01*
X151495220Y-44169219D01*
X151558477Y-43974534D01*
X151590500Y-43772352D01*
X151590500Y-43567648D01*
X151558477Y-43365466D01*
X151552901Y-43348306D01*
X151497696Y-43178401D01*
X151495220Y-43170781D01*
X151495218Y-43170778D01*
X151495218Y-43170776D01*
X151431952Y-43046611D01*
X151402287Y-42988390D01*
X151389594Y-42970920D01*
X151281971Y-42822786D01*
X151137213Y-42678028D01*
X150971613Y-42557715D01*
X150971612Y-42557714D01*
X150971610Y-42557713D01*
X150869757Y-42505816D01*
X150789223Y-42464781D01*
X150594534Y-42401522D01*
X150419995Y-42373878D01*
X150392352Y-42369500D01*
X149387648Y-42369500D01*
X149363329Y-42373351D01*
X149185465Y-42401522D01*
X148990776Y-42464781D01*
X148808386Y-42557715D01*
X148642786Y-42678028D01*
X148498028Y-42822786D01*
X148377715Y-42988386D01*
X148284781Y-43170776D01*
X148221522Y-43365465D01*
X148189500Y-43567648D01*
X148189500Y-43772351D01*
X148221522Y-43974534D01*
X148284781Y-44169223D01*
X148377715Y-44351613D01*
X148498028Y-44517213D01*
X148642786Y-44661971D01*
X148797749Y-44774556D01*
X148808390Y-44782287D01*
X148899840Y-44828883D01*
X148901080Y-44829515D01*
X148951876Y-44877490D01*
X148968671Y-44945311D01*
X148946134Y-45011446D01*
X148901080Y-45050485D01*
X148808386Y-45097715D01*
X148642786Y-45218028D01*
X148498028Y-45362786D01*
X148377715Y-45528386D01*
X148284781Y-45710776D01*
X148221522Y-45905465D01*
X148189500Y-46107648D01*
X148189500Y-46312351D01*
X148221522Y-46514534D01*
X148284781Y-46709223D01*
X148377715Y-46891613D01*
X148498028Y-47057213D01*
X148642786Y-47201971D01*
X148797749Y-47314556D01*
X148808390Y-47322287D01*
X148899840Y-47368883D01*
X148901080Y-47369515D01*
X148951876Y-47417490D01*
X148968671Y-47485311D01*
X148946134Y-47551446D01*
X148901080Y-47590485D01*
X148808386Y-47637715D01*
X148642786Y-47758028D01*
X148498028Y-47902786D01*
X148377715Y-48068386D01*
X148284781Y-48250776D01*
X148221522Y-48445465D01*
X148189500Y-48647648D01*
X148189500Y-48852351D01*
X148221522Y-49054534D01*
X148284781Y-49249223D01*
X148377715Y-49431613D01*
X148498028Y-49597213D01*
X148642786Y-49741971D01*
X148797749Y-49854556D01*
X148808390Y-49862287D01*
X148899840Y-49908883D01*
X148901080Y-49909515D01*
X148951876Y-49957490D01*
X148968671Y-50025311D01*
X148946134Y-50091446D01*
X148901080Y-50130485D01*
X148808386Y-50177715D01*
X148642786Y-50298028D01*
X148498028Y-50442786D01*
X148377715Y-50608386D01*
X148284781Y-50790776D01*
X148221522Y-50985465D01*
X148189500Y-51187648D01*
X148189500Y-51392351D01*
X148221522Y-51594534D01*
X148284781Y-51789223D01*
X148377715Y-51971613D01*
X148498028Y-52137213D01*
X148642786Y-52281971D01*
X148797749Y-52394556D01*
X148808390Y-52402287D01*
X148899840Y-52448883D01*
X148901080Y-52449515D01*
X148951876Y-52497490D01*
X148968671Y-52565311D01*
X148946134Y-52631446D01*
X148901080Y-52670485D01*
X148808386Y-52717715D01*
X148642786Y-52838028D01*
X148498028Y-52982786D01*
X148377715Y-53148386D01*
X148284781Y-53330776D01*
X148221522Y-53525465D01*
X148189500Y-53727648D01*
X148189500Y-53932351D01*
X148221522Y-54134534D01*
X148284781Y-54329223D01*
X148377715Y-54511613D01*
X148498028Y-54677213D01*
X148642786Y-54821971D01*
X148797749Y-54934556D01*
X148808390Y-54942287D01*
X148899840Y-54988883D01*
X148901080Y-54989515D01*
X148951876Y-55037490D01*
X148968671Y-55105311D01*
X148946134Y-55171446D01*
X148901080Y-55210485D01*
X148808386Y-55257715D01*
X148642786Y-55378028D01*
X148498028Y-55522786D01*
X148377715Y-55688386D01*
X148284781Y-55870776D01*
X148221522Y-56065465D01*
X148189500Y-56267648D01*
X148189500Y-56472351D01*
X148221522Y-56674534D01*
X148284781Y-56869223D01*
X148377715Y-57051613D01*
X148498028Y-57217213D01*
X148642786Y-57361971D01*
X148797749Y-57474556D01*
X148808390Y-57482287D01*
X148899840Y-57528883D01*
X148901080Y-57529515D01*
X148951876Y-57577490D01*
X148968671Y-57645311D01*
X148946134Y-57711446D01*
X148901080Y-57750485D01*
X148808386Y-57797715D01*
X148642786Y-57918028D01*
X148498028Y-58062786D01*
X148377715Y-58228386D01*
X148284781Y-58410776D01*
X148221522Y-58605465D01*
X148189500Y-58807648D01*
X148189500Y-59012351D01*
X148221522Y-59214534D01*
X148284781Y-59409223D01*
X148348691Y-59534653D01*
X148371397Y-59579215D01*
X148377715Y-59591613D01*
X148498028Y-59757213D01*
X148642786Y-59901971D01*
X148797749Y-60014556D01*
X148808390Y-60022287D01*
X148899840Y-60068883D01*
X148901080Y-60069515D01*
X148951876Y-60117490D01*
X148968671Y-60185311D01*
X148946134Y-60251446D01*
X148901080Y-60290485D01*
X148808386Y-60337715D01*
X148642786Y-60458028D01*
X148498028Y-60602786D01*
X148377715Y-60768386D01*
X148284781Y-60950776D01*
X148221522Y-61145465D01*
X148189500Y-61347648D01*
X148189500Y-61552351D01*
X148221522Y-61754534D01*
X148284781Y-61949223D01*
X148377715Y-62131613D01*
X148498028Y-62297213D01*
X148642786Y-62441971D01*
X148797749Y-62554556D01*
X148808390Y-62562287D01*
X148899840Y-62608883D01*
X148901080Y-62609515D01*
X148951876Y-62657490D01*
X148968671Y-62725311D01*
X148946134Y-62791446D01*
X148901080Y-62830485D01*
X148808386Y-62877715D01*
X148642786Y-62998028D01*
X148498028Y-63142786D01*
X148377715Y-63308386D01*
X148284781Y-63490776D01*
X148221522Y-63685465D01*
X148190699Y-63880079D01*
X148189500Y-63887648D01*
X148189500Y-64092352D01*
X148193878Y-64119995D01*
X148221522Y-64294534D01*
X148284781Y-64489223D01*
X148377715Y-64671613D01*
X148498028Y-64837213D01*
X148642786Y-64981971D01*
X148797749Y-65094556D01*
X148808390Y-65102287D01*
X148899840Y-65148883D01*
X148901080Y-65149515D01*
X148951876Y-65197490D01*
X148968671Y-65265311D01*
X148946134Y-65331446D01*
X148901080Y-65370485D01*
X148808386Y-65417715D01*
X148642786Y-65538028D01*
X148498028Y-65682786D01*
X148377715Y-65848386D01*
X148284781Y-66030776D01*
X148221522Y-66225465D01*
X148189500Y-66427648D01*
X148189500Y-66632351D01*
X148221522Y-66834534D01*
X148284781Y-67029223D01*
X148377715Y-67211613D01*
X148498028Y-67377213D01*
X148642786Y-67521971D01*
X148762487Y-67608937D01*
X148808390Y-67642287D01*
X148877880Y-67677694D01*
X148901080Y-67689515D01*
X148951876Y-67737490D01*
X148968671Y-67805311D01*
X148946134Y-67871446D01*
X148901080Y-67910485D01*
X148808386Y-67957715D01*
X148642786Y-68078028D01*
X148498028Y-68222786D01*
X148377715Y-68388386D01*
X148284781Y-68570776D01*
X148221522Y-68765465D01*
X148189500Y-68967648D01*
X148189500Y-69172351D01*
X148221522Y-69374534D01*
X148284781Y-69569223D01*
X148377715Y-69751613D01*
X148498028Y-69917213D01*
X148642786Y-70061971D01*
X148735734Y-70129500D01*
X148808390Y-70182287D01*
X148899840Y-70228883D01*
X148901080Y-70229515D01*
X148951876Y-70277490D01*
X148968671Y-70345311D01*
X148946134Y-70411446D01*
X148901080Y-70450485D01*
X148808386Y-70497715D01*
X148642786Y-70618028D01*
X148498028Y-70762786D01*
X148377715Y-70928386D01*
X148284781Y-71110776D01*
X148221522Y-71305465D01*
X148189500Y-71507648D01*
X148189500Y-71712351D01*
X148221522Y-71914534D01*
X148284781Y-72109223D01*
X148348691Y-72234653D01*
X148373841Y-72284011D01*
X148377715Y-72291613D01*
X148498028Y-72457213D01*
X148642786Y-72601971D01*
X148785937Y-72705974D01*
X148808390Y-72722287D01*
X148899840Y-72768883D01*
X148901080Y-72769515D01*
X148951876Y-72817490D01*
X148968671Y-72885311D01*
X148946134Y-72951446D01*
X148901080Y-72990485D01*
X148808386Y-73037715D01*
X148642786Y-73158028D01*
X148498028Y-73302786D01*
X148377715Y-73468386D01*
X148284781Y-73650776D01*
X148221522Y-73845465D01*
X148189500Y-74047648D01*
X148189500Y-74252351D01*
X148221522Y-74454534D01*
X148284781Y-74649223D01*
X148377715Y-74831613D01*
X148498028Y-74997213D01*
X148642786Y-75141971D01*
X148745143Y-75216336D01*
X148808390Y-75262287D01*
X148899840Y-75308883D01*
X148901080Y-75309515D01*
X148951876Y-75357490D01*
X148968671Y-75425311D01*
X148946134Y-75491446D01*
X148901080Y-75530485D01*
X148808386Y-75577715D01*
X148642786Y-75698028D01*
X148498028Y-75842786D01*
X148377715Y-76008386D01*
X148284781Y-76190776D01*
X148221522Y-76385465D01*
X148189500Y-76587648D01*
X148189500Y-76792351D01*
X148221522Y-76994534D01*
X148284781Y-77189223D01*
X148377715Y-77371613D01*
X148498028Y-77537213D01*
X148642786Y-77681971D01*
X148797749Y-77794556D01*
X148808390Y-77802287D01*
X148899840Y-77848883D01*
X148901080Y-77849515D01*
X148951876Y-77897490D01*
X148968671Y-77965311D01*
X148946134Y-78031446D01*
X148901080Y-78070485D01*
X148808386Y-78117715D01*
X148642786Y-78238028D01*
X148498028Y-78382786D01*
X148377715Y-78548386D01*
X148284781Y-78730776D01*
X148221522Y-78925465D01*
X148189500Y-79127648D01*
X148189500Y-79332351D01*
X148221522Y-79534534D01*
X148284781Y-79729223D01*
X148377715Y-79911613D01*
X148498028Y-80077213D01*
X148642786Y-80221971D01*
X148797749Y-80334556D01*
X148808390Y-80342287D01*
X148899840Y-80388883D01*
X148901080Y-80389515D01*
X148951876Y-80437490D01*
X148968671Y-80505311D01*
X148946134Y-80571446D01*
X148901080Y-80610485D01*
X148808386Y-80657715D01*
X148642786Y-80778028D01*
X148498028Y-80922786D01*
X148377715Y-81088386D01*
X148284781Y-81270776D01*
X148221522Y-81465465D01*
X148189500Y-81667648D01*
X148189500Y-81872351D01*
X148221522Y-82074534D01*
X148284781Y-82269223D01*
X148377715Y-82451613D01*
X148498028Y-82617213D01*
X148642786Y-82761971D01*
X148797749Y-82874556D01*
X148808390Y-82882287D01*
X148899840Y-82928883D01*
X148901080Y-82929515D01*
X148951876Y-82977490D01*
X148968671Y-83045311D01*
X148946134Y-83111446D01*
X148901080Y-83150485D01*
X148808386Y-83197715D01*
X148642786Y-83318028D01*
X148498028Y-83462786D01*
X148377715Y-83628386D01*
X148284781Y-83810776D01*
X148221522Y-84005465D01*
X148189500Y-84207648D01*
X148189500Y-84412351D01*
X148221522Y-84614534D01*
X148284781Y-84809223D01*
X148348691Y-84934653D01*
X148377624Y-84991436D01*
X148377715Y-84991613D01*
X148498028Y-85157213D01*
X148642786Y-85301971D01*
X148744682Y-85376001D01*
X148808390Y-85422287D01*
X148899840Y-85468883D01*
X148901080Y-85469515D01*
X148951876Y-85517490D01*
X148968671Y-85585311D01*
X148946134Y-85651446D01*
X148901080Y-85690485D01*
X148808386Y-85737715D01*
X148642786Y-85858028D01*
X148498028Y-86002786D01*
X148377715Y-86168386D01*
X148284781Y-86350776D01*
X148221522Y-86545465D01*
X148189500Y-86747648D01*
X148189500Y-86952351D01*
X148221522Y-87154534D01*
X148284781Y-87349223D01*
X148377715Y-87531613D01*
X148498028Y-87697213D01*
X148529732Y-87728917D01*
X148563217Y-87790240D01*
X148558233Y-87859932D01*
X148516361Y-87915865D01*
X148450897Y-87940282D01*
X148442004Y-87940598D01*
X140579453Y-87937617D01*
X140512421Y-87917907D01*
X140466686Y-87865086D01*
X140455500Y-87813617D01*
X140455500Y-64374010D01*
X140455500Y-64374000D01*
X140443947Y-64266544D01*
X140432741Y-64215033D01*
X140419421Y-64175012D01*
X140398616Y-64112502D01*
X140398613Y-64112496D01*
X140320828Y-63991462D01*
X140320825Y-63991457D01*
X140320820Y-63991451D01*
X140275076Y-63938659D01*
X140275072Y-63938656D01*
X140275070Y-63938653D01*
X140166336Y-63844433D01*
X140166333Y-63844431D01*
X140166331Y-63844430D01*
X140035465Y-63784664D01*
X140035460Y-63784662D01*
X140035459Y-63784662D01*
X139968420Y-63764977D01*
X139968422Y-63764977D01*
X139968417Y-63764976D01*
X139920944Y-63758150D01*
X139826000Y-63744500D01*
X134200000Y-63744500D01*
X128571531Y-63744500D01*
X128504492Y-63724815D01*
X128458737Y-63672011D01*
X128447544Y-63618694D01*
X128506386Y-59579212D01*
X128527045Y-59512469D01*
X128580510Y-59467488D01*
X128630675Y-59457021D01*
X139478312Y-59483607D01*
X139490098Y-59484532D01*
X139490116Y-59484325D01*
X139494516Y-59484687D01*
X139494528Y-59484689D01*
X139546260Y-59485249D01*
X139550080Y-59485276D01*
X139550111Y-59485276D01*
X139550234Y-59485277D01*
X139550972Y-59485278D01*
X139551916Y-59485282D01*
X139555591Y-59485281D01*
X139555593Y-59485281D01*
X139557750Y-59485272D01*
X139785171Y-59484360D01*
X139785441Y-59484360D01*
X140193959Y-59485363D01*
X140194539Y-59485332D01*
X140195101Y-59485303D01*
X140197667Y-59485193D01*
X140204925Y-59484959D01*
X140207288Y-59485254D01*
X140259460Y-59484277D01*
X140280795Y-59482515D01*
X140283881Y-59482416D01*
X140284172Y-59482491D01*
X140287362Y-59482353D01*
X146878839Y-59455988D01*
X146984616Y-59444364D01*
X147035337Y-59433293D01*
X147136331Y-59399786D01*
X147257573Y-59322314D01*
X147310496Y-59276697D01*
X147404997Y-59168211D01*
X147465110Y-59037490D01*
X147484970Y-58970503D01*
X147484971Y-58970498D01*
X147505819Y-58828136D01*
X147563858Y-36589275D01*
X147583718Y-36522289D01*
X147636641Y-36476672D01*
X147687873Y-36465600D01*
X208340523Y-36475396D01*
G37*
%TD.AperFunction*%
%TA.AperFunction,Conductor*%
G36*
X139126679Y-32520185D02*
G01*
X139172434Y-32572989D01*
X139182378Y-32642147D01*
X139153354Y-32705700D01*
X139124985Y-32738440D01*
X139094433Y-32773698D01*
X139094430Y-32773702D01*
X139034664Y-32904568D01*
X139014976Y-32971616D01*
X138994500Y-33114035D01*
X138994500Y-36983554D01*
X138974815Y-37050593D01*
X138922011Y-37096348D01*
X138852853Y-37106292D01*
X138797615Y-37083872D01*
X138681663Y-36999628D01*
X138499257Y-36906686D01*
X138499254Y-36906685D01*
X138304559Y-36843426D01*
X138102364Y-36811401D01*
X138102359Y-36811401D01*
X137897641Y-36811401D01*
X137897636Y-36811401D01*
X137695440Y-36843426D01*
X137500745Y-36906685D01*
X137500742Y-36906686D01*
X137318336Y-36999628D01*
X137248190Y-37050593D01*
X137152716Y-37119959D01*
X137152714Y-37119961D01*
X137152713Y-37119961D01*
X137007960Y-37264714D01*
X137007960Y-37264715D01*
X137007958Y-37264717D01*
X136956280Y-37335844D01*
X136887627Y-37430337D01*
X136794685Y-37612743D01*
X136794684Y-37612746D01*
X136731425Y-37807441D01*
X136699400Y-38009636D01*
X136699400Y-38214365D01*
X136731425Y-38416560D01*
X136794684Y-38611255D01*
X136794685Y-38611258D01*
X136887627Y-38793664D01*
X137007958Y-38959285D01*
X137152716Y-39104043D01*
X137260811Y-39182579D01*
X137318338Y-39224375D01*
X137410858Y-39271517D01*
X137461653Y-39319491D01*
X137478448Y-39387312D01*
X137455910Y-39453447D01*
X137410858Y-39492485D01*
X137318338Y-39539626D01*
X137202474Y-39623807D01*
X137152716Y-39659959D01*
X137152714Y-39659961D01*
X137152713Y-39659961D01*
X137007960Y-39804714D01*
X137007960Y-39804715D01*
X137007958Y-39804717D01*
X136956280Y-39875844D01*
X136887627Y-39970337D01*
X136794685Y-40152743D01*
X136794684Y-40152746D01*
X136731425Y-40347441D01*
X136699400Y-40549636D01*
X136699400Y-40754365D01*
X136731425Y-40956560D01*
X136794684Y-41151255D01*
X136794685Y-41151258D01*
X136887627Y-41333664D01*
X137007958Y-41499285D01*
X137152716Y-41644043D01*
X137188790Y-41670252D01*
X137200548Y-41685500D01*
X137215854Y-41697181D01*
X137221442Y-41712598D01*
X137231455Y-41725583D01*
X137233102Y-41744763D01*
X137239665Y-41762868D01*
X137236030Y-41778859D01*
X137237434Y-41795196D01*
X137228448Y-41812224D01*
X137224182Y-41831001D01*
X137212480Y-41842488D01*
X137204828Y-41856991D01*
X137188061Y-41866459D01*
X137174322Y-41879947D01*
X137152002Y-41886822D01*
X137143989Y-41891348D01*
X137141141Y-41891975D01*
X137135190Y-41893212D01*
X137092417Y-41897810D01*
X137066411Y-41907509D01*
X137057161Y-41909432D01*
X137049135Y-41908783D01*
X137030650Y-41912020D01*
X131309934Y-41853257D01*
X131195411Y-41865194D01*
X131140638Y-41877327D01*
X131140627Y-41877330D01*
X131098166Y-41891975D01*
X131031789Y-41914868D01*
X131031788Y-41914868D01*
X131031787Y-41914869D01*
X131031782Y-41914871D01*
X130912157Y-41994802D01*
X130861246Y-42040532D01*
X130860346Y-42041321D01*
X130860166Y-42041503D01*
X130767911Y-42151895D01*
X130767907Y-42151901D01*
X130710482Y-42283834D01*
X130692001Y-42351204D01*
X130674070Y-42493954D01*
X130674070Y-42493956D01*
X130697083Y-42635979D01*
X130710249Y-42678028D01*
X130717962Y-42702660D01*
X130717965Y-42702668D01*
X130719800Y-42706503D01*
X130758556Y-42787509D01*
X130761260Y-42793571D01*
X130809383Y-42909748D01*
X130816439Y-42933010D01*
X130830751Y-43004962D01*
X130832617Y-43014340D01*
X130835000Y-43038532D01*
X130835000Y-43121466D01*
X130832617Y-43145657D01*
X130816439Y-43226989D01*
X130809383Y-43250252D01*
X130777646Y-43326870D01*
X130766187Y-43348306D01*
X130720109Y-43417267D01*
X130704691Y-43436054D01*
X130704688Y-43436058D01*
X130646058Y-43494688D01*
X130627267Y-43510110D01*
X130558307Y-43556187D01*
X130536870Y-43567645D01*
X130460251Y-43599382D01*
X130436991Y-43606438D01*
X130376173Y-43618536D01*
X130355656Y-43622617D01*
X130331466Y-43625000D01*
X127748533Y-43625000D01*
X127724342Y-43622617D01*
X127655658Y-43608955D01*
X127643008Y-43606438D01*
X127619746Y-43599382D01*
X127543124Y-43567643D01*
X127521688Y-43556185D01*
X127452739Y-43510115D01*
X127433948Y-43494694D01*
X127375308Y-43436054D01*
X127359887Y-43417263D01*
X127313811Y-43348305D01*
X127302352Y-43326869D01*
X127270614Y-43250248D01*
X127263561Y-43226996D01*
X127250098Y-43159313D01*
X127247382Y-43145654D01*
X127245000Y-43121464D01*
X127245000Y-43038533D01*
X127247382Y-43014343D01*
X127257195Y-42965007D01*
X127263562Y-42932998D01*
X127270615Y-42909748D01*
X127302355Y-42833122D01*
X127313808Y-42811694D01*
X127330799Y-42786268D01*
X127381588Y-42688722D01*
X127401035Y-42638739D01*
X127429525Y-42532527D01*
X127431004Y-42388654D01*
X127422033Y-42321360D01*
X127421855Y-42319833D01*
X127421770Y-42319382D01*
X127404581Y-42258543D01*
X127382653Y-42180927D01*
X127375953Y-42170263D01*
X127306112Y-42059095D01*
X127306111Y-42059094D01*
X127260908Y-42005832D01*
X127260906Y-42005830D01*
X127260901Y-42005824D01*
X127220120Y-41969747D01*
X127153142Y-41910495D01*
X127088028Y-41879947D01*
X127022883Y-41849384D01*
X127022878Y-41849382D01*
X127022875Y-41849381D01*
X126956057Y-41829014D01*
X126956054Y-41829013D01*
X126956053Y-41829013D01*
X126956050Y-41829012D01*
X126956043Y-41829011D01*
X126813850Y-41807074D01*
X123774946Y-41775858D01*
X123774927Y-41775859D01*
X123656175Y-41788755D01*
X123599475Y-41801828D01*
X123599464Y-41801831D01*
X123487043Y-41842239D01*
X123487041Y-41842240D01*
X123368804Y-41924228D01*
X123317639Y-41971807D01*
X123227297Y-42083774D01*
X123172157Y-42216656D01*
X123172153Y-42216669D01*
X123155259Y-42282685D01*
X123154892Y-42284038D01*
X123154828Y-42284364D01*
X123139363Y-42427392D01*
X123139363Y-42427406D01*
X123139363Y-42427409D01*
X123364913Y-48852351D01*
X123369895Y-48994268D01*
X123369895Y-48994269D01*
X123371020Y-49026322D01*
X123484440Y-52257183D01*
X123484516Y-52261351D01*
X123514320Y-72518229D01*
X123514320Y-72518231D01*
X123525388Y-72622689D01*
X123536058Y-72672836D01*
X123568475Y-72772740D01*
X123568479Y-72772747D01*
X123644978Y-72894590D01*
X123644985Y-72894601D01*
X123678861Y-72934539D01*
X123683624Y-72942082D01*
X123690178Y-72947883D01*
X123797915Y-73043247D01*
X123928155Y-73104395D01*
X123994983Y-73124786D01*
X124137175Y-73146764D01*
X127253570Y-73179655D01*
X127681154Y-73184168D01*
X127681154Y-73184167D01*
X127681167Y-73184168D01*
X127787737Y-73173955D01*
X127838909Y-73163495D01*
X127940946Y-73131065D01*
X128063106Y-73055049D01*
X128116571Y-73010068D01*
X128116572Y-73010067D01*
X128212367Y-72902714D01*
X128274037Y-72772720D01*
X128294696Y-72705974D01*
X128317244Y-72563872D01*
X128382587Y-68078028D01*
X128388419Y-67677694D01*
X128409078Y-67610948D01*
X128462543Y-67565967D01*
X128512406Y-67555500D01*
X129646488Y-67555500D01*
X129647881Y-67555508D01*
X132584384Y-67588501D01*
X132651195Y-67608937D01*
X132696354Y-67662252D01*
X132706987Y-67711996D01*
X132756398Y-80048636D01*
X132736982Y-80115754D01*
X132684362Y-80161720D01*
X132632294Y-80173133D01*
X122513910Y-80164603D01*
X122407473Y-80175845D01*
X122407467Y-80175846D01*
X122356428Y-80186793D01*
X122254731Y-80220196D01*
X122133308Y-80297378D01*
X122080283Y-80342864D01*
X122080248Y-80342901D01*
X122067807Y-80357116D01*
X122008842Y-80394598D01*
X121938973Y-80394250D01*
X121880384Y-80356183D01*
X121851676Y-80292484D01*
X121850500Y-80275448D01*
X121850500Y-32624500D01*
X121870185Y-32557461D01*
X121922989Y-32511706D01*
X121974500Y-32500500D01*
X139059640Y-32500500D01*
X139126679Y-32520185D01*
G37*
%TD.AperFunction*%
%TD*%
%TA.AperFunction,Conductor*%
%TO.N,+20V*%
G36*
X217929797Y-36000000D02*
G01*
X212017992Y-36000000D01*
X212029779Y-33064865D01*
X217929797Y-36000000D01*
G37*
%TD.AperFunction*%
%TA.AperFunction,Conductor*%
G36*
X219940603Y-33000873D02*
G01*
X219948016Y-33000436D01*
X220000000Y-33004805D01*
X220000000Y-33011162D01*
X212029799Y-33059940D01*
X212030000Y-33010000D01*
X211521990Y-33009858D01*
X211534868Y-33002830D01*
X211561208Y-33000000D01*
X219937629Y-33000000D01*
X219940603Y-33000873D01*
G37*
%TD.AperFunction*%
%TD*%
M02*
